<?xml version="1.0" encoding="iso-8859-1"?>
<!-- Generator: Adobe Illustrator 18.0.0, SVG Export Plug-In . SVG Version: 6.00 Build 0)  -->
<!DOCTYPE svg PUBLIC "-//W3C//DTD SVG 1.1//EN" "http://www.w3.org/Graphics/SVG/1.1/DTD/svg11.dtd">
<svg version="1.1" id="Capa_1" xmlns="http://www.w3.org/2000/svg" xmlns:xlink="http://www.w3.org/1999/xlink" x="0px" y="0px"
	 viewBox="0 0 52 52" style="enable-background:new 0 0 52 52;" xml:space="preserve">
<g>
	<path style="fill:#26B99A;" d="M44.003,39.93c-0.234,0-0.469-0.082-0.659-0.248c-0.415-0.364-0.456-0.996-0.092-1.411
		c7.294-8.313,6.922-20.908-0.846-28.676C38.473,5.662,33.243,3.5,27.669,3.5c-0.036,0-0.071,0-0.107,0
		c-5.604,0.028-10.879,2.232-14.854,6.207c-0.391,0.391-1.023,0.391-1.414,0s-0.391-1.023,0-1.414
		c4.35-4.35,10.124-6.763,16.259-6.793c0.039,0,0.079,0,0.118,0c6.108,0,11.839,2.369,16.15,6.681
		c8.511,8.511,8.922,22.307,0.935,31.408C44.557,39.814,44.281,39.93,44.003,39.93z"/>
	<path style="fill:#A4E869;" d="M39.501,42h-9c-0.552,0-1,0.447-1,1s0.448,1,1,1h6.835c-3.676,2.886-8.164,4.476-12.897,4.5
		c-5.623,0.04-10.886-2.137-14.844-6.095c-7.771-7.771-8.141-20.37-0.84-28.682c0.364-0.415,0.323-1.047-0.092-1.411
		c-0.414-0.364-1.047-0.323-1.411,0.091c-7.994,9.103-7.586,22.901,0.929,31.416c4.311,4.312,10.042,6.681,16.15,6.681h0.118
		c5.153-0.025,10.041-1.749,14.052-4.876V51c0,0.553,0.448,1,1,1s1-0.447,1-1v-8C40.501,42.447,40.053,42,39.501,42z"/>
	<path style="fill:#26B99A;" d="M21,10h-9c-0.552,0-1-0.447-1-1s0.448-1,1-1h9c0.552,0,1,0.447,1,1S21.552,10,21,10z"/>
	<path style="fill:#26B99A;" d="M12,10c-0.552,0-1-0.447-1-1V1c0-0.553,0.448-1,1-1s1,0.447,1,1v8C13,9.553,12.552,10,12,10z"/>
</g>
<g>
</g>
<g>
</g>
<g>
</g>
<g>
</g>
<g>
</g>
<g>
</g>
<g>
</g>
<g>
</g>
<g>
</g>
<g>
</g>
<g>
</g>
<g>
</g>
<g>
</g>
<g>
</g>
<g>
</g>
</svg>
