<?xml version="1.0" encoding="iso-8859-1"?>
<!-- Generator: Adobe Illustrator 18.0.0, SVG Export Plug-In . SVG Version: 6.00 Build 0)  -->
<!DOCTYPE svg PUBLIC "-//W3C//DTD SVG 1.1//EN" "http://www.w3.org/Graphics/SVG/1.1/DTD/svg11.dtd">
<svg version="1.1" id="Capa_1" xmlns="http://www.w3.org/2000/svg" xmlns:xlink="http://www.w3.org/1999/xlink" x="0px" y="0px"
	 viewBox="0 0 52 52" style="enable-background:new 0 0 52 52;" xml:space="preserve">
<g>
	<path style="fill:#A4E869;" d="M44.037,39.93c-0.234,0-0.469-0.082-0.659-0.249c-0.415-0.364-0.456-0.996-0.092-1.411
		c0.417-0.475,0.819-0.976,1.195-1.489c0.326-0.446,0.951-0.544,1.397-0.218c0.446,0.326,0.543,0.952,0.217,1.397
		c-0.411,0.563-0.85,1.11-1.306,1.63C44.591,39.814,44.315,39.93,44.037,39.93z M47.341,34.942c-0.146,0-0.294-0.032-0.434-0.1
		c-0.497-0.239-0.706-0.837-0.466-1.335c0.277-0.573,0.529-1.164,0.75-1.755c0.194-0.517,0.77-0.776,1.287-0.586
		c0.517,0.193,0.78,0.77,0.586,1.287c-0.242,0.647-0.519,1.294-0.822,1.923C48.07,34.734,47.712,34.942,47.341,34.942z
		 M49.187,29.254c-0.059,0-0.118-0.005-0.178-0.016c-0.544-0.098-0.905-0.618-0.808-1.161c0.113-0.626,0.198-1.263,0.253-1.893
		c0.048-0.55,0.526-0.971,1.083-0.909c0.55,0.048,0.957,0.533,0.909,1.083c-0.06,0.69-0.153,1.388-0.276,2.072
		C50.083,28.915,49.662,29.254,49.187,29.254z M49.439,23.276c-0.51,0-0.946-0.389-0.995-0.907c-0.059-0.63-0.148-1.266-0.264-1.891
		c-0.101-0.543,0.257-1.064,0.8-1.166c0.546-0.094,1.065,0.258,1.166,0.801c0.127,0.684,0.225,1.38,0.289,2.07
		c0.051,0.55-0.353,1.037-0.902,1.089C49.501,23.275,49.469,23.276,49.439,23.276z M48.076,17.454c-0.401,0-0.78-0.243-0.933-0.641
		c-0.226-0.587-0.484-1.174-0.767-1.746c-0.245-0.495-0.042-1.095,0.453-1.34c0.496-0.246,1.095-0.042,1.34,0.453
		c0.31,0.627,0.592,1.271,0.84,1.914c0.199,0.516-0.059,1.095-0.574,1.293C48.317,17.433,48.196,17.454,48.076,17.454z
		 M45.178,12.224c-0.304,0-0.604-0.138-0.8-0.399c-0.381-0.507-0.79-1.002-1.214-1.47c-0.371-0.409-0.34-1.042,0.069-1.413
		c0.41-0.369,1.042-0.34,1.413,0.069c0.466,0.514,0.914,1.057,1.332,1.612c0.332,0.441,0.243,1.068-0.199,1.4
		C45.598,12.158,45.387,12.224,45.178,12.224z M12.035,10c-0.255,0-0.511-0.098-0.706-0.292c-0.391-0.39-0.392-1.023-0.002-1.414
		C11.739,7.88,12.164,7.486,12.6,7.11c0.418-0.359,1.05-0.315,1.41,0.105c0.361,0.418,0.314,1.049-0.104,1.41
		c-0.398,0.343-0.787,0.703-1.163,1.08C12.547,9.902,12.291,10,12.035,10z M40.966,7.976c-0.211,0-0.425-0.067-0.606-0.206
		c-0.507-0.388-1.035-0.754-1.567-1.089c-0.468-0.294-0.608-0.911-0.314-1.379c0.295-0.469,0.912-0.606,1.379-0.314
		c0.584,0.367,1.162,0.77,1.717,1.194c0.439,0.335,0.522,0.963,0.187,1.401C41.564,7.841,41.267,7.976,40.966,7.976z M16.501,6.544
		c-0.343,0-0.677-0.177-0.863-0.494c-0.28-0.477-0.12-1.089,0.356-1.368c0.601-0.353,1.222-0.681,1.847-0.976
		c0.498-0.237,1.096-0.022,1.331,0.478c0.236,0.499,0.022,1.096-0.478,1.331c-0.571,0.27-1.139,0.569-1.688,0.892
		C16.847,6.5,16.672,6.544,16.501,6.544z M35.761,5.029c-0.122,0-0.247-0.022-0.367-0.07c-0.585-0.231-1.192-0.439-1.805-0.618
		c-0.53-0.155-0.834-0.71-0.679-1.24c0.155-0.53,0.709-0.834,1.241-0.68c0.67,0.196,1.336,0.425,1.979,0.679
		c0.514,0.203,0.765,0.784,0.562,1.298C36.536,4.79,36.16,5.029,35.761,5.029z M22.018,4.241c-0.443,0-0.848-0.296-0.966-0.744
		c-0.141-0.534,0.177-1.081,0.711-1.223c0.67-0.178,1.357-0.326,2.041-0.443c0.549-0.09,1.062,0.272,1.155,0.816
		c0.093,0.545-0.272,1.062-0.817,1.154c-0.625,0.107-1.253,0.244-1.867,0.406C22.189,4.23,22.103,4.241,22.018,4.241z M29.951,3.614
		c-0.034,0-0.069-0.002-0.104-0.005c-0.633-0.065-1.274-0.102-1.903-0.108c-0.552-0.006-0.995-0.458-0.99-1.011
		c0.006-0.548,0.452-0.989,1-0.989c0.003,0,0.007,0,0.01,0c0.691,0.007,1.394,0.047,2.088,0.118
		c0.549,0.057,0.949,0.548,0.892,1.098C30.892,3.231,30.458,3.614,29.951,3.614z"/>
	<path style="fill:#26B99A;" d="M24.366,50.5c-6.108,0-11.84-2.369-16.151-6.681C-0.3,35.305-0.707,21.506,7.286,12.403
		c0.365-0.414,0.997-0.455,1.411-0.091c0.415,0.364,0.456,0.996,0.092,1.411c-7.3,8.312-6.931,20.91,0.84,28.682
		c3.958,3.958,9.263,6.135,14.845,6.095c5.604-0.028,10.879-2.232,14.854-6.207c0.391-0.391,1.023-0.391,1.414,0
		s0.391,1.023,0,1.414c-4.35,4.35-10.124,6.763-16.258,6.793C24.444,50.5,24.405,50.5,24.366,50.5z"/>
	<path style="fill:#26B99A;" d="M40.035,44h-9c-0.552,0-1-0.447-1-1s0.448-1,1-1h9c0.552,0,1,0.447,1,1S40.587,44,40.035,44z"/>
	<path style="fill:#26B99A;" d="M40.035,52c-0.552,0-1-0.447-1-1v-8c0-0.553,0.448-1,1-1s1,0.447,1,1v8
		C41.035,51.553,40.587,52,40.035,52z"/>
	<path style="fill:#A4E869;" d="M21.035,10h-9c-0.552,0-1-0.447-1-1s0.448-1,1-1h9c0.552,0,1,0.447,1,1S21.587,10,21.035,10z"/>
	<path style="fill:#A4E869;" d="M12.035,10c-0.552,0-1-0.447-1-1V1c0-0.553,0.448-1,1-1s1,0.447,1,1v8
		C13.035,9.553,12.587,10,12.035,10z"/>
</g>
<g>
</g>
<g>
</g>
<g>
</g>
<g>
</g>
<g>
</g>
<g>
</g>
<g>
</g>
<g>
</g>
<g>
</g>
<g>
</g>
<g>
</g>
<g>
</g>
<g>
</g>
<g>
</g>
<g>
</g>
</svg>
