<?xml version="1.0" encoding="iso-8859-1"?>
<!-- Generator: Adobe Illustrator 18.0.0, SVG Export Plug-In . SVG Version: 6.00 Build 0)  -->
<!DOCTYPE svg PUBLIC "-//W3C//DTD SVG 1.1//EN" "http://www.w3.org/Graphics/SVG/1.1/DTD/svg11.dtd">
<svg version="1.1" id="Capa_1" xmlns="http://www.w3.org/2000/svg" xmlns:xlink="http://www.w3.org/1999/xlink" x="0px" y="0px"
	 viewBox="0 0 52 52" style="enable-background:new 0 0 52 52;" xml:space="preserve">
<g>
	<path style="fill:#26B99A;" d="M8.033,39.93c-0.278,0-0.554-0.115-0.752-0.341c-7.987-9.102-7.577-22.897,0.935-31.408
		C12.526,3.87,18.258,1.5,24.366,1.5c0.04,0,0.079,0,0.118,0c6.135,0.03,11.909,2.443,16.259,6.793c0.391,0.391,0.391,1.023,0,1.414
		s-1.023,0.391-1.414,0c-3.975-3.975-9.25-6.179-14.854-6.207c-0.036,0-0.072,0-0.107,0c-5.575,0-10.804,2.162-14.737,6.095
		c-7.768,7.768-8.14,20.363-0.846,28.676c0.364,0.415,0.323,1.047-0.092,1.411C8.502,39.848,8.267,39.93,8.033,39.93z"/>
	<path style="fill:#A4E869;" d="M27.963,50.497c-0.548,0-0.994-0.441-1-0.989c-0.005-0.553,0.438-1.005,0.99-1.011
		c0.629-0.007,1.27-0.043,1.903-0.108c0.546-0.04,1.041,0.344,1.097,0.893c0.057,0.55-0.343,1.041-0.892,1.098
		c-0.694,0.071-1.397,0.111-2.088,0.118C27.97,50.497,27.967,50.497,27.963,50.497z M23.982,50.185
		c-0.055,0-0.112-0.005-0.168-0.014c-0.68-0.116-1.367-0.265-2.042-0.443c-0.534-0.142-0.853-0.688-0.711-1.223
		s0.688-0.852,1.222-0.711c0.617,0.163,1.245,0.299,1.866,0.404c0.544,0.093,0.911,0.609,0.818,1.153
		C24.884,49.84,24.461,50.185,23.982,50.185z M33.878,49.617c-0.433,0-0.832-0.283-0.959-0.72c-0.155-0.53,0.149-1.085,0.679-1.24
		c0.604-0.177,1.211-0.385,1.804-0.619c0.514-0.203,1.095,0.049,1.297,0.562c0.203,0.514-0.048,1.095-0.562,1.298
		c-0.649,0.257-1.315,0.485-1.978,0.68C34.066,49.604,33.971,49.617,33.878,49.617z M18.275,48.394c-0.143,0-0.288-0.03-0.425-0.095
		c-0.631-0.297-1.253-0.625-1.849-0.976c-0.476-0.28-0.635-0.894-0.354-1.369c0.28-0.478,0.892-0.636,1.369-0.355
		c0.543,0.32,1.11,0.619,1.686,0.89c0.5,0.235,0.714,0.831,0.479,1.331C19.01,48.182,18.65,48.394,18.275,48.394z M39.333,47.161
		c-0.333,0-0.657-0.165-0.848-0.468c-0.294-0.468-0.153-1.085,0.314-1.379c0.535-0.337,1.062-0.703,1.565-1.089
		c0.438-0.337,1.065-0.255,1.402,0.185c0.336,0.438,0.253,1.065-0.185,1.401c-0.552,0.424-1.13,0.826-1.718,1.196
		C39.699,47.111,39.515,47.161,39.333,47.161z M13.26,45.138c-0.231,0-0.464-0.08-0.653-0.243c-0.437-0.377-0.864-0.772-1.279-1.188
		c-0.391-0.391-0.391-1.023,0-1.414s1.023-0.391,1.414,0c0.38,0.38,0.771,0.742,1.171,1.088c0.418,0.36,0.465,0.992,0.104,1.41
		C13.82,45.021,13.54,45.138,13.26,45.138z M43.911,43.31c-0.239,0-0.479-0.085-0.67-0.259c-0.41-0.37-0.441-1.003-0.071-1.412
		c0.426-0.471,0.834-0.966,1.214-1.471c0.332-0.441,0.958-0.529,1.4-0.199c0.442,0.332,0.531,0.959,0.199,1.4
		c-0.416,0.554-0.863,1.096-1.33,1.611C44.455,43.198,44.184,43.31,43.911,43.31z M47.276,38.368c-0.149,0-0.3-0.033-0.443-0.104
		c-0.495-0.245-0.697-0.846-0.452-1.34c0.279-0.565,0.537-1.152,0.766-1.746c0.198-0.516,0.779-0.769,1.292-0.574
		c0.515,0.198,0.772,0.777,0.574,1.293c-0.25,0.65-0.533,1.295-0.84,1.914C47.998,38.164,47.644,38.368,47.276,38.368z
		 M49.166,32.695c-0.061,0-0.122-0.005-0.184-0.017c-0.543-0.102-0.901-0.623-0.8-1.166c0.116-0.623,0.204-1.259,0.263-1.891
		c0.05-0.55,0.536-0.957,1.088-0.903c0.55,0.052,0.955,0.538,0.903,1.089c-0.064,0.691-0.161,1.389-0.288,2.07
		C50.059,32.359,49.639,32.695,49.166,32.695z M49.448,26.72c-0.513,0-0.949-0.392-0.995-0.912
		c-0.056-0.632-0.141-1.269-0.253-1.893c-0.098-0.543,0.264-1.063,0.808-1.161c0.542-0.099,1.063,0.263,1.161,0.808
		c0.123,0.683,0.216,1.379,0.277,2.07c0.049,0.55-0.358,1.035-0.908,1.084C49.507,26.719,49.477,26.72,49.448,26.72z M48.124,20.887
		c-0.405,0-0.786-0.247-0.936-0.648c-0.223-0.594-0.476-1.185-0.751-1.755c-0.24-0.497-0.032-1.095,0.465-1.335
		c0.496-0.238,1.095-0.032,1.335,0.466c0.302,0.624,0.579,1.271,0.822,1.921c0.194,0.518-0.068,1.094-0.585,1.288
		C48.359,20.866,48.241,20.887,48.124,20.887z M45.284,15.623c-0.309,0-0.613-0.143-0.809-0.41
		c-0.374-0.512-0.775-1.013-1.194-1.489c-0.365-0.415-0.324-1.047,0.091-1.411c0.416-0.364,1.047-0.322,1.411,0.091
		c0.459,0.521,0.899,1.07,1.308,1.63c0.326,0.446,0.228,1.071-0.218,1.397C45.695,15.561,45.488,15.623,45.284,15.623z"/>
	<path style="fill:#A4E869;" d="M21.035,44h-9c-0.552,0-1-0.447-1-1s0.448-1,1-1h9c0.552,0,1,0.447,1,1S21.587,44,21.035,44z"/>
	<path style="fill:#A4E869;" d="M12.035,52c-0.552,0-1-0.447-1-1v-8c0-0.553,0.448-1,1-1s1,0.447,1,1v8
		C13.035,51.553,12.587,52,12.035,52z"/>
	<path style="fill:#26B99A;" d="M40.035,10h-9c-0.552,0-1-0.447-1-1s0.448-1,1-1h9c0.552,0,1,0.447,1,1S40.587,10,40.035,10z"/>
	<path style="fill:#26B99A;" d="M40.035,10c-0.552,0-1-0.447-1-1V1c0-0.553,0.448-1,1-1s1,0.447,1,1v8
		C41.035,9.553,40.587,10,40.035,10z"/>
</g>
<g>
</g>
<g>
</g>
<g>
</g>
<g>
</g>
<g>
</g>
<g>
</g>
<g>
</g>
<g>
</g>
<g>
</g>
<g>
</g>
<g>
</g>
<g>
</g>
<g>
</g>
<g>
</g>
<g>
</g>
</svg>
