<?xml version="1.0" encoding="iso-8859-1"?>
<!-- Generator: Adobe Illustrator 18.0.0, SVG Export Plug-In . SVG Version: 6.00 Build 0)  -->
<!DOCTYPE svg PUBLIC "-//W3C//DTD SVG 1.1//EN" "http://www.w3.org/Graphics/SVG/1.1/DTD/svg11.dtd">
<svg version="1.1" id="Capa_1" xmlns="http://www.w3.org/2000/svg" xmlns:xlink="http://www.w3.org/1999/xlink" x="0px" y="0px"
	 viewBox="0 0 56 56" style="enable-background:new 0 0 56 56;" xml:space="preserve">
<g>
	<path style="fill:#8697CB;" d="M1,56c-0.256,0-0.512-0.098-0.707-0.293c-0.391-0.391-0.391-1.023,0-1.414l25-25
		c0.391-0.391,1.023-0.391,1.414,0s0.391,1.023,0,1.414l-25,25C1.512,55.902,1.256,56,1,56z"/>
	<path style="fill:#8697CB;" d="M26,43c-0.552,0-1-0.448-1-1V30c0-0.552,0.448-1,1-1s1,0.448,1,1v12C27,42.552,26.552,43,26,43z"/>
	<path style="fill:none;stroke:#8697CB;stroke-width:2;stroke-linecap:round;stroke-miterlimit:10;" d="M25.184,42.184"/>
	<path style="fill:none;stroke:#8697CB;stroke-width:2;stroke-linecap:round;stroke-miterlimit:10;" d="M25.184,30.184"/>
	<path style="fill:none;stroke:#8697CB;stroke-width:2;stroke-linecap:round;stroke-miterlimit:10;" d="M25.375,30"/>
	<path style="fill:none;stroke:#8697CB;stroke-width:2;stroke-linecap:round;stroke-miterlimit:10;" d="M13.375,30"/>
	<path style="fill:#8697CB;" d="M26,31H14c-0.552,0-1-0.448-1-1s0.448-1,1-1h12c0.552,0,1,0.448,1,1S26.552,31,26,31z"/>
	<path style="fill:#8697CB;" d="M26,27c-0.256,0-0.512-0.098-0.707-0.293l-25-25c-0.391-0.391-0.391-1.023,0-1.414
		s1.023-0.391,1.414,0l25,25c0.391,0.391,0.391,1.023,0,1.414C26.512,26.902,26.256,27,26,27z"/>
	<path style="fill:#8697CB;" d="M26,27H14c-0.552,0-1-0.448-1-1s0.448-1,1-1h12c0.552,0,1,0.448,1,1S26.552,27,26,27z"/>
	<path style="fill:none;stroke:#8697CB;stroke-width:2;stroke-linecap:round;stroke-miterlimit:10;" d="M25.816,25.184"/>
	<path style="fill:none;stroke:#8697CB;stroke-width:2;stroke-linecap:round;stroke-miterlimit:10;" d="M26,25.375"/>
	<path style="fill:none;stroke:#8697CB;stroke-width:2;stroke-linecap:round;stroke-miterlimit:10;" d="M26,13.375"/>
	<path style="fill:#8697CB;" d="M26,27c-0.552,0-1-0.448-1-1V14c0-0.552,0.448-1,1-1s1,0.448,1,1v12C27,26.552,26.552,27,26,27z"/>
	<path style="fill:#8697CB;" d="M30,27c-0.256,0-0.512-0.098-0.707-0.293c-0.391-0.391-0.391-1.023,0-1.414l25-25
		c0.391-0.391,1.023-0.391,1.414,0s0.391,1.023,0,1.414l-25,25C30.512,26.902,30.256,27,30,27z"/>
	<path style="fill:#8697CB;" d="M30,27c-0.552,0-1-0.448-1-1V14c0-0.552,0.448-1,1-1s1,0.448,1,1v12C31,26.552,30.552,27,30,27z"/>
	<path style="fill:none;stroke:#8697CB;stroke-width:2;stroke-linecap:round;stroke-miterlimit:10;" d="M30.816,13.816"/>
	<path style="fill:none;stroke:#8697CB;stroke-width:2;stroke-linecap:round;stroke-miterlimit:10;" d="M30.816,25.816"/>
	<path style="fill:none;stroke:#8697CB;stroke-width:2;stroke-linecap:round;stroke-miterlimit:10;" d="M30.625,26"/>
	<path style="fill:none;stroke:#8697CB;stroke-width:2;stroke-linecap:round;stroke-miterlimit:10;" d="M42.625,26"/>
	<path style="fill:#8697CB;" d="M42,27H30c-0.552,0-1-0.448-1-1s0.448-1,1-1h12c0.552,0,1,0.448,1,1S42.552,27,42,27z"/>
	<path style="fill:#8697CB;" d="M55,56c-0.256,0-0.512-0.098-0.707-0.293l-25-25c-0.391-0.391-0.391-1.023,0-1.414
		s1.023-0.391,1.414,0l25,25c0.391,0.391,0.391,1.023,0,1.414C55.512,55.902,55.256,56,55,56z"/>
	<path style="fill:#8697CB;" d="M42,31H30c-0.552,0-1-0.448-1-1s0.448-1,1-1h12c0.552,0,1,0.448,1,1S42.552,31,42,31z"/>
	<path style="fill:none;stroke:#8697CB;stroke-width:2;stroke-linecap:round;stroke-miterlimit:10;" d="M30.184,30.816"/>
	<path style="fill:none;stroke:#8697CB;stroke-width:2;stroke-linecap:round;stroke-miterlimit:10;" d="M30,30.625"/>
	<path style="fill:none;stroke:#8697CB;stroke-width:2;stroke-linecap:round;stroke-miterlimit:10;" d="M30,42.625"/>
	<path style="fill:#8697CB;" d="M30,43c-0.552,0-1-0.448-1-1V30c0-0.552,0.448-1,1-1s1,0.448,1,1v12C31,42.552,30.552,43,30,43z"/>
</g>
<g>
</g>
<g>
</g>
<g>
</g>
<g>
</g>
<g>
</g>
<g>
</g>
<g>
</g>
<g>
</g>
<g>
</g>
<g>
</g>
<g>
</g>
<g>
</g>
<g>
</g>
<g>
</g>
<g>
</g>
</svg>
