<?xml version="1.0" encoding="iso-8859-1"?>
<!-- Generator: Adobe Illustrator 18.0.0, SVG Export Plug-In . SVG Version: 6.00 Build 0)  -->
<!DOCTYPE svg PUBLIC "-//W3C//DTD SVG 1.1//EN" "http://www.w3.org/Graphics/SVG/1.1/DTD/svg11.dtd">
<svg version="1.1" id="Capa_1" xmlns="http://www.w3.org/2000/svg" xmlns:xlink="http://www.w3.org/1999/xlink" x="0px" y="0px"
	 viewBox="0 0 53 53" style="enable-background:new 0 0 53 53;" xml:space="preserve">
<g>
	<path style="fill:#FF5364;" d="M8,27.477c-0.553,0-1-0.447-1-1c0-0.697,0.031-1.398,0.094-2.086c0.05-0.55,0.549-0.961,1.086-0.906
		c0.551,0.05,0.956,0.536,0.906,1.086C9.029,25.199,9,25.84,9,26.477C9,27.03,8.553,27.477,8,27.477z M51.971,26.333
		c-0.528,0-0.97-0.414-0.998-0.947c-0.033-0.64-0.095-1.278-0.185-1.9c-0.078-0.547,0.302-1.053,0.849-1.132
		c0.547-0.077,1.053,0.302,1.132,0.849c0.098,0.681,0.165,1.38,0.202,2.078c0.028,0.552-0.396,1.022-0.946,1.052
		C52.006,26.333,51.988,26.333,51.971,26.333z M8.809,21.552c-0.089,0-0.18-0.012-0.27-0.037c-0.531-0.147-0.843-0.699-0.694-1.231
		c0.186-0.669,0.406-1.338,0.653-1.986c0.197-0.516,0.778-0.774,1.291-0.578c0.517,0.197,0.774,0.775,0.578,1.291
		c-0.226,0.591-0.427,1.2-0.597,1.811C9.647,21.263,9.246,21.552,8.809,21.552z M50.856,20.459c-0.418,0-0.808-0.264-0.948-0.682
		c-0.201-0.6-0.434-1.197-0.689-1.776c-0.223-0.505,0.006-1.096,0.511-1.319c0.51-0.221,1.096,0.007,1.319,0.511
		c0.28,0.635,0.534,1.29,0.756,1.948c0.176,0.523-0.106,1.091-0.63,1.267C51.069,20.443,50.962,20.459,50.856,20.459z
		 M11.187,16.066c-0.177,0-0.356-0.047-0.519-0.146c-0.472-0.287-0.622-0.902-0.335-1.374c0.361-0.595,0.754-1.179,1.166-1.735
		c0.329-0.442,0.955-0.537,1.399-0.208c0.443,0.329,0.536,0.955,0.208,1.399c-0.376,0.508-0.734,1.04-1.064,1.583
		C11.854,15.895,11.524,16.066,11.187,16.066z M48.196,15.106c-0.319,0-0.634-0.152-0.827-0.437
		c-0.355-0.522-0.741-1.035-1.146-1.526c-0.351-0.427-0.289-1.057,0.137-1.408c0.428-0.351,1.057-0.29,1.408,0.137
		c0.442,0.538,0.864,1.1,1.253,1.671c0.312,0.457,0.193,1.079-0.263,1.39C48.586,15.049,48.39,15.106,48.196,15.106z M14.957,11.423
		c-0.267,0-0.532-0.106-0.729-0.316c-0.378-0.402-0.357-1.035,0.046-1.413c0.504-0.474,1.038-0.931,1.587-1.358
		c0.436-0.341,1.063-0.264,1.403,0.173c0.34,0.436,0.263,1.063-0.173,1.403c-0.501,0.392-0.988,0.809-1.45,1.241
		C15.448,11.333,15.202,11.423,14.957,11.423z M44.188,10.663c-0.228,0-0.456-0.077-0.645-0.236
		c-0.485-0.41-0.994-0.802-1.511-1.163c-0.453-0.316-0.563-0.94-0.246-1.393c0.316-0.453,0.94-0.563,1.393-0.246
		c0.566,0.396,1.123,0.825,1.655,1.274c0.422,0.355,0.475,0.986,0.118,1.409C44.756,10.542,44.474,10.663,44.188,10.663z
		 M19.835,7.961c-0.36,0-0.709-0.195-0.888-0.537c-0.255-0.489-0.065-1.094,0.424-1.35c0.613-0.32,1.251-0.617,1.895-0.881
		c0.508-0.213,1.096,0.033,1.305,0.545c0.21,0.511-0.034,1.095-0.545,1.305c-0.587,0.241-1.169,0.512-1.729,0.805
		C20.149,7.925,19.991,7.961,19.835,7.961z M39.14,7.459c-0.139,0-0.279-0.028-0.414-0.09c-0.583-0.266-1.179-0.506-1.771-0.714
		c-0.521-0.183-0.795-0.753-0.612-1.274c0.183-0.521,0.753-0.799,1.274-0.612c0.647,0.227,1.3,0.489,1.938,0.78
		c0.502,0.229,0.724,0.822,0.495,1.325C39.883,7.243,39.52,7.459,39.14,7.459z M25.461,5.946c-0.463,0-0.879-0.323-0.978-0.795
		c-0.113-0.54,0.232-1.07,0.773-1.184c0.676-0.142,1.37-0.255,2.062-0.336c0.554-0.063,1.046,0.33,1.109,0.877
		c0.064,0.549-0.328,1.045-0.877,1.109c-0.632,0.074-1.266,0.178-1.884,0.307C25.598,5.939,25.529,5.946,25.461,5.946z
		 M33.415,5.741c-0.051,0-0.103-0.004-0.154-0.012c-0.628-0.098-1.266-0.168-1.897-0.208c-0.552-0.035-0.97-0.511-0.935-1.062
		c0.035-0.552,0.52-0.966,1.062-0.935c0.692,0.044,1.391,0.121,2.077,0.228c0.546,0.085,0.92,0.596,0.835,1.142
		C34.325,5.388,33.899,5.741,33.415,5.741z"/>
	<path style="fill:#546A79;" d="M30,49.477c-12.683,0-23-10.317-23-23c0-0.553,0.447-1,1-1s1,0.447,1,1c0,11.579,9.421,21,21,21
		s21-9.421,21-21c0-0.553,0.447-1,1-1s1,0.447,1,1C53,39.16,42.683,49.477,30,49.477z"/>
	<path style="fill:#546A79;" d="M1,34.477c-0.256,0-0.512-0.098-0.707-0.293c-0.391-0.391-0.391-1.023,0-1.414l7-7
		c0.391-0.391,1.023-0.391,1.414,0s0.391,1.023,0,1.414l-7,7C1.512,34.379,1.256,34.477,1,34.477z"/>
	<path style="fill:#546A79;" d="M15,34.477c-0.256,0-0.512-0.098-0.707-0.293l-7-7c-0.391-0.391-0.391-1.023,0-1.414
		s1.023-0.391,1.414,0l7,7c0.391,0.391,0.391,1.023,0,1.414C15.512,34.379,15.256,34.477,15,34.477z"/>
</g>
<g>
</g>
<g>
</g>
<g>
</g>
<g>
</g>
<g>
</g>
<g>
</g>
<g>
</g>
<g>
</g>
<g>
</g>
<g>
</g>
<g>
</g>
<g>
</g>
<g>
</g>
<g>
</g>
<g>
</g>
</svg>
