<?xml version="1.0" encoding="iso-8859-1"?>
<!-- Generator: Adobe Illustrator 18.0.0, SVG Export Plug-In . SVG Version: 6.00 Build 0)  -->
<!DOCTYPE svg PUBLIC "-//W3C//DTD SVG 1.1//EN" "http://www.w3.org/Graphics/SVG/1.1/DTD/svg11.dtd">
<svg version="1.1" id="Capa_1" xmlns="http://www.w3.org/2000/svg" xmlns:xlink="http://www.w3.org/1999/xlink" x="0px" y="0px"
	 viewBox="0 0 58 58" style="enable-background:new 0 0 58 58;" xml:space="preserve">
<g>
	<path style="fill:#546A79;" d="M33,52c-0.256,0-0.512-0.098-0.707-0.293l-6-6c-0.391-0.391-0.391-1.023,0-1.414
		s1.023-0.391,1.414,0l6,6c0.391,0.391,0.391,1.023,0,1.414C33.512,51.902,33.256,52,33,52z"/>
	<path style="fill:#546A79;" d="M27,58c-0.256,0-0.512-0.098-0.707-0.293c-0.391-0.391-0.391-1.023,0-1.414l6-6
		c0.391-0.391,1.023-0.391,1.414,0s0.391,1.023,0,1.414l-6,6C27.512,57.902,27.256,58,27,58z"/>
	<path style="fill:#546A79;" d="M33,52H22.774C16.833,52,12,47.167,12,41.226V13c0-0.553,0.447-1,1-1s1,0.447,1,1v28.226
		C14,46.063,17.937,50,22.774,50H33c0.553,0,1,0.447,1,1S33.553,52,33,52z"/>
	<path style="fill:#546A79;" d="M31,14c-0.256,0-0.512-0.098-0.707-0.293l-6-6c-0.391-0.391-0.391-1.023,0-1.414
		s1.023-0.391,1.414,0l6,6c0.391,0.391,0.391,1.023,0,1.414C31.512,13.902,31.256,14,31,14z"/>
	<path style="fill:#546A79;" d="M25,8c-0.256,0-0.512-0.098-0.707-0.293c-0.391-0.391-0.391-1.023,0-1.414l6-6
		c0.391-0.391,1.023-0.391,1.414,0s0.391,1.023,0,1.414l-6,6C25.512,7.902,25.256,8,25,8z"/>
	<g>
		<path style="fill:#546A79;" d="M45,46c-0.553,0-1-0.447-1-1v-1.5c0-0.553,0.447-1,1-1s1,0.447,1,1V45C46,45.553,45.553,46,45,46z"
			/>
		<path style="fill:#546A79;" d="M45,40.737c-0.553,0-1-0.447-1-1v-1.882c0-0.553,0.447-1,1-1s1,0.447,1,1v1.882
			C46,40.29,45.553,40.737,45,40.737z M45,35.093c-0.553,0-1-0.447-1-1v-1.882c0-0.553,0.447-1,1-1s1,0.447,1,1v1.882
			C46,34.646,45.553,35.093,45,35.093z"/>
		<path style="fill:#546A79;" d="M45,29.448c-0.553,0-1-0.447-1-1v-2.822c0-0.553,0.447-1,1-1s1,0.447,1,1v2.822
			C46,29.001,45.553,29.448,45,29.448z M45,22.863c-0.553,0-1-0.447-1-1v-1.882c0-0.553,0.447-1,1-1s1,0.447,1,1v1.882
			C46,22.416,45.553,22.863,45,22.863z M44.983,17.219c-0.526,0-0.967-0.411-0.997-0.943c-0.032-0.563-0.118-1.124-0.256-1.668
			c-0.135-0.535,0.189-1.079,0.725-1.215c0.534-0.134,1.079,0.189,1.215,0.725c0.168,0.667,0.273,1.354,0.313,2.045
			c0.031,0.552-0.39,1.023-0.941,1.055C45.021,17.218,45.003,17.219,44.983,17.219z M43.102,11.982c-0.308,0-0.61-0.141-0.807-0.407
			c-0.501-0.682-1.098-1.286-1.772-1.798c-0.44-0.333-0.527-0.961-0.193-1.4c0.332-0.44,0.958-0.527,1.4-0.193
			c0.829,0.628,1.561,1.37,2.177,2.206c0.327,0.444,0.232,1.07-0.213,1.398C43.515,11.919,43.308,11.982,43.102,11.982z
			 M37.771,8.334c-0.086,0-0.174-0.011-0.26-0.034c-0.542-0.146-1.102-0.239-1.663-0.279c-0.551-0.038-0.966-0.517-0.927-1.067
			s0.521-0.969,1.067-0.927c0.689,0.048,1.376,0.163,2.04,0.342c0.534,0.144,0.851,0.691,0.707,1.225
			C38.615,8.04,38.212,8.334,37.771,8.334z M32.155,8h-1.882c-0.553,0-1-0.447-1-1s0.447-1,1-1h1.882c0.553,0,1,0.447,1,1
			S32.708,8,32.155,8z"/>
		<path style="fill:#546A79;" d="M26.5,8H25c-0.553,0-1-0.447-1-1s0.447-1,1-1h1.5c0.553,0,1,0.447,1,1S27.053,8,26.5,8z"/>
	</g>
	<g>
		<circle style="fill:#B1E97C;" cx="13" cy="7" r="6"/>
		<path style="fill:#B1E97C;" d="M13,14c-3.859,0-7-3.141-7-7s3.141-7,7-7s7,3.141,7,7S16.859,14,13,14z M13,2c-2.757,0-5,2.243-5,5
			s2.243,5,5,5s5-2.243,5-5S15.757,2,13,2z"/>
	</g>
	<g>
		<circle style="fill:#88C057;" cx="45" cy="51" r="6"/>
		<path style="fill:#88C057;" d="M45,58c-3.859,0-7-3.141-7-7s3.141-7,7-7s7,3.141,7,7S48.859,58,45,58z M45,46
			c-2.757,0-5,2.243-5,5s2.243,5,5,5s5-2.243,5-5S47.757,46,45,46z"/>
	</g>
</g>
<g>
</g>
<g>
</g>
<g>
</g>
<g>
</g>
<g>
</g>
<g>
</g>
<g>
</g>
<g>
</g>
<g>
</g>
<g>
</g>
<g>
</g>
<g>
</g>
<g>
</g>
<g>
</g>
<g>
</g>
</svg>
