<?xml version="1.0" encoding="iso-8859-1"?>
<!-- Generator: Adobe Illustrator 18.0.0, SVG Export Plug-In . SVG Version: 6.00 Build 0)  -->
<!DOCTYPE svg PUBLIC "-//W3C//DTD SVG 1.1//EN" "http://www.w3.org/Graphics/SVG/1.1/DTD/svg11.dtd">
<svg version="1.1" id="Capa_1" xmlns="http://www.w3.org/2000/svg" xmlns:xlink="http://www.w3.org/1999/xlink" x="0px" y="0px"
	 viewBox="0 0 58 58" style="enable-background:new 0 0 58 58;" xml:space="preserve">
<g>
	<rect x="44.5" y="21" style="fill:#546A79;" width="2" height="24"/>
	<path style="fill:#546A79;" d="M39.5,28c-0.256,0-0.512-0.098-0.707-0.293c-0.391-0.391-0.391-1.023,0-1.414l6-6
		c0.391-0.391,1.023-0.391,1.414,0s0.391,1.023,0,1.414l-6,6C40.012,27.902,39.756,28,39.5,28z"/>
	<path style="fill:#546A79;" d="M51.5,28c-0.256,0-0.512-0.098-0.707-0.293l-6-6c-0.391-0.391-0.391-1.023,0-1.414
		s1.023-0.391,1.414,0l6,6c0.391,0.391,0.391,1.023,0,1.414C52.012,27.902,51.756,28,51.5,28z"/>
	<path style="fill:#546A79;" d="M32.5,52c-0.256,0-0.512-0.098-0.707-0.293l-6-6c-0.391-0.391-0.391-1.023,0-1.414
		s1.023-0.391,1.414,0l6,6c0.391,0.391,0.391,1.023,0,1.414C33.012,51.902,32.756,52,32.5,52z"/>
	<path style="fill:#546A79;" d="M26.5,58c-0.256,0-0.512-0.098-0.707-0.293c-0.391-0.391-0.391-1.023,0-1.414l6-6
		c0.391-0.391,1.023-0.391,1.414,0s0.391,1.023,0,1.414l-6,6C27.012,57.902,26.756,58,26.5,58z"/>
	<path style="fill:#546A79;" d="M32.5,52H22.274C16.333,52,11.5,47.167,11.5,41.226V13c0-0.553,0.447-1,1-1s1,0.447,1,1v28.226
		c0,4.838,3.937,8.774,8.774,8.774H32.5c0.553,0,1,0.447,1,1S33.053,52,32.5,52z"/>
	<g>
		<circle style="fill:#9DD1A6;" cx="45.5" cy="7" r="6"/>
		<path style="fill:#9DD1A6;" d="M45.5,14c-3.859,0-7-3.141-7-7s3.141-7,7-7s7,3.141,7,7S49.359,14,45.5,14z M45.5,2
			c-2.757,0-5,2.243-5,5s2.243,5,5,5s5-2.243,5-5S48.257,2,45.5,2z"/>
	</g>
	<g>
		<circle style="fill:#6FAD7C;" cx="45.5" cy="51" r="6"/>
		<path style="fill:#6FAD7C;" d="M45.5,58c-3.859,0-7-3.141-7-7s3.141-7,7-7s7,3.141,7,7S49.359,58,45.5,58z M45.5,46
			c-2.757,0-5,2.243-5,5s2.243,5,5,5s5-2.243,5-5S48.257,46,45.5,46z"/>
	</g>
	<g>
		<circle style="fill:#337742;" cx="12.5" cy="7" r="6"/>
		<path style="fill:#337742;" d="M12.5,14c-3.859,0-7-3.141-7-7s3.141-7,7-7s7,3.141,7,7S16.359,14,12.5,14z M12.5,2
			c-2.757,0-5,2.243-5,5s2.243,5,5,5s5-2.243,5-5S15.257,2,12.5,2z"/>
	</g>
</g>
<g>
</g>
<g>
</g>
<g>
</g>
<g>
</g>
<g>
</g>
<g>
</g>
<g>
</g>
<g>
</g>
<g>
</g>
<g>
</g>
<g>
</g>
<g>
</g>
<g>
</g>
<g>
</g>
<g>
</g>
</svg>
