<?xml version="1.0" encoding="iso-8859-1"?>
<!-- Generator: Adobe Illustrator 18.0.0, SVG Export Plug-In . SVG Version: 6.00 Build 0)  -->
<!DOCTYPE svg PUBLIC "-//W3C//DTD SVG 1.1//EN" "http://www.w3.org/Graphics/SVG/1.1/DTD/svg11.dtd">
<svg version="1.1" id="Capa_1" xmlns="http://www.w3.org/2000/svg" xmlns:xlink="http://www.w3.org/1999/xlink" x="0px" y="0px"
	 viewBox="0 0 58 58" style="enable-background:new 0 0 58 58;" xml:space="preserve">
<g>
	<path style="fill:#546A79;" d="M33,52c-0.256,0-0.512-0.098-0.707-0.293l-6-6c-0.391-0.391-0.391-1.023,0-1.414
		s1.023-0.391,1.414,0l6,6c0.391,0.391,0.391,1.023,0,1.414C33.512,51.902,33.256,52,33,52z"/>
	<path style="fill:#546A79;" d="M27,58c-0.256,0-0.512-0.098-0.707-0.293c-0.391-0.391-0.391-1.023,0-1.414l6-6
		c0.391-0.391,1.023-0.391,1.414,0s0.391,1.023,0,1.414l-6,6C27.512,57.902,27.256,58,27,58z"/>
	<path style="fill:#546A79;" d="M33,52H22.774C16.833,52,12,47.167,12,41.226V13c0-0.553,0.448-1,1-1s1,0.447,1,1v28.226
		C14,46.063,17.936,50,22.774,50H33c0.552,0,1,0.447,1,1S33.552,52,33,52z"/>
	<path style="fill:#546A79;" d="M31,14c-0.256,0-0.512-0.098-0.707-0.293l-6-6c-0.391-0.391-0.391-1.023,0-1.414
		s1.023-0.391,1.414,0l6,6c0.391,0.391,0.391,1.023,0,1.414C31.512,13.902,31.256,14,31,14z"/>
	<path style="fill:#546A79;" d="M25,8c-0.256,0-0.512-0.098-0.707-0.293c-0.391-0.391-0.391-1.023,0-1.414l6-6
		c0.391-0.391,1.023-0.391,1.414,0s0.391,1.023,0,1.414l-6,6C25.512,7.902,25.256,8,25,8z"/>
	<path style="fill:#546A79;" d="M45,46c-0.552,0-1-0.447-1-1V16.774C44,11.937,40.064,8,35.226,8H25c-0.552,0-1-0.447-1-1
		s0.448-1,1-1h10.226C41.167,6,46,10.833,46,16.774V45C46,45.553,45.552,46,45,46z"/>
	<g>
		<circle style="fill:#B1E97C;" cx="13" cy="7" r="6"/>
		<path style="fill:#B1E97C;" d="M13,14c-3.86,0-7-3.141-7-7s3.14-7,7-7s7,3.141,7,7S16.86,14,13,14z M13,2c-2.757,0-5,2.243-5,5
			s2.243,5,5,5s5-2.243,5-5S15.757,2,13,2z"/>
	</g>
	<g>
		<circle style="fill:#B1E97C;" cx="45" cy="51" r="6"/>
		<path style="fill:#B1E97C;" d="M45,58c-3.86,0-7-3.141-7-7s3.14-7,7-7c3.859,0,7,3.141,7,7S48.859,58,45,58z M45,46
			c-2.757,0-5,2.243-5,5s2.243,5,5,5s5-2.243,5-5S47.757,46,45,46z"/>
	</g>
</g>
<g>
</g>
<g>
</g>
<g>
</g>
<g>
</g>
<g>
</g>
<g>
</g>
<g>
</g>
<g>
</g>
<g>
</g>
<g>
</g>
<g>
</g>
<g>
</g>
<g>
</g>
<g>
</g>
<g>
</g>
</svg>
