<?xml version="1.0" encoding="iso-8859-1"?>
<!-- Generator: Adobe Illustrator 18.0.0, SVG Export Plug-In . SVG Version: 6.00 Build 0)  -->
<!DOCTYPE svg PUBLIC "-//W3C//DTD SVG 1.1//EN" "http://www.w3.org/Graphics/SVG/1.1/DTD/svg11.dtd">
<svg version="1.1" id="Capa_1" xmlns="http://www.w3.org/2000/svg" xmlns:xlink="http://www.w3.org/1999/xlink" x="0px" y="0px"
	 viewBox="0 0 53 53" style="enable-background:new 0 0 53 53;" xml:space="preserve">
<g>
	<path style="fill:#26B99A;" d="M30,49.5c-12.683,0-23-10.317-23-23c0-0.553,0.447-1,1-1s1,0.447,1,1c0,11.579,9.421,21,21,21
		s21-9.421,21-21c0-0.553,0.447-1,1-1s1,0.447,1,1C53,39.183,42.683,49.5,30,49.5z"/>
	<path style="fill:#26B99A;" d="M1,34.5c-0.256,0-0.512-0.098-0.707-0.293c-0.391-0.391-0.391-1.023,0-1.414l7-7
		c0.391-0.391,1.023-0.391,1.414,0s0.391,1.023,0,1.414l-7,7C1.512,34.402,1.256,34.5,1,34.5z"/>
	<path style="fill:#26B99A;" d="M15,34.5c-0.256,0-0.512-0.098-0.707-0.293l-7-7c-0.391-0.391-0.391-1.023,0-1.414
		s1.023-0.391,1.414,0l7,7c0.391,0.391,0.391,1.023,0,1.414C15.512,34.402,15.256,34.5,15,34.5z"/>
	<path style="fill:#26B99A;" d="M51.852,24.935c-0.501,0-0.933-0.375-0.992-0.884c-0.074-0.632-0.178-1.266-0.307-1.884
		c-0.113-0.54,0.232-1.07,0.773-1.184c0.54-0.112,1.07,0.231,1.184,0.773c0.142,0.677,0.255,1.37,0.336,2.062
		c0.064,0.549-0.328,1.045-0.877,1.109C51.93,24.933,51.89,24.935,51.852,24.935z M50.358,19.146c-0.394,0-0.767-0.233-0.925-0.62
		c-0.241-0.587-0.512-1.169-0.805-1.729c-0.255-0.489-0.065-1.094,0.424-1.35c0.488-0.255,1.093-0.066,1.35,0.424
		c0.32,0.613,0.617,1.251,0.881,1.895c0.21,0.511-0.034,1.095-0.545,1.305C50.614,19.121,50.485,19.146,50.358,19.146z
		 M47.354,13.976c-0.298,0-0.592-0.132-0.789-0.385c-0.392-0.501-0.809-0.988-1.241-1.45c-0.378-0.402-0.357-1.035,0.046-1.413
		c0.402-0.377,1.034-0.356,1.413,0.046c0.474,0.504,0.931,1.038,1.358,1.587c0.34,0.436,0.263,1.063-0.173,1.403
		C47.786,13.906,47.569,13.976,47.354,13.976z M43.069,9.803c-0.207,0-0.415-0.063-0.595-0.196c-0.508-0.376-1.04-0.734-1.583-1.064
		C40.42,8.255,40.27,7.64,40.557,7.168s0.902-0.622,1.374-0.335c0.595,0.361,1.179,0.754,1.735,1.166
		c0.443,0.329,0.536,0.955,0.208,1.399C43.678,9.663,43.376,9.803,43.069,9.803z M37.823,6.933c-0.119,0-0.239-0.021-0.356-0.065
		c-0.591-0.226-1.2-0.427-1.811-0.597c-0.531-0.147-0.843-0.699-0.694-1.231c0.147-0.532,0.7-0.845,1.231-0.694
		c0.669,0.186,1.338,0.406,1.986,0.653c0.517,0.197,0.774,0.775,0.578,1.291C38.605,6.688,38.226,6.933,37.823,6.933z M31.997,5.59
		c-0.03,0-0.061-0.001-0.091-0.004C31.278,5.529,30.637,5.5,30,5.5c-0.553,0-1-0.447-1-1s0.447-1,1-1
		c0.697,0,1.398,0.031,2.086,0.094c0.551,0.05,0.956,0.536,0.906,1.086C32.945,5.199,32.509,5.59,31.997,5.59z"/>
</g>
<g>
</g>
<g>
</g>
<g>
</g>
<g>
</g>
<g>
</g>
<g>
</g>
<g>
</g>
<g>
</g>
<g>
</g>
<g>
</g>
<g>
</g>
<g>
</g>
<g>
</g>
<g>
</g>
<g>
</g>
</svg>
