<?xml version="1.0" encoding="iso-8859-1"?>
<!-- Generator: Adobe Illustrator 18.0.0, SVG Export Plug-In . SVG Version: 6.00 Build 0)  -->
<!DOCTYPE svg PUBLIC "-//W3C//DTD SVG 1.1//EN" "http://www.w3.org/Graphics/SVG/1.1/DTD/svg11.dtd">
<svg version="1.1" id="Capa_1" xmlns="http://www.w3.org/2000/svg" xmlns:xlink="http://www.w3.org/1999/xlink" x="0px" y="0px"
	 viewBox="0 0 60 60" style="enable-background:new 0 0 60 60;" xml:space="preserve">
<g>
	<path style="fill:#ED7161;" d="M50.863,23.977c-0.418,0-0.807-0.264-0.948-0.682c-0.09-0.268-0.186-0.534-0.286-0.798
		c-0.197-0.516,0.062-1.094,0.578-1.291c0.516-0.196,1.094,0.063,1.291,0.578c0.11,0.289,0.215,0.581,0.313,0.874
		c0.176,0.523-0.105,1.09-0.629,1.267C51.076,23.961,50.969,23.977,50.863,23.977z M9.137,23.977c-0.105,0-0.212-0.017-0.318-0.052
		c-0.524-0.176-0.806-0.742-0.63-1.267c0.221-0.656,0.475-1.313,0.755-1.949c0.223-0.505,0.813-0.733,1.318-0.512
		c0.505,0.223,0.734,0.813,0.512,1.318c-0.256,0.581-0.487,1.18-0.688,1.779C9.945,23.714,9.555,23.977,9.137,23.977z
		 M48.808,19.555c-0.337,0-0.667-0.17-0.855-0.479c-0.33-0.542-0.689-1.074-1.065-1.584c-0.329-0.444-0.235-1.07,0.209-1.398
		c0.444-0.331,1.07-0.236,1.398,0.209c0.412,0.557,0.805,1.14,1.166,1.732c0.287,0.472,0.138,1.087-0.333,1.374
		C49.165,19.509,48.985,19.555,48.808,19.555z M11.795,18.619c-0.194,0-0.389-0.056-0.562-0.173
		c-0.457-0.312-0.575-0.934-0.264-1.39c0.391-0.574,0.812-1.137,1.252-1.673c0.351-0.426,0.981-0.489,1.407-0.138
		c0.427,0.351,0.488,0.98,0.138,1.407c-0.402,0.489-0.787,1.004-1.144,1.528C12.43,18.466,12.115,18.619,11.795,18.619z
		 M45.034,14.915c-0.245,0-0.49-0.089-0.683-0.27c-0.465-0.436-0.953-0.853-1.451-1.24c-0.436-0.34-0.514-0.968-0.174-1.403
		c0.339-0.437,0.969-0.512,1.403-0.175c0.545,0.425,1.08,0.882,1.588,1.357c0.403,0.378,0.424,1.011,0.047,1.414
		C45.567,14.808,45.301,14.915,45.034,14.915z M15.799,14.175c-0.284,0-0.566-0.12-0.764-0.354
		c-0.356-0.422-0.304-1.053,0.118-1.409c0.53-0.448,1.087-0.877,1.655-1.275c0.452-0.316,1.076-0.207,1.393,0.245
		c0.317,0.453,0.207,1.076-0.245,1.394c-0.519,0.363-1.027,0.755-1.511,1.164C16.256,14.097,16.027,14.175,15.799,14.175z
		 M40.154,11.456c-0.155,0-0.313-0.036-0.46-0.113c-0.564-0.293-1.146-0.563-1.731-0.804c-0.511-0.209-0.755-0.793-0.546-1.305
		c0.21-0.511,0.794-0.757,1.305-0.545c0.641,0.263,1.278,0.559,1.896,0.88c0.49,0.255,0.681,0.858,0.426,1.349
		C40.864,11.26,40.515,11.456,40.154,11.456z M20.845,10.967c-0.379,0-0.742-0.217-0.91-0.584c-0.23-0.502-0.009-1.096,0.493-1.325
		c0.632-0.29,1.284-0.553,1.938-0.782c0.521-0.188,1.092,0.09,1.275,0.612c0.183,0.521-0.091,1.092-0.612,1.274
		c-0.596,0.21-1.191,0.449-1.768,0.714C21.125,10.937,20.984,10.967,20.845,10.967z M34.523,9.442c-0.068,0-0.137-0.007-0.206-0.021
		c-0.614-0.129-1.248-0.231-1.883-0.305c-0.549-0.063-0.942-0.56-0.878-1.108c0.063-0.548,0.564-0.946,1.108-0.878
		c0.696,0.08,1.39,0.192,2.063,0.334c0.541,0.113,0.887,0.644,0.773,1.184C35.402,9.119,34.986,9.442,34.523,9.442z M26.568,9.243
		c-0.484,0-0.909-0.352-0.986-0.845c-0.086-0.546,0.287-1.058,0.833-1.144c0.68-0.106,1.378-0.184,2.077-0.229
		c0.557-0.039,1.027,0.382,1.063,0.933c0.036,0.551-0.381,1.027-0.933,1.063c-0.639,0.042-1.277,0.112-1.897,0.21
		C26.672,9.239,26.62,9.243,26.568,9.243z"/>
	<path style="fill:#546A79;" d="M30,52.977c-12.682,0-23-10.317-23-23c0-0.553,0.448-1,1-1s1,0.447,1,1c0,11.579,9.42,21,21,21
		s21-9.421,21-21c0-0.553,0.448-1,1-1s1,0.447,1,1C53,42.66,42.682,52.977,30,52.977z"/>
	<path style="fill:#546A79;" d="M45,37.977c-0.256,0-0.512-0.098-0.707-0.293c-0.391-0.391-0.391-1.023,0-1.414l7-7
		c0.391-0.391,1.023-0.391,1.414,0s0.391,1.023,0,1.414l-7,7C45.512,37.88,45.256,37.977,45,37.977z"/>
	<path style="fill:#546A79;" d="M59,37.977c-0.256,0-0.512-0.098-0.707-0.293l-7-7c-0.391-0.391-0.391-1.023,0-1.414
		s1.023-0.391,1.414,0l7,7c0.391,0.391,0.391,1.023,0,1.414C59.512,37.88,59.256,37.977,59,37.977z"/>
	<path style="fill:#546A79;" d="M1,37.977c-0.256,0-0.512-0.098-0.707-0.293c-0.391-0.391-0.391-1.023,0-1.414l7-7
		c0.391-0.391,1.023-0.391,1.414,0s0.391,1.023,0,1.414l-7,7C1.512,37.88,1.256,37.977,1,37.977z"/>
	<path style="fill:#546A79;" d="M15,37.977c-0.256,0-0.512-0.098-0.707-0.293l-7-7c-0.391-0.391-0.391-1.023,0-1.414
		s1.023-0.391,1.414,0l7,7c0.391,0.391,0.391,1.023,0,1.414C15.512,37.88,15.256,37.977,15,37.977z"/>
</g>
<g>
</g>
<g>
</g>
<g>
</g>
<g>
</g>
<g>
</g>
<g>
</g>
<g>
</g>
<g>
</g>
<g>
</g>
<g>
</g>
<g>
</g>
<g>
</g>
<g>
</g>
<g>
</g>
<g>
</g>
</svg>
