<?xml version="1.0" encoding="iso-8859-1"?>
<!-- Generator: Adobe Illustrator 18.0.0, SVG Export Plug-In . SVG Version: 6.00 Build 0)  -->
<!DOCTYPE svg PUBLIC "-//W3C//DTD SVG 1.1//EN" "http://www.w3.org/Graphics/SVG/1.1/DTD/svg11.dtd">
<svg version="1.1" id="Capa_1" xmlns="http://www.w3.org/2000/svg" xmlns:xlink="http://www.w3.org/1999/xlink" x="0px" y="0px"
	 viewBox="0 0 60 60" style="enable-background:new 0 0 60 60;" xml:space="preserve">
<g>
	<path style="fill:#B1E97C;" d="M52,31c-0.553,0-1-0.447-1-1c0-11.579-9.42-21-21-21S9,18.421,9,30c0,0.553-0.448,1-1,1
		s-1-0.447-1-1C7,17.317,17.318,7,30,7s23,10.317,23,23C53,30.553,52.553,31,52,31z"/>
	<path style="fill:#B1E97C;" d="M52,31c-0.256,0-0.512-0.098-0.707-0.293c-0.391-0.391-0.391-1.023,0-1.414l7-7
		c0.391-0.391,1.023-0.391,1.414,0s0.391,1.023,0,1.414l-7,7C52.512,30.902,52.256,31,52,31z"/>
	<path style="fill:#B1E97C;" d="M52,31c-0.256,0-0.512-0.098-0.707-0.293l-7-7c-0.391-0.391-0.391-1.023,0-1.414
		s1.023-0.391,1.414,0l7,7c0.391,0.391,0.391,1.023,0,1.414C52.512,30.902,52.256,31,52,31z"/>
	<path style="fill:#546A79;" d="M30,53C17.318,53,7,42.683,7,30c0-0.553,0.448-1,1-1s1,0.447,1,1c0,11.579,9.42,21,21,21
		s21-9.421,21-21c0-0.553,0.447-1,1-1s1,0.447,1,1C53,42.683,42.682,53,30,53z"/>
	<path style="fill:#546A79;" d="M1,38c-0.256,0-0.512-0.098-0.707-0.293c-0.391-0.391-0.391-1.023,0-1.414l7-7
		c0.391-0.391,1.023-0.391,1.414,0s0.391,1.023,0,1.414l-7,7C1.512,37.902,1.256,38,1,38z"/>
	<path style="fill:#546A79;" d="M15,38c-0.256,0-0.512-0.098-0.707-0.293l-7-7c-0.391-0.391-0.391-1.023,0-1.414
		s1.023-0.391,1.414,0l7,7c0.391,0.391,0.391,1.023,0,1.414C15.512,37.902,15.256,38,15,38z"/>
</g>
<g>
</g>
<g>
</g>
<g>
</g>
<g>
</g>
<g>
</g>
<g>
</g>
<g>
</g>
<g>
</g>
<g>
</g>
<g>
</g>
<g>
</g>
<g>
</g>
<g>
</g>
<g>
</g>
<g>
</g>
</svg>
