<?xml version="1.0" encoding="iso-8859-1"?>
<!-- Generator: Adobe Illustrator 18.0.0, SVG Export Plug-In . SVG Version: 6.00 Build 0)  -->
<!DOCTYPE svg PUBLIC "-//W3C//DTD SVG 1.1//EN" "http://www.w3.org/Graphics/SVG/1.1/DTD/svg11.dtd">
<svg version="1.1" id="Capa_1" xmlns="http://www.w3.org/2000/svg" xmlns:xlink="http://www.w3.org/1999/xlink" x="0px" y="0px"
	 viewBox="0 0 60 60" style="enable-background:new 0 0 60 60;" xml:space="preserve">
<g>
	<path style="fill:#ED7161;" d="M31.442,52.977c-0.522,0-0.962-0.406-0.997-0.935c-0.036-0.551,0.381-1.027,0.933-1.063
		c0.639-0.042,1.277-0.112,1.897-0.21c0.548-0.081,1.058,0.287,1.143,0.833c0.086,0.546-0.287,1.058-0.833,1.144
		c-0.68,0.106-1.378,0.184-2.077,0.229C31.486,52.976,31.464,52.977,31.442,52.977z M27.453,52.877
		c-0.039,0-0.077-0.002-0.116-0.007c-0.696-0.08-1.39-0.192-2.063-0.334c-0.541-0.113-0.887-0.644-0.773-1.184
		c0.113-0.541,0.64-0.89,1.184-0.773c0.614,0.129,1.248,0.231,1.883,0.305c0.549,0.063,0.942,0.56,0.878,1.108
		C28.386,52.501,27.953,52.877,27.453,52.877z M37.303,51.782c-0.413,0-0.799-0.257-0.943-0.669
		c-0.183-0.521,0.091-1.092,0.612-1.274c0.596-0.21,1.191-0.449,1.768-0.714c0.504-0.228,1.096-0.008,1.326,0.493
		c0.23,0.502,0.009,1.096-0.493,1.325c-0.632,0.29-1.284,0.553-1.938,0.782C37.525,51.764,37.413,51.782,37.303,51.782z
		 M21.658,51.386c-0.126,0-0.255-0.023-0.379-0.075c-0.641-0.263-1.278-0.559-1.896-0.88c-0.49-0.255-0.681-0.858-0.426-1.349
		c0.254-0.489,0.857-0.683,1.349-0.425c0.564,0.293,1.146,0.563,1.731,0.804c0.511,0.209,0.755,0.793,0.546,1.305
		C22.425,51.153,22.052,51.386,21.658,51.386z M42.62,49.045c-0.315,0-0.625-0.148-0.82-0.426c-0.317-0.453-0.207-1.076,0.245-1.394
		c0.519-0.363,1.027-0.755,1.511-1.164c0.421-0.357,1.053-0.305,1.409,0.118c0.356,0.422,0.304,1.053-0.118,1.409
		c-0.53,0.448-1.087,0.877-1.655,1.275C43.018,48.987,42.818,49.045,42.62,49.045z M16.485,48.384c-0.215,0-0.432-0.069-0.614-0.211
		c-0.545-0.425-1.08-0.882-1.588-1.357c-0.403-0.378-0.424-1.011-0.047-1.414c0.378-0.402,1.01-0.424,1.413-0.047
		c0.465,0.436,0.953,0.853,1.451,1.24c0.436,0.34,0.514,0.968,0.174,1.403C17.077,48.252,16.782,48.384,16.485,48.384z
		 M47.005,44.982c-0.224,0-0.448-0.074-0.634-0.228c-0.427-0.351-0.488-0.98-0.138-1.407c0.402-0.489,0.787-1.004,1.144-1.528
		c0.31-0.457,0.933-0.575,1.389-0.265c0.457,0.312,0.575,0.934,0.264,1.39c-0.391,0.574-0.812,1.137-1.252,1.673
		C47.58,44.857,47.293,44.982,47.005,44.982z M12.31,44.103c-0.307,0-0.609-0.14-0.805-0.405c-0.412-0.557-0.805-1.14-1.166-1.732
		c-0.287-0.472-0.138-1.087,0.333-1.374c0.471-0.289,1.087-0.14,1.375,0.333c0.33,0.542,0.689,1.074,1.065,1.584
		c0.329,0.444,0.235,1.07-0.209,1.398C12.725,44.04,12.516,44.103,12.31,44.103z M50.141,39.887c-0.135,0-0.271-0.027-0.403-0.085
		c-0.505-0.223-0.734-0.813-0.512-1.318c0.256-0.581,0.487-1.18,0.688-1.779c0.176-0.522,0.745-0.803,1.266-0.63
		c0.524,0.176,0.806,0.742,0.63,1.267c-0.221,0.656-0.475,1.313-0.755,1.949C50.892,39.665,50.525,39.887,50.141,39.887z
		 M9.437,38.859c-0.402,0-0.782-0.245-0.934-0.644c-0.11-0.289-0.215-0.581-0.313-0.874c-0.176-0.523,0.105-1.09,0.629-1.267
		c0.526-0.174,1.09,0.106,1.267,0.63c0.09,0.268,0.186,0.534,0.286,0.798c0.197,0.516-0.062,1.094-0.578,1.291
		C9.676,38.838,9.555,38.859,9.437,38.859z"/>
	<path style="fill:#546A79;" d="M52,31.023c-0.552,0-1-0.447-1-1c0-11.579-9.42-21-21-21s-21,9.421-21,21c0,0.553-0.448,1-1,1
		s-1-0.447-1-1c0-12.683,10.318-23,23-23s23,10.317,23,23C53,30.576,52.552,31.023,52,31.023z"/>
	<path style="fill:#546A79;" d="M8,32.023c-0.256,0-0.512-0.098-0.707-0.293c-0.391-0.391-0.391-1.023,0-1.414l7-7
		c0.391-0.391,1.023-0.391,1.414,0s0.391,1.023,0,1.414l-7,7C8.512,31.925,8.256,32.023,8,32.023z"/>
	<path style="fill:#546A79;" d="M8,32.023c-0.256,0-0.512-0.098-0.707-0.293l-7-7c-0.391-0.391-0.391-1.023,0-1.414
		s1.023-0.391,1.414,0l7,7c0.391,0.391,0.391,1.023,0,1.414C8.512,31.925,8.256,32.023,8,32.023z"/>
	<path style="fill:#546A79;" d="M52,32.023c-0.256,0-0.512-0.098-0.707-0.293c-0.391-0.391-0.391-1.023,0-1.414l7-7
		c0.391-0.391,1.023-0.391,1.414,0s0.391,1.023,0,1.414l-7,7C52.512,31.925,52.256,32.023,52,32.023z"/>
	<path style="fill:#546A79;" d="M52,32.023c-0.256,0-0.512-0.098-0.707-0.293l-7-7c-0.391-0.391-0.391-1.023,0-1.414
		s1.023-0.391,1.414,0l7,7c0.391,0.391,0.391,1.023,0,1.414C52.512,31.925,52.256,32.023,52,32.023z"/>
</g>
<g>
</g>
<g>
</g>
<g>
</g>
<g>
</g>
<g>
</g>
<g>
</g>
<g>
</g>
<g>
</g>
<g>
</g>
<g>
</g>
<g>
</g>
<g>
</g>
<g>
</g>
<g>
</g>
<g>
</g>
</svg>
