<?xml version="1.0" encoding="iso-8859-1"?>
<!-- Generator: Adobe Illustrator 18.0.0, SVG Export Plug-In . SVG Version: 6.00 Build 0)  -->
<!DOCTYPE svg PUBLIC "-//W3C//DTD SVG 1.1//EN" "http://www.w3.org/Graphics/SVG/1.1/DTD/svg11.dtd">
<svg version="1.1" id="Capa_1" xmlns="http://www.w3.org/2000/svg" xmlns:xlink="http://www.w3.org/1999/xlink" x="0px" y="0px"
	 viewBox="0 0 53 53" style="enable-background:new 0 0 53 53;" xml:space="preserve">
<g>
	<path style="fill:#99527E;" d="M31.426,49.977c-0.523,0-0.963-0.406-0.997-0.937c-0.035-0.551,0.383-1.026,0.935-1.062
		c0.632-0.04,1.27-0.11,1.897-0.208c0.548-0.082,1.057,0.289,1.142,0.835s-0.289,1.057-0.835,1.142
		c-0.687,0.106-1.385,0.184-2.077,0.228C31.469,49.976,31.447,49.977,31.426,49.977z M27.436,49.875
		c-0.039,0-0.078-0.002-0.117-0.007c-0.691-0.081-1.386-0.194-2.062-0.336c-0.541-0.113-0.887-0.644-0.773-1.184
		c0.113-0.542,0.646-0.886,1.184-0.773c0.618,0.129,1.252,0.232,1.884,0.307c0.549,0.064,0.941,0.561,0.877,1.109
		C28.368,49.5,27.937,49.875,27.436,49.875z M37.286,48.788c-0.413,0-0.799-0.257-0.943-0.669c-0.183-0.521,0.091-1.092,0.612-1.274
		c0.592-0.208,1.188-0.448,1.771-0.714c0.504-0.23,1.096-0.008,1.325,0.495c0.229,0.503,0.007,1.096-0.495,1.325
		c-0.639,0.291-1.291,0.554-1.938,0.78C37.508,48.77,37.396,48.788,37.286,48.788z M21.646,48.381c-0.127,0-0.256-0.023-0.38-0.075
		c-0.644-0.264-1.281-0.561-1.895-0.881c-0.489-0.256-0.679-0.86-0.424-1.35c0.256-0.49,0.862-0.68,1.35-0.424
		c0.56,0.293,1.142,0.563,1.729,0.805c0.511,0.21,0.755,0.794,0.545,1.305C22.412,48.148,22.039,48.381,21.646,48.381z
		 M42.607,46.055c-0.315,0-0.626-0.148-0.82-0.427c-0.316-0.452-0.207-1.076,0.246-1.393c0.517-0.361,1.025-0.753,1.511-1.163
		c0.425-0.358,1.054-0.303,1.409,0.118c0.356,0.423,0.304,1.054-0.118,1.409c-0.532,0.449-1.089,0.878-1.655,1.274
		C43.006,45.997,42.806,46.055,42.607,46.055z M16.475,45.376c-0.215,0-0.432-0.069-0.614-0.212
		c-0.549-0.428-1.083-0.885-1.587-1.358c-0.403-0.378-0.424-1.011-0.046-1.413c0.378-0.403,1.011-0.424,1.413-0.046
		c0.462,0.433,0.949,0.85,1.45,1.241c0.436,0.34,0.513,0.968,0.173,1.403C17.066,45.245,16.772,45.376,16.475,45.376z
		 M46.995,41.993c-0.224,0-0.448-0.074-0.635-0.228c-0.426-0.352-0.487-0.981-0.137-1.408c0.404-0.491,0.79-1.004,1.146-1.526
		c0.311-0.455,0.934-0.572,1.39-0.263c0.456,0.311,0.574,0.933,0.263,1.39c-0.389,0.571-0.811,1.133-1.253,1.671
		C47.57,41.869,47.284,41.993,46.995,41.993z M12.304,41.093c-0.307,0-0.608-0.14-0.805-0.404c-0.412-0.557-0.805-1.141-1.166-1.735
		c-0.287-0.472-0.137-1.087,0.335-1.374c0.473-0.286,1.087-0.136,1.374,0.335c0.33,0.543,0.688,1.075,1.064,1.583
		c0.328,0.444,0.235,1.07-0.208,1.399C12.719,41.03,12.511,41.093,12.304,41.093z M50.133,36.903c-0.135,0-0.271-0.027-0.403-0.085
		c-0.505-0.224-0.733-0.814-0.511-1.319c0.256-0.579,0.488-1.177,0.689-1.776c0.177-0.522,0.744-0.804,1.267-0.63
		c0.523,0.176,0.806,0.743,0.63,1.267c-0.222,0.658-0.476,1.313-0.756,1.948C50.883,36.681,50.517,36.903,50.133,36.903z
		 M9.433,35.846c-0.402,0-0.782-0.245-0.935-0.644c-0.247-0.648-0.468-1.317-0.653-1.986c-0.148-0.532,0.163-1.084,0.694-1.231
		c0.531-0.15,1.083,0.162,1.231,0.694c0.17,0.61,0.371,1.22,0.597,1.811c0.196,0.516-0.062,1.094-0.578,1.291
		C9.672,35.826,9.552,35.846,9.433,35.846z M51.779,31.156c-0.047,0-0.095-0.003-0.143-0.01c-0.547-0.079-0.927-0.585-0.849-1.132
		c0.09-0.622,0.151-1.261,0.185-1.9c0.029-0.551,0.471-0.981,1.052-0.946c0.551,0.029,0.975,0.5,0.946,1.052
		c-0.037,0.698-0.104,1.397-0.202,2.078C52.696,30.796,52.269,31.156,51.779,31.156z M8.089,30.019c-0.512,0-0.948-0.391-0.995-0.91
		C7.031,28.421,7,27.72,7,27.023c0-0.553,0.447-1,1-1s1,0.447,1,1c0,0.637,0.029,1.278,0.086,1.906
		c0.05,0.55-0.355,1.036-0.906,1.086C8.149,30.018,8.119,30.019,8.089,30.019z"/>
	<path style="fill:#546A79;" d="M52,27.023c-0.553,0-1-0.447-1-1c0-11.579-9.421-21-21-21s-21,9.421-21,21c0,0.553-0.447,1-1,1
		s-1-0.447-1-1c0-12.683,10.317-23,23-23s23,10.317,23,23C53,26.576,52.553,27.023,52,27.023z"/>
	<path style="fill:#546A79;" d="M8,27.023c-0.256,0-0.512-0.098-0.707-0.293l-7-7c-0.391-0.391-0.391-1.023,0-1.414
		s1.023-0.391,1.414,0l7,7c0.391,0.391,0.391,1.023,0,1.414C8.512,26.925,8.256,27.023,8,27.023z"/>
	<path style="fill:#546A79;" d="M8,27.023c-0.256,0-0.512-0.098-0.707-0.293c-0.391-0.391-0.391-1.023,0-1.414l7-7
		c0.391-0.391,1.023-0.391,1.414,0s0.391,1.023,0,1.414l-7,7C8.512,26.925,8.256,27.023,8,27.023z"/>
</g>
<g>
</g>
<g>
</g>
<g>
</g>
<g>
</g>
<g>
</g>
<g>
</g>
<g>
</g>
<g>
</g>
<g>
</g>
<g>
</g>
<g>
</g>
<g>
</g>
<g>
</g>
<g>
</g>
<g>
</g>
</svg>
