<?xml version="1.0" encoding="iso-8859-1"?>
<!-- Generator: Adobe Illustrator 18.0.0, SVG Export Plug-In . SVG Version: 6.00 Build 0)  -->
<!DOCTYPE svg PUBLIC "-//W3C//DTD SVG 1.1//EN" "http://www.w3.org/Graphics/SVG/1.1/DTD/svg11.dtd">
<svg version="1.1" id="Capa_1" xmlns="http://www.w3.org/2000/svg" xmlns:xlink="http://www.w3.org/1999/xlink" x="0px" y="0px"
	 viewBox="0 0 60 60" style="enable-background:new 0 0 60 60;" xml:space="preserve">
<g>
	<path style="fill:#A4E869;" d="M30,53.5c-12.683,0-23-10.317-23-23c0-0.553,0.447-1,1-1s1,0.447,1,1c0,11.579,9.421,21,21,21
		s21-9.421,21-21c0-0.553,0.447-1,1-1s1,0.447,1,1C53,43.183,42.683,53.5,30,53.5z"/>
	<path style="fill:#A4E869;" d="M59,38.5c-0.256,0-0.512-0.098-0.707-0.293l-7-7c-0.391-0.391-0.391-1.023,0-1.414
		s1.023-0.391,1.414,0l7,7c0.391,0.391,0.391,1.023,0,1.414C59.512,38.402,59.256,38.5,59,38.5z"/>
	<path style="fill:#A4E869;" d="M45,38.5c-0.256,0-0.512-0.098-0.707-0.293c-0.391-0.391-0.391-1.023,0-1.414l7-7
		c0.391-0.391,1.023-0.391,1.414,0s0.391,1.023,0,1.414l-7,7C45.512,38.402,45.256,38.5,45,38.5z"/>
	<path style="fill:#546A79;" d="M52,30.5c-0.553,0-1-0.447-1-1c0-11.579-9.421-21-21-21s-21,9.421-21,21c0,0.553-0.447,1-1,1
		s-1-0.447-1-1c0-12.683,10.317-23,23-23s23,10.317,23,23C53,30.053,52.553,30.5,52,30.5z"/>
	<path style="fill:#546A79;" d="M8,30.5c-0.256,0-0.512-0.098-0.707-0.293l-7-7c-0.391-0.391-0.391-1.023,0-1.414
		s1.023-0.391,1.414,0l7,7c0.391,0.391,0.391,1.023,0,1.414C8.512,30.402,8.256,30.5,8,30.5z"/>
	<path style="fill:#546A79;" d="M8,30.5c-0.256,0-0.512-0.098-0.707-0.293c-0.391-0.391-0.391-1.023,0-1.414l7-7
		c0.391-0.391,1.023-0.391,1.414,0s0.391,1.023,0,1.414l-7,7C8.512,30.402,8.256,30.5,8,30.5z"/>
</g>
<g>
</g>
<g>
</g>
<g>
</g>
<g>
</g>
<g>
</g>
<g>
</g>
<g>
</g>
<g>
</g>
<g>
</g>
<g>
</g>
<g>
</g>
<g>
</g>
<g>
</g>
<g>
</g>
<g>
</g>
</svg>
