<?xml version="1.0" encoding="iso-8859-1"?>
<!-- Generator: Adobe Illustrator 18.0.0, SVG Export Plug-In . SVG Version: 6.00 Build 0)  -->
<!DOCTYPE svg PUBLIC "-//W3C//DTD SVG 1.1//EN" "http://www.w3.org/Graphics/SVG/1.1/DTD/svg11.dtd">
<svg version="1.1" id="Capa_1" xmlns="http://www.w3.org/2000/svg" xmlns:xlink="http://www.w3.org/1999/xlink" x="0px" y="0px"
	 viewBox="0 0 54 54" style="enable-background:new 0 0 54 54;" xml:space="preserve">
<g>
	<g>
		<path style="fill:#7D6599;" d="M1,27L1,27C1,12.641,12.641,1,27,1h0c14.359,0,26,11.641,26,26v0c0,14.359-11.641,26-26,26h0
			C12.641,53,1,41.359,1,27z"/>
		<path style="fill:#7D6599;" d="M27,54C12.112,54,0,41.888,0,27S12.112,0,27,0s27,12.112,27,27S41.888,54,27,54z M27,2
			C13.215,2,2,13.215,2,27s11.215,25,25,25s25-11.215,25-25S40.785,2,27,2z"/>
	</g>
	<path style="fill:#A58DC6;" d="M5,50c-0.256,0-0.512-0.098-0.707-0.293c-0.391-0.391-0.391-1.023,0-1.414l17-17
		c0.391-0.391,1.023-0.391,1.414,0s0.391,1.023,0,1.414l-17,17C5.512,49.902,5.256,50,5,50z"/>
	<polygon style="fill:#A58DC6;" points="23,46.143 21,46.143 21,33 7.857,33 7.857,31 23,31 	"/>
	<path style="fill:#A58DC6;" d="M32,23c-0.256,0-0.512-0.098-0.707-0.293c-0.391-0.391-0.391-1.023,0-1.414l17-17
		c0.391-0.391,1.023-0.391,1.414,0s0.391,1.023,0,1.414l-17,17C32.512,22.902,32.256,23,32,23z"/>
	<polygon style="fill:#A58DC6;" points="46.143,23 31,23 31,7.857 33,7.857 33,21 46.143,21 	"/>
</g>
<g>
</g>
<g>
</g>
<g>
</g>
<g>
</g>
<g>
</g>
<g>
</g>
<g>
</g>
<g>
</g>
<g>
</g>
<g>
</g>
<g>
</g>
<g>
</g>
<g>
</g>
<g>
</g>
<g>
</g>
</svg>
