<?xml version="1.0" encoding="iso-8859-1"?>
<!-- Generator: Adobe Illustrator 18.0.0, SVG Export Plug-In . SVG Version: 6.00 Build 0)  -->
<!DOCTYPE svg PUBLIC "-//W3C//DTD SVG 1.1//EN" "http://www.w3.org/Graphics/SVG/1.1/DTD/svg11.dtd">
<svg version="1.1" id="Capa_1" xmlns="http://www.w3.org/2000/svg" xmlns:xlink="http://www.w3.org/1999/xlink" x="0px" y="0px"
	 viewBox="0 0 53.997 53.997" style="enable-background:new 0 0 53.997 53.997;" xml:space="preserve">
<g>
	<path style="fill:#26B99A;" d="M42.997,27.998h-32c-0.553,0-1-0.447-1-1s0.447-1,1-1h32c4.963,0,9-4.037,9-9s-4.037-9-9-9h-32
		c-0.553,0-1-0.447-1-1s0.447-1,1-1h32c6.065,0,11,4.935,11,11S49.062,27.998,42.997,27.998z"/>
	<path style="fill:#B1E97C;" d="M42.997,47.998h-2c-0.553,0-1-0.447-1-1s0.447-1,1-1h2c0.553,0,1,0.447,1,1
		S43.549,47.998,42.997,47.998z M36.997,47.998h-2c-0.553,0-1-0.447-1-1s0.447-1,1-1h2c0.553,0,1,0.447,1,1
		S37.549,47.998,36.997,47.998z M30.997,47.998h-2c-0.553,0-1-0.447-1-1s0.447-1,1-1h2c0.553,0,1,0.447,1,1
		S31.549,47.998,30.997,47.998z M24.997,47.998h-2c-0.553,0-1-0.447-1-1s0.447-1,1-1h2c0.553,0,1,0.447,1,1
		S25.549,47.998,24.997,47.998z M18.997,47.998h-2c-0.553,0-1-0.447-1-1s0.447-1,1-1h2c0.553,0,1,0.447,1,1
		S19.549,47.998,18.997,47.998z M12.997,47.998h-2c-0.553,0-1-0.447-1-1s0.447-1,1-1h2c0.553,0,1,0.447,1,1
		S13.549,47.998,12.997,47.998z M7.105,47.205c-0.131,0-0.264-0.025-0.392-0.08c-0.672-0.286-1.319-0.642-1.924-1.057
		c-0.455-0.313-0.57-0.936-0.258-1.391s0.938-0.569,1.391-0.258c0.495,0.34,1.024,0.631,1.574,0.865
		c0.508,0.216,0.745,0.804,0.528,1.312C7.863,46.978,7.494,47.205,7.105,47.205z M2.588,43.393c-0.328,0-0.65-0.161-0.842-0.458
		c-0.397-0.617-0.733-1.274-1-1.954c-0.201-0.515,0.053-1.095,0.567-1.296c0.512-0.202,1.095,0.053,1.296,0.567
		c0.217,0.556,0.492,1.094,0.818,1.599c0.299,0.465,0.165,1.083-0.299,1.383C2.961,43.341,2.774,43.393,2.588,43.393z M1.001,37.702
		c-0.01,0-0.02,0-0.029,0C0.419,37.686-0.015,37.226,0,36.674c0.021-0.736,0.117-1.47,0.284-2.181
		c0.126-0.538,0.666-0.865,1.203-0.744c0.537,0.127,0.87,0.665,0.744,1.203C2.095,35.531,2.017,36.13,2,36.731
		C1.985,37.274,1.539,37.702,1.001,37.702z M2.921,32.116c-0.205,0-0.411-0.063-0.59-0.193c-0.445-0.326-0.542-0.951-0.216-1.397
		c0.432-0.59,0.924-1.14,1.463-1.634c0.408-0.373,1.04-0.345,1.413,0.062c0.373,0.407,0.346,1.04-0.062,1.413
		c-0.442,0.405-0.847,0.856-1.201,1.341C3.534,31.975,3.23,32.116,2.921,32.116z M7.655,28.576c-0.41,0-0.796-0.255-0.941-0.663
		c-0.187-0.521,0.085-1.093,0.604-1.278c0.691-0.247,1.409-0.425,2.134-0.527c0.547-0.084,1.053,0.303,1.131,0.85
		c0.077,0.547-0.303,1.054-0.85,1.131c-0.592,0.084-1.178,0.229-1.741,0.43C7.88,28.558,7.766,28.576,7.655,28.576z"/>
	<path style="fill:#26B99A;" d="M10.997,27.998c-0.256,0-0.512-0.098-0.707-0.293c-0.391-0.391-0.391-1.023,0-1.414l9-9
		c0.391-0.391,1.023-0.391,1.414,0s0.391,1.023,0,1.414l-9,9C11.508,27.901,11.252,27.998,10.997,27.998z"/>
	<path style="fill:#26B99A;" d="M19.997,36.998c-0.256,0-0.512-0.098-0.707-0.293l-9-9c-0.391-0.391-0.391-1.023,0-1.414
		s1.023-0.391,1.414,0l9,9c0.391,0.391,0.391,1.023,0,1.414C20.508,36.901,20.252,36.998,19.997,36.998z"/>
</g>
<g>
</g>
<g>
</g>
<g>
</g>
<g>
</g>
<g>
</g>
<g>
</g>
<g>
</g>
<g>
</g>
<g>
</g>
<g>
</g>
<g>
</g>
<g>
</g>
<g>
</g>
<g>
</g>
<g>
</g>
</svg>
