<?xml version="1.0" encoding="iso-8859-1"?>
<!-- Generator: Adobe Illustrator 18.0.0, SVG Export Plug-In . SVG Version: 6.00 Build 0)  -->
<!DOCTYPE svg PUBLIC "-//W3C//DTD SVG 1.1//EN" "http://www.w3.org/Graphics/SVG/1.1/DTD/svg11.dtd">
<svg version="1.1" id="Capa_1" xmlns="http://www.w3.org/2000/svg" xmlns:xlink="http://www.w3.org/1999/xlink" x="0px" y="0px"
	 viewBox="0 0 60 60" style="enable-background:new 0 0 60 60;" xml:space="preserve">
<g>
	<path style="fill:#26B99A;" d="M20,56.998c-6.065,0-11-4.935-11-11v-32c0-0.553,0.448-1,1-1s1,0.447,1,1v32c0,4.963,4.038,9,9,9
		s9-4.037,9-9v-32c0-0.553,0.448-1,1-1s1,0.447,1,1v32C31,52.064,26.065,56.998,20,56.998z"/>
	<path style="fill:#26B99A;" d="M50,46.998c-0.552,0-1-0.447-1-1v-2c0-0.553,0.448-1,1-1s1,0.447,1,1v2
		C51,46.551,50.552,46.998,50,46.998z M50,40.998c-0.552,0-1-0.447-1-1v-2c0-0.553,0.448-1,1-1s1,0.447,1,1v2
		C51,40.551,50.552,40.998,50,40.998z M50,34.998c-0.552,0-1-0.447-1-1v-2c0-0.553,0.448-1,1-1s1,0.447,1,1v2
		C51,34.551,50.552,34.998,50,34.998z M50,28.998c-0.552,0-1-0.447-1-1v-2c0-0.553,0.448-1,1-1s1,0.447,1,1v2
		C51,28.551,50.552,28.998,50,28.998z M50,22.998c-0.552,0-1-0.447-1-1v-2c0-0.553,0.448-1,1-1s1,0.447,1,1v2
		C51,22.551,50.552,22.998,50,22.998z M50,16.998c-0.552,0-1-0.447-1-1v-2c0-0.553,0.448-1,1-1s1,0.447,1,1v2
		C51,16.551,50.552,16.998,50,16.998z M30.1,13.594c-0.047,0-0.095-0.003-0.143-0.01c-0.546-0.078-0.927-0.584-0.849-1.131
		c0.104-0.728,0.281-1.445,0.527-2.134c0.186-0.52,0.761-0.792,1.278-0.604c0.52,0.186,0.791,0.758,0.605,1.278
		c-0.201,0.562-0.345,1.147-0.43,1.741C31.018,13.233,30.59,13.594,30.1,13.594z M49.208,11.107c-0.389,0-0.759-0.228-0.92-0.608
		c-0.235-0.551-0.526-1.08-0.866-1.573c-0.313-0.454-0.199-1.077,0.255-1.391c0.454-0.313,1.077-0.199,1.391,0.256
		c0.416,0.603,0.772,1.25,1.059,1.925c0.216,0.508-0.02,1.096-0.528,1.312C49.471,11.081,49.338,11.107,49.208,11.107z
		 M32.631,8.256c-0.241,0-0.483-0.087-0.675-0.263c-0.407-0.373-0.435-1.006-0.062-1.413c0.494-0.538,1.043-1.031,1.633-1.463
		c0.446-0.328,1.072-0.229,1.397,0.216c0.327,0.445,0.23,1.071-0.216,1.397c-0.484,0.354-0.935,0.759-1.34,1.201
		C33.171,8.147,32.902,8.256,32.631,8.256z M45.394,6.589c-0.186,0-0.374-0.052-0.541-0.159c-0.505-0.326-1.043-0.602-1.599-0.818
		c-0.515-0.201-0.769-0.781-0.568-1.296c0.201-0.514,0.78-0.771,1.295-0.567c0.68,0.266,1.338,0.603,1.955,1
		c0.464,0.3,0.598,0.919,0.298,1.383C46.043,6.428,45.722,6.589,45.394,6.589z M37.725,5.26c-0.453,0-0.864-0.311-0.972-0.771
		c-0.127-0.538,0.207-1.076,0.744-1.203c0.71-0.167,1.443-0.263,2.179-0.284c0.544-0.01,1.012,0.419,1.028,0.972
		c0.016,0.552-0.418,1.012-0.971,1.028c-0.601,0.017-1.199,0.095-1.779,0.231C37.878,5.251,37.801,5.26,37.725,5.26z"/>
	<path style="fill:#26B99A;" d="M1,23.998c-0.256,0-0.512-0.098-0.707-0.293c-0.391-0.391-0.391-1.023,0-1.414l9-9
		c0.391-0.391,1.023-0.391,1.414,0s0.391,1.023,0,1.414l-9,9C1.512,23.9,1.256,23.998,1,23.998z"/>
	<path style="fill:#26B99A;" d="M19,23.998c-0.256,0-0.512-0.098-0.707-0.293l-9-9c-0.391-0.391-0.391-1.023,0-1.414
		s1.023-0.391,1.414,0l9,9c0.391,0.391,0.391,1.023,0,1.414C19.512,23.9,19.256,23.998,19,23.998z"/>
	<path style="fill:#26B99A;" d="M50,52.998c-0.256,0-0.512-0.098-0.707-0.293c-0.391-0.391-0.391-1.023,0-1.414l9-9
		c0.391-0.391,1.023-0.391,1.414,0s0.391,1.023,0,1.414l-9,9C50.512,52.9,50.256,52.998,50,52.998z"/>
	<path style="fill:#26B99A;" d="M50,52.998c-0.256,0-0.512-0.098-0.707-0.293l-9-9c-0.391-0.391-0.391-1.023,0-1.414
		s1.023-0.391,1.414,0l9,9c0.391,0.391,0.391,1.023,0,1.414C50.512,52.9,50.256,52.998,50,52.998z"/>
</g>
<g>
</g>
<g>
</g>
<g>
</g>
<g>
</g>
<g>
</g>
<g>
</g>
<g>
</g>
<g>
</g>
<g>
</g>
<g>
</g>
<g>
</g>
<g>
</g>
<g>
</g>
<g>
</g>
<g>
</g>
</svg>
