<?xml version="1.0" encoding="iso-8859-1"?>
<!-- Generator: Adobe Illustrator 18.0.0, SVG Export Plug-In . SVG Version: 6.00 Build 0)  -->
<!DOCTYPE svg PUBLIC "-//W3C//DTD SVG 1.1//EN" "http://www.w3.org/Graphics/SVG/1.1/DTD/svg11.dtd">
<svg version="1.1" id="Capa_1" xmlns="http://www.w3.org/2000/svg" xmlns:xlink="http://www.w3.org/1999/xlink" x="0px" y="0px"
	 viewBox="0 0 60 60" style="enable-background:new 0 0 60 60;" xml:space="preserve">
<g>
	<path style="fill:#26B99A;" d="M46,31H14c-0.552,0-1-0.447-1-1s0.448-1,1-1h32c4.962,0,9-4.037,9-9s-4.038-9-9-9H14
		c-0.552,0-1-0.447-1-1s0.448-1,1-1h32c6.065,0,11,4.935,11,11S52.065,31,46,31z"/>
	<path style="fill:#26B99A;" d="M46,51H14C7.935,51,3,46.065,3,40s4.935-11,11-11c0.552,0,1,0.447,1,1s-0.448,1-1,1
		c-4.962,0-9,4.037-9,9s4.038,9,9,9h32c0.552,0,1,0.447,1,1S46.552,51,46,51z"/>
	<path style="fill:#26B99A;" d="M14,11c-0.256,0-0.512-0.098-0.707-0.293c-0.391-0.391-0.391-1.023,0-1.414l9-9
		c0.391-0.391,1.023-0.391,1.414,0s0.391,1.023,0,1.414l-9,9C14.512,10.902,14.256,11,14,11z"/>
	<path style="fill:#26B99A;" d="M23,20c-0.256,0-0.512-0.098-0.707-0.293l-9-9c-0.391-0.391-0.391-1.023,0-1.414
		s1.023-0.391,1.414,0l9,9c0.391,0.391,0.391,1.023,0,1.414C23.512,19.902,23.256,20,23,20z"/>
	<path style="fill:#26B99A;" d="M37,60c-0.256,0-0.512-0.098-0.707-0.293c-0.391-0.391-0.391-1.023,0-1.414l9-9
		c0.391-0.391,1.023-0.391,1.414,0s0.391,1.023,0,1.414l-9,9C37.512,59.902,37.256,60,37,60z"/>
	<path style="fill:#26B99A;" d="M46,51c-0.256,0-0.512-0.098-0.707-0.293l-9-9c-0.391-0.391-0.391-1.023,0-1.414
		s1.023-0.391,1.414,0l9,9c0.391,0.391,0.391,1.023,0,1.414C46.512,50.902,46.256,51,46,51z"/>
</g>
<g>
</g>
<g>
</g>
<g>
</g>
<g>
</g>
<g>
</g>
<g>
</g>
<g>
</g>
<g>
</g>
<g>
</g>
<g>
</g>
<g>
</g>
<g>
</g>
<g>
</g>
<g>
</g>
<g>
</g>
</svg>
