<?xml version="1.0" encoding="iso-8859-1"?>
<!-- Generator: Adobe Illustrator 18.0.0, SVG Export Plug-In . SVG Version: 6.00 Build 0)  -->
<!DOCTYPE svg PUBLIC "-//W3C//DTD SVG 1.1//EN" "http://www.w3.org/Graphics/SVG/1.1/DTD/svg11.dtd">
<svg version="1.1" id="Capa_1" xmlns="http://www.w3.org/2000/svg" xmlns:xlink="http://www.w3.org/1999/xlink" x="0px" y="0px"
	 viewBox="0 0 54 54" style="enable-background:new 0 0 54 54;" xml:space="preserve">
<g>
	<path style="fill:#26B99A;" d="M22,28H11C4.935,28,0,23.065,0,17S4.935,6,11,6h32c0.553,0,1,0.447,1,1s-0.447,1-1,1H11
		c-4.963,0-9,4.037-9,9s4.037,9,9,9h11c0.553,0,1,0.447,1,1S22.553,28,22,28z"/>
	<path style="fill:#26B99A;" d="M43,48H11c-0.553,0-1-0.447-1-1s0.447-1,1-1h32c4.963,0,9-4.037,9-9s-4.037-9-9-9
		c-0.553,0-1-0.447-1-1s0.447-1,1-1c6.065,0,11,4.935,11,11S49.065,48,43,48z"/>
	<path style="fill:#26B99A;" d="M22,28c-0.256,0-0.512-0.098-0.707-0.293l-9-9c-0.391-0.391-0.391-1.023,0-1.414
		s1.023-0.391,1.414,0l9,9c0.391,0.391,0.391,1.023,0,1.414C22.512,27.902,22.256,28,22,28z"/>
	<path style="fill:#26B99A;" d="M13,37c-0.256,0-0.512-0.098-0.707-0.293c-0.391-0.391-0.391-1.023,0-1.414l9-9
		c0.391-0.391,1.023-0.391,1.414,0s0.391,1.023,0,1.414l-9,9C13.512,36.902,13.256,37,13,37z"/>
	<path style="fill:#26B99A;" d="M44,28h-7c-0.553,0-1-0.447-1-1s0.447-1,1-1h7c0.553,0,1,0.447,1,1S44.553,28,44,28z"/>
	<g>
		<circle style="fill:#B1E97C;" cx="32" cy="27" r="5"/>
		<path style="fill:#B1E97C;" d="M32,33c-3.309,0-6-2.691-6-6s2.691-6,6-6s6,2.691,6,6S35.309,33,32,33z M32,23
			c-2.206,0-4,1.794-4,4s1.794,4,4,4s4-1.794,4-4S34.206,23,32,23z"/>
	</g>
</g>
<g>
</g>
<g>
</g>
<g>
</g>
<g>
</g>
<g>
</g>
<g>
</g>
<g>
</g>
<g>
</g>
<g>
</g>
<g>
</g>
<g>
</g>
<g>
</g>
<g>
</g>
<g>
</g>
<g>
</g>
</svg>
