<?xml version="1.0" encoding="iso-8859-1"?>
<!-- Generator: Adobe Illustrator 18.0.0, SVG Export Plug-In . SVG Version: 6.00 Build 0)  -->
<!DOCTYPE svg PUBLIC "-//W3C//DTD SVG 1.1//EN" "http://www.w3.org/Graphics/SVG/1.1/DTD/svg11.dtd">
<svg version="1.1" id="Capa_1" xmlns="http://www.w3.org/2000/svg" xmlns:xlink="http://www.w3.org/1999/xlink" x="0px" y="0px"
	 viewBox="0 0 60 60" style="enable-background:new 0 0 60 60;" xml:space="preserve">
<g>
	<path style="fill:#26B99A;" d="M20,57c-6.065,0-11-4.935-11-11V14c0-0.553,0.448-1,1-1s1,0.447,1,1v32c0,4.963,4.038,9,9,9
		s9-4.037,9-9V14c0-0.553,0.448-1,1-1s1,0.447,1,1v32C31,52.065,26.065,57,20,57z"/>
	<path style="fill:#26B99A;" d="M50,47c-0.552,0-1-0.447-1-1V14c0-4.963-4.038-9-9-9s-9,4.037-9,9c0,0.553-0.448,1-1,1s-1-0.447-1-1
		c0-6.065,4.935-11,11-11s11,4.935,11,11v32C51,46.553,50.552,47,50,47z"/>
	<path style="fill:#26B99A;" d="M1,24c-0.256,0-0.512-0.098-0.707-0.293c-0.391-0.391-0.391-1.023,0-1.414l9-9
		c0.391-0.391,1.023-0.391,1.414,0s0.391,1.023,0,1.414l-9,9C1.512,23.902,1.256,24,1,24z"/>
	<path style="fill:#26B99A;" d="M19,24c-0.256,0-0.512-0.098-0.707-0.293l-9-9c-0.391-0.391-0.391-1.023,0-1.414
		s1.023-0.391,1.414,0l9,9c0.391,0.391,0.391,1.023,0,1.414C19.512,23.902,19.256,24,19,24z"/>
	<path style="fill:#26B99A;" d="M50,47c-0.256,0-0.512-0.098-0.707-0.293c-0.391-0.391-0.391-1.023,0-1.414l9-9
		c0.391-0.391,1.023-0.391,1.414,0s0.391,1.023,0,1.414l-9,9C50.512,46.902,50.256,47,50,47z"/>
	<path style="fill:#26B99A;" d="M50,47c-0.256,0-0.512-0.098-0.707-0.293l-9-9c-0.391-0.391-0.391-1.023,0-1.414
		s1.023-0.391,1.414,0l9,9c0.391,0.391,0.391,1.023,0,1.414C50.512,46.902,50.256,47,50,47z"/>
</g>
<g>
</g>
<g>
</g>
<g>
</g>
<g>
</g>
<g>
</g>
<g>
</g>
<g>
</g>
<g>
</g>
<g>
</g>
<g>
</g>
<g>
</g>
<g>
</g>
<g>
</g>
<g>
</g>
<g>
</g>
</svg>
