<?xml version="1.0" encoding="iso-8859-1"?>
<!-- Generator: Adobe Illustrator 18.0.0, SVG Export Plug-In . SVG Version: 6.00 Build 0)  -->
<!DOCTYPE svg PUBLIC "-//W3C//DTD SVG 1.1//EN" "http://www.w3.org/Graphics/SVG/1.1/DTD/svg11.dtd">
<svg version="1.1" id="Capa_1" xmlns="http://www.w3.org/2000/svg" xmlns:xlink="http://www.w3.org/1999/xlink" x="0px" y="0px"
	 viewBox="0 0 53.997 53.997" style="enable-background:new 0 0 53.997 53.997;" xml:space="preserve">
<g>
	<path style="fill:#B1E97C;" d="M43,47.998h-2c-0.553,0-1-0.447-1-1s0.447-1,1-1h2c0.553,0,1,0.447,1,1S43.553,47.998,43,47.998z
		 M37,47.998h-2c-0.553,0-1-0.447-1-1s0.447-1,1-1h2c0.553,0,1,0.447,1,1S37.553,47.998,37,47.998z M31,47.998h-2
		c-0.553,0-1-0.447-1-1s0.447-1,1-1h2c0.553,0,1,0.447,1,1S31.553,47.998,31,47.998z M25,47.998h-2c-0.553,0-1-0.447-1-1
		s0.447-1,1-1h2c0.553,0,1,0.447,1,1S25.553,47.998,25,47.998z M19,47.998h-2c-0.553,0-1-0.447-1-1s0.447-1,1-1h2
		c0.553,0,1,0.447,1,1S19.553,47.998,19,47.998z M13,47.998h-2c-0.553,0-1-0.447-1-1s0.447-1,1-1h2c0.553,0,1,0.447,1,1
		S13.553,47.998,13,47.998z M46.892,47.205c-0.389,0-0.758-0.228-0.92-0.608c-0.217-0.508,0.021-1.096,0.528-1.312
		c0.55-0.234,1.079-0.525,1.574-0.865c0.455-0.312,1.079-0.197,1.391,0.258c0.313,0.455,0.197,1.078-0.258,1.391
		c-0.604,0.415-1.252,0.771-1.924,1.057C47.155,47.18,47.022,47.205,46.892,47.205z M51.408,43.393
		c-0.186,0-0.373-0.052-0.541-0.159c-0.464-0.3-0.598-0.918-0.299-1.383c0.326-0.505,0.602-1.043,0.818-1.599
		c0.201-0.514,0.784-0.769,1.296-0.567c0.515,0.201,0.769,0.781,0.567,1.296c-0.267,0.68-0.603,1.337-1,1.954
		C52.059,43.232,51.736,43.393,51.408,43.393z M52.995,37.702c-0.538,0-0.983-0.429-0.999-0.972
		c-0.017-0.601-0.095-1.199-0.231-1.778c-0.126-0.538,0.207-1.076,0.744-1.203c0.533-0.121,1.076,0.206,1.203,0.744
		c0.167,0.711,0.263,1.444,0.284,2.181c0.016,0.552-0.419,1.012-0.972,1.028C53.015,37.702,53.005,37.702,52.995,37.702z
		 M51.075,32.116c-0.309,0-0.612-0.142-0.808-0.409c-0.354-0.484-0.759-0.936-1.201-1.341c-0.407-0.373-0.435-1.006-0.062-1.413
		c0.373-0.406,1.005-0.435,1.413-0.062c0.539,0.494,1.031,1.044,1.463,1.634c0.326,0.446,0.229,1.071-0.216,1.397
		C51.486,32.054,51.28,32.116,51.075,32.116z M46.342,28.576c-0.111,0-0.226-0.019-0.337-0.059c-0.563-0.201-1.149-0.346-1.741-0.43
		c-0.547-0.077-0.927-0.584-0.85-1.131c0.078-0.547,0.585-0.924,1.131-0.85c0.725,0.103,1.442,0.28,2.134,0.527
		c0.52,0.186,0.791,0.758,0.604,1.278C47.138,28.321,46.752,28.576,46.342,28.576z"/>
	<path style="fill:#26B99A;" d="M43,5.998H11c-6.065,0-11,4.935-11,11s4.935,11,11,11h10.586l-7.293,7.293
		c-0.391,0.391-0.391,1.023,0,1.414c0.195,0.195,0.451,0.293,0.707,0.293s0.512-0.098,0.707-0.293l8.999-8.999
		c0.093-0.093,0.166-0.203,0.217-0.326c0.101-0.244,0.101-0.519,0-0.764c-0.051-0.123-0.125-0.234-0.217-0.326l-8.999-8.999
		c-0.391-0.391-1.023-0.391-1.414,0s-0.391,1.023,0,1.414l7.293,7.293H11c-4.963,0-9-4.037-9-9s4.037-9,9-9h32c0.553,0,1-0.447,1-1
		S43.553,5.998,43,5.998z"/>
	<path style="fill:#B1E97C;" d="M40,27.998h-2c-0.553,0-1-0.447-1-1s0.447-1,1-1h2c0.553,0,1,0.447,1,1S40.553,27.998,40,27.998z
		 M34,27.998h-2c-0.553,0-1-0.447-1-1s0.447-1,1-1h2c0.553,0,1,0.447,1,1S34.553,27.998,34,27.998z"/>
	<path style="fill:#26B99A;" d="M28,33.998c-0.553,0-1-0.447-1-1v-12c0-0.553,0.447-1,1-1s1,0.447,1,1v12
		C29,33.551,28.553,33.998,28,33.998z"/>
</g>
<g>
</g>
<g>
</g>
<g>
</g>
<g>
</g>
<g>
</g>
<g>
</g>
<g>
</g>
<g>
</g>
<g>
</g>
<g>
</g>
<g>
</g>
<g>
</g>
<g>
</g>
<g>
</g>
<g>
</g>
</svg>
