<?xml version="1.0" encoding="iso-8859-1"?>
<!-- Generator: Adobe Illustrator 18.0.0, SVG Export Plug-In . SVG Version: 6.00 Build 0)  -->
<!DOCTYPE svg PUBLIC "-//W3C//DTD SVG 1.1//EN" "http://www.w3.org/Graphics/SVG/1.1/DTD/svg11.dtd">
<svg version="1.1" id="Capa_1" xmlns="http://www.w3.org/2000/svg" xmlns:xlink="http://www.w3.org/1999/xlink" x="0px" y="0px"
	 viewBox="0 0 54 54" style="enable-background:new 0 0 54 54;" xml:space="preserve">
<g>
	<path style="fill:#26B99A;" d="M43,23.5H11c-0.553,0-1-0.447-1-1s0.447-1,1-1h32c4.963,0,9-4.037,9-9s-4.037-9-9-9H11
		c-0.553,0-1-0.447-1-1s0.447-1,1-1h32c6.065,0,11,4.935,11,11S49.065,23.5,43,23.5z"/>
	<path style="fill:#26B99A;" d="M43,43.5H11c-6.065,0-11-4.935-11-11s4.935-11,11-11c0.553,0,1,0.447,1,1s-0.447,1-1,1
		c-4.963,0-9,4.037-9,9s4.037,9,9,9h32c0.553,0,1,0.447,1,1S43.553,43.5,43,43.5z"/>
	<path style="fill:#26B99A;" d="M34,52.5c-0.256,0-0.512-0.098-0.707-0.293c-0.391-0.391-0.391-1.023,0-1.414l9-9
		c0.391-0.391,1.023-0.391,1.414,0s0.391,1.023,0,1.414l-9,9C34.512,52.402,34.256,52.5,34,52.5z"/>
	<path style="fill:#26B99A;" d="M43,43.5c-0.256,0-0.512-0.098-0.707-0.293l-9-9c-0.391-0.391-0.391-1.023,0-1.414
		s1.023-0.391,1.414,0l9,9c0.391,0.391,0.391,1.023,0,1.414C43.512,43.402,43.256,43.5,43,43.5z"/>
	<path style="fill:#E1705C;" d="M44.413,19.333c-0.45,0-0.859-0.307-0.971-0.764c-0.131-0.537,0.199-1.078,0.735-1.208
		c0.543-0.132,1.056-0.352,1.524-0.653c0.464-0.297,1.083-0.163,1.382,0.3c0.299,0.464,0.165,1.083-0.3,1.382
		c-0.656,0.423-1.374,0.73-2.134,0.915C44.571,19.324,44.491,19.333,44.413,19.333z M40.505,18.959c-0.139,0-0.28-0.029-0.415-0.091
		c-0.709-0.324-1.356-0.763-1.922-1.304c-0.399-0.381-0.414-1.014-0.032-1.413c0.381-0.399,1.015-0.415,1.413-0.032
		c0.404,0.386,0.866,0.699,1.373,0.931c0.502,0.229,0.723,0.822,0.493,1.325C41.247,18.742,40.885,18.959,40.505,18.959z
		 M48.672,15.463c-0.108,0-0.219-0.018-0.327-0.055c-0.521-0.181-0.799-0.75-0.618-1.272C47.908,13.612,48,13.062,48,12.5
		c0.001-0.48-0.066-0.953-0.2-1.408c-0.155-0.53,0.148-1.085,0.679-1.241c0.532-0.153,1.087,0.148,1.241,0.679
		c0.187,0.639,0.281,1.303,0.28,1.973c0,0.783-0.129,1.554-0.383,2.288C49.474,15.203,49.086,15.463,48.672,15.463z M37.059,14.353
		c-0.489,0-0.917-0.359-0.989-0.857c-0.047-0.33-0.07-0.666-0.069-0.998c0-0.443,0.043-0.89,0.127-1.324
		c0.104-0.541,0.624-0.895,1.172-0.791c0.542,0.104,0.896,0.629,0.791,1.172C38.03,11.862,38,12.181,38,12.5
		c-0.001,0.244,0.017,0.479,0.05,0.71c0.078,0.547-0.301,1.054-0.848,1.133C37.153,14.35,37.105,14.353,37.059,14.353z
		 M39.071,8.966c-0.279,0-0.559-0.117-0.756-0.346c-0.361-0.417-0.316-1.049,0.102-1.41c0.591-0.512,1.258-0.919,1.98-1.209
		c0.516-0.204,1.096,0.043,1.301,0.555c0.206,0.513-0.043,1.096-0.555,1.301c-0.518,0.208-0.994,0.499-1.418,0.865
		C39.536,8.886,39.304,8.966,39.071,8.966z M46.479,8.612c-0.201,0-0.404-0.061-0.58-0.187c-0.454-0.324-0.955-0.568-1.49-0.725
		c-0.53-0.156-0.834-0.711-0.679-1.241c0.155-0.529,0.711-0.834,1.241-0.679c0.75,0.221,1.453,0.563,2.09,1.018
		c0.449,0.321,0.554,0.945,0.232,1.395C47.099,8.467,46.792,8.612,46.479,8.612z"/>
	<g>
		<circle style="fill:#F0C419;" cx="11" cy="32.5" r="6"/>
		<path style="fill:#F0C419;" d="M11,39.5c-3.859,0-7-3.141-7-7s3.141-7,7-7s7,3.141,7,7S14.859,39.5,11,39.5z M11,27.5
			c-2.757,0-5,2.243-5,5s2.243,5,5,5s5-2.243,5-5S13.757,27.5,11,27.5z"/>
	</g>
</g>
<g>
</g>
<g>
</g>
<g>
</g>
<g>
</g>
<g>
</g>
<g>
</g>
<g>
</g>
<g>
</g>
<g>
</g>
<g>
</g>
<g>
</g>
<g>
</g>
<g>
</g>
<g>
</g>
<g>
</g>
</svg>
