<?xml version="1.0" encoding="iso-8859-1"?>
<!-- Generator: Adobe Illustrator 18.0.0, SVG Export Plug-In . SVG Version: 6.00 Build 0)  -->
<!DOCTYPE svg PUBLIC "-//W3C//DTD SVG 1.1//EN" "http://www.w3.org/Graphics/SVG/1.1/DTD/svg11.dtd">
<svg version="1.1" id="Capa_1" xmlns="http://www.w3.org/2000/svg" xmlns:xlink="http://www.w3.org/1999/xlink" x="0px" y="0px"
	 viewBox="0 0 60 60" style="enable-background:new 0 0 60 60;" xml:space="preserve">
<g>
	<path style="fill:#26B99A;" d="M46,31h-2c-0.552,0-1-0.447-1-1s0.448-1,1-1h2c0.552,0,1,0.447,1,1S46.552,31,46,31z M40,31h-2
		c-0.552,0-1-0.447-1-1s0.448-1,1-1h2c0.552,0,1,0.447,1,1S40.552,31,40,31z M34,31h-2c-0.552,0-1-0.447-1-1s0.448-1,1-1h2
		c0.552,0,1,0.447,1,1S34.552,31,34,31z M28,31h-2c-0.552,0-1-0.447-1-1s0.448-1,1-1h2c0.552,0,1,0.447,1,1S28.552,31,28,31z M22,31
		h-2c-0.552,0-1-0.447-1-1s0.448-1,1-1h2c0.552,0,1,0.447,1,1S22.552,31,22,31z M16,31h-2c-0.552,0-1-0.447-1-1s0.448-1,1-1h2
		c0.552,0,1,0.447,1,1S16.552,31,16,31z M49.891,30.207c-0.389,0-0.758-0.228-0.92-0.608c-0.216-0.508,0.02-1.096,0.528-1.312
		c0.55-0.234,1.079-0.525,1.574-0.865c0.455-0.312,1.079-0.196,1.391,0.258c0.313,0.455,0.197,1.078-0.258,1.391
		c-0.604,0.415-1.252,0.771-1.924,1.057C50.155,30.182,50.022,30.207,49.891,30.207z M54.408,26.395
		c-0.186,0-0.373-0.052-0.541-0.159c-0.464-0.3-0.598-0.918-0.299-1.383c0.326-0.505,0.602-1.043,0.818-1.599
		c0.201-0.514,0.784-0.769,1.296-0.567c0.515,0.201,0.769,0.781,0.567,1.296c-0.267,0.68-0.603,1.337-1,1.954
		C55.058,26.233,54.736,26.395,54.408,26.395z M55.995,20.704c-0.538,0-0.983-0.429-0.999-0.972
		c-0.017-0.601-0.095-1.199-0.231-1.778c-0.126-0.538,0.207-1.076,0.744-1.203c0.534-0.123,1.076,0.206,1.203,0.744
		c0.167,0.711,0.263,1.444,0.284,2.181c0.016,0.552-0.419,1.012-0.972,1.028C56.014,20.704,56.004,20.704,55.995,20.704z
		 M54.075,15.118c-0.309,0-0.612-0.142-0.808-0.409c-0.354-0.484-0.759-0.936-1.201-1.341c-0.407-0.373-0.435-1.006-0.062-1.413
		c0.373-0.406,1.005-0.435,1.413-0.062c0.539,0.494,1.031,1.044,1.463,1.634c0.326,0.446,0.229,1.071-0.216,1.397
		C54.486,15.056,54.28,15.118,54.075,15.118z M49.34,11.578c-0.111,0-0.226-0.019-0.336-0.059c-0.565-0.201-1.151-0.346-1.742-0.43
		c-0.547-0.077-0.927-0.584-0.85-1.131c0.078-0.547,0.587-0.924,1.13-0.85c0.725,0.103,1.443,0.28,2.134,0.527
		c0.521,0.186,0.792,0.758,0.605,1.277C50.136,11.323,49.751,11.578,49.34,11.578z M43.408,11h-2c-0.552,0-1-0.447-1-1s0.448-1,1-1
		h2c0.552,0,1,0.447,1,1S43.96,11,43.408,11z M37.408,11h-2c-0.552,0-1-0.447-1-1s0.448-1,1-1h2c0.552,0,1,0.447,1,1
		S37.96,11,37.408,11z M31.408,11h-2c-0.552,0-1-0.447-1-1s0.448-1,1-1h2c0.552,0,1,0.447,1,1S31.96,11,31.408,11z M25.408,11h-2
		c-0.552,0-1-0.447-1-1s0.448-1,1-1h2c0.552,0,1,0.447,1,1S25.96,11,25.408,11z M19.408,11h-2c-0.552,0-1-0.447-1-1s0.448-1,1-1h2
		c0.552,0,1,0.447,1,1S19.96,11,19.408,11z"/>
	<path style="fill:#26B99A;" d="M46,51h-2c-0.552,0-1-0.447-1-1s0.448-1,1-1h2c0.552,0,1,0.447,1,1S46.552,51,46,51z M40,51h-2
		c-0.552,0-1-0.447-1-1s0.448-1,1-1h2c0.552,0,1,0.447,1,1S40.552,51,40,51z M34,51h-2c-0.552,0-1-0.447-1-1s0.448-1,1-1h2
		c0.552,0,1,0.447,1,1S34.552,51,34,51z M28,51h-2c-0.552,0-1-0.447-1-1s0.448-1,1-1h2c0.552,0,1,0.447,1,1S28.552,51,28,51z M22,51
		h-2c-0.552,0-1-0.447-1-1s0.448-1,1-1h2c0.552,0,1,0.447,1,1S22.552,51,22,51z M16,51h-2c-0.552,0-1-0.447-1-1s0.448-1,1-1h2
		c0.552,0,1,0.447,1,1S16.552,51,16,51z M10.107,50.207c-0.131,0-0.264-0.025-0.392-0.08c-0.669-0.285-1.316-0.641-1.922-1.056
		c-0.456-0.313-0.572-0.935-0.26-1.391c0.313-0.454,0.936-0.571,1.391-0.26c0.498,0.342,1.028,0.633,1.576,0.866
		c0.508,0.217,0.744,0.804,0.528,1.312C10.866,49.979,10.496,50.207,10.107,50.207z M5.591,46.395c-0.329,0-0.65-0.161-0.841-0.458
		c-0.397-0.615-0.733-1.272-1-1.953C3.547,43.47,3.8,42.89,4.314,42.688c0.514-0.199,1.094,0.051,1.296,0.565
		c0.219,0.557,0.495,1.096,0.82,1.6c0.299,0.465,0.166,1.083-0.299,1.383C5.964,46.343,5.776,46.395,5.591,46.395z M4.004,40.704
		c-0.01,0-0.02,0-0.03,0c-0.552-0.017-0.986-0.478-0.97-1.029c0.021-0.733,0.117-1.466,0.284-2.178
		c0.126-0.537,0.666-0.87,1.202-0.746c0.538,0.126,0.872,0.664,0.746,1.201c-0.136,0.583-0.214,1.182-0.232,1.781
		C4.987,40.275,4.543,40.704,4.004,40.704z M5.924,35.118c-0.205,0-0.411-0.063-0.589-0.192c-0.446-0.326-0.543-0.952-0.217-1.397
		c0.43-0.589,0.923-1.139,1.463-1.635c0.408-0.374,1.04-0.345,1.413,0.062c0.373,0.407,0.346,1.04-0.062,1.413
		c-0.444,0.406-0.848,0.857-1.201,1.34C6.537,34.977,6.233,35.118,5.924,35.118z M10.659,31.578c-0.411,0-0.795-0.255-0.942-0.664
		c-0.186-0.52,0.085-1.092,0.605-1.277c0.691-0.247,1.41-0.425,2.134-0.527c0.546-0.073,1.053,0.303,1.13,0.85
		s-0.303,1.054-0.85,1.131c-0.591,0.084-1.177,0.229-1.742,0.43C10.884,31.56,10.771,31.578,10.659,31.578z"/>
	<path style="fill:#26B99A;" d="M14,11c-0.256,0-0.512-0.098-0.707-0.293c-0.391-0.391-0.391-1.023,0-1.414l9-9
		c0.391-0.391,1.023-0.391,1.414,0s0.391,1.023,0,1.414l-9,9C14.511,10.902,14.255,11,14,11z"/>
	<path style="fill:#26B99A;" d="M23,20c-0.256,0-0.512-0.098-0.707-0.293l-9-9c-0.391-0.391-0.391-1.023,0-1.414
		s1.023-0.391,1.414,0l9,9c0.391,0.391,0.391,1.023,0,1.414C23.511,19.902,23.255,20,23,20z"/>
	<path style="fill:#26B99A;" d="M37,60c-0.256,0-0.512-0.098-0.707-0.293c-0.391-0.391-0.391-1.023,0-1.414l9-9
		c0.391-0.391,1.023-0.391,1.414,0s0.391,1.023,0,1.414l-9,9C37.511,59.902,37.255,60,37,60z"/>
	<path style="fill:#26B99A;" d="M46,51c-0.256,0-0.512-0.098-0.707-0.293l-9-9c-0.391-0.391-0.391-1.023,0-1.414
		s1.023-0.391,1.414,0l9,9c0.391,0.391,0.391,1.023,0,1.414C46.511,50.902,46.255,51,46,51z"/>
</g>
<g>
</g>
<g>
</g>
<g>
</g>
<g>
</g>
<g>
</g>
<g>
</g>
<g>
</g>
<g>
</g>
<g>
</g>
<g>
</g>
<g>
</g>
<g>
</g>
<g>
</g>
<g>
</g>
<g>
</g>
</svg>
