<?xml version="1.0" encoding="iso-8859-1"?>
<!-- Generator: Adobe Illustrator 18.0.0, SVG Export Plug-In . SVG Version: 6.00 Build 0)  -->
<!DOCTYPE svg PUBLIC "-//W3C//DTD SVG 1.1//EN" "http://www.w3.org/Graphics/SVG/1.1/DTD/svg11.dtd">
<svg version="1.1" id="Capa_1" xmlns="http://www.w3.org/2000/svg" xmlns:xlink="http://www.w3.org/1999/xlink" x="0px" y="0px"
	 viewBox="0 0 54 54" style="enable-background:new 0 0 54 54;" xml:space="preserve">
<g>
	<path style="fill:#26B99A;" d="M43,23.5H11c-0.553,0-1-0.447-1-1s0.447-1,1-1h32c4.963,0,9-4.037,9-9s-4.037-9-9-9H11
		c-0.553,0-1-0.447-1-1s0.447-1,1-1h32c6.065,0,11,4.935,11,11S49.065,23.5,43,23.5z"/>
	<path style="fill:#26B99A;" d="M43,43.5H11c-6.065,0-11-4.935-11-11s4.935-11,11-11c0.553,0,1,0.447,1,1s-0.447,1-1,1
		c-4.963,0-9,4.037-9,9s4.037,9,9,9h32c0.553,0,1,0.447,1,1S43.553,43.5,43,43.5z"/>
	<path style="fill:#26B99A;" d="M34,52.5c-0.256,0-0.512-0.098-0.707-0.293c-0.391-0.391-0.391-1.023,0-1.414l9-9
		c0.391-0.391,1.023-0.391,1.414,0s0.391,1.023,0,1.414l-9,9C34.512,52.402,34.256,52.5,34,52.5z"/>
	<path style="fill:#26B99A;" d="M43,43.5c-0.256,0-0.512-0.098-0.707-0.293l-9-9c-0.391-0.391-0.391-1.023,0-1.414
		s1.023-0.391,1.414,0l9,9c0.391,0.391,0.391,1.023,0,1.414C43.512,43.402,43.256,43.5,43,43.5z"/>
	<g>
		<circle style="fill:#F0C419;" cx="43" cy="12.5" r="6"/>
		<path style="fill:#F0C419;" d="M43,19.5c-3.859,0-7-3.141-7-7s3.141-7,7-7s7,3.141,7,7S46.859,19.5,43,19.5z M43,7.5
			c-2.757,0-5,2.243-5,5s2.243,5,5,5s5-2.243,5-5S45.757,7.5,43,7.5z"/>
	</g>
</g>
<g>
</g>
<g>
</g>
<g>
</g>
<g>
</g>
<g>
</g>
<g>
</g>
<g>
</g>
<g>
</g>
<g>
</g>
<g>
</g>
<g>
</g>
<g>
</g>
<g>
</g>
<g>
</g>
<g>
</g>
</svg>
