<?xml version="1.0" encoding="iso-8859-1"?>
<!-- Generator: Adobe Illustrator 18.0.0, SVG Export Plug-In . SVG Version: 6.00 Build 0)  -->
<!DOCTYPE svg PUBLIC "-//W3C//DTD SVG 1.1//EN" "http://www.w3.org/Graphics/SVG/1.1/DTD/svg11.dtd">
<svg version="1.1" id="Capa_1" xmlns="http://www.w3.org/2000/svg" xmlns:xlink="http://www.w3.org/1999/xlink" x="0px" y="0px"
	 viewBox="0 0 59 59" style="enable-background:new 0 0 59 59;" xml:space="preserve">
<g>
	<polygon style="fill:#546A79;" points="8,45.5 6,45.5 6,28.5 23,28.5 23,30.5 8,30.5 	"/>
	<polygon style="fill:#546A79;" points="53,30.5 35,30.5 35,28.5 51,28.5 51,13.5 53,13.5 	"/>
	<g>
		<circle style="fill:#F0785A;" cx="7" cy="51.5" r="6"/>
		<path style="fill:#F0785A;" d="M7,58.5c-3.859,0-7-3.141-7-7s3.141-7,7-7s7,3.141,7,7S10.859,58.5,7,58.5z M7,46.5
			c-2.757,0-5,2.243-5,5s2.243,5,5,5s5-2.243,5-5S9.757,46.5,7,46.5z"/>
	</g>
	<g>
		<circle style="fill:#F29C1F;" cx="29" cy="29.5" r="6"/>
		<path style="fill:#F29C1F;" d="M29,36.5c-3.859,0-7-3.141-7-7s3.141-7,7-7s7,3.141,7,7S32.859,36.5,29,36.5z M29,24.5
			c-2.757,0-5,2.243-5,5s2.243,5,5,5s5-2.243,5-5S31.757,24.5,29,24.5z"/>
	</g>
	<g>
		<circle style="fill:#F3D55B;" cx="52" cy="7.5" r="6"/>
		<path style="fill:#F3D55B;" d="M52,14.5c-3.859,0-7-3.141-7-7s3.141-7,7-7s7,3.141,7,7S55.859,14.5,52,14.5z M52,2.5
			c-2.757,0-5,2.243-5,5s2.243,5,5,5s5-2.243,5-5S54.757,2.5,52,2.5z"/>
	</g>
</g>
<g>
</g>
<g>
</g>
<g>
</g>
<g>
</g>
<g>
</g>
<g>
</g>
<g>
</g>
<g>
</g>
<g>
</g>
<g>
</g>
<g>
</g>
<g>
</g>
<g>
</g>
<g>
</g>
<g>
</g>
</svg>
