<?xml version="1.0" encoding="iso-8859-1"?>
<!-- Generator: Adobe Illustrator 18.0.0, SVG Export Plug-In . SVG Version: 6.00 Build 0)  -->
<!DOCTYPE svg PUBLIC "-//W3C//DTD SVG 1.1//EN" "http://www.w3.org/Graphics/SVG/1.1/DTD/svg11.dtd">
<svg version="1.1" id="Capa_1" xmlns="http://www.w3.org/2000/svg" xmlns:xlink="http://www.w3.org/1999/xlink" x="0px" y="0px"
	 viewBox="0 0 47 47" style="enable-background:new 0 0 47 47;" xml:space="preserve">
<g>
	<path style="fill:#57B0E3;" d="M28,2H1C0.447,2,0,1.552,0,1s0.447-1,1-1h27c0.553,0,1,0.448,1,1S28.553,2,28,2z"/>
	<path style="fill:#57B0E3;" d="M1,29c-0.553,0-1-0.448-1-1V1c0-0.552,0.447-1,1-1s1,0.448,1,1v27C2,28.552,1.553,29,1,29z"/>
	<path style="fill:#57B0E3;" d="M46,47c-0.256,0-0.512-0.098-0.707-0.293l-45-45c-0.391-0.391-0.391-1.023,0-1.414
		s1.023-0.391,1.414,0l45,45c0.391,0.391,0.391,1.023,0,1.414C46.512,46.902,46.256,47,46,47z"/>
</g>
<g>
</g>
<g>
</g>
<g>
</g>
<g>
</g>
<g>
</g>
<g>
</g>
<g>
</g>
<g>
</g>
<g>
</g>
<g>
</g>
<g>
</g>
<g>
</g>
<g>
</g>
<g>
</g>
<g>
</g>
</svg>
