<?xml version="1.0" encoding="iso-8859-1"?>
<!-- Generator: Adobe Illustrator 18.0.0, SVG Export Plug-In . SVG Version: 6.00 Build 0)  -->
<!DOCTYPE svg PUBLIC "-//W3C//DTD SVG 1.1//EN" "http://www.w3.org/Graphics/SVG/1.1/DTD/svg11.dtd">
<svg version="1.1" id="Capa_1" xmlns="http://www.w3.org/2000/svg" xmlns:xlink="http://www.w3.org/1999/xlink" x="0px" y="0px"
	 viewBox="0 0 60 60" style="enable-background:new 0 0 60 60;" xml:space="preserve">
<g>
	<path style="fill:#8697CB;" d="M35,26c-0.553,0-1-0.448-1-1V5c0-0.552,0.447-1,1-1s1,0.448,1,1v20C36,25.552,35.553,26,35,26z"/>
	<path style="fill:#8697CB;" d="M55,26H35c-0.553,0-1-0.448-1-1s0.447-1,1-1h20c0.553,0,1,0.448,1,1S55.553,26,55,26z"/>
	<path style="fill:#8697CB;" d="M35,26c-0.256,0-0.512-0.098-0.707-0.293c-0.391-0.391-0.391-1.023,0-1.414l24-24
		c0.391-0.391,1.023-0.391,1.414,0s0.391,1.023,0,1.414l-24,24C35.512,25.902,35.256,26,35,26z"/>
	<path style="fill:#8697CB;" d="M25,56c-0.553,0-1-0.448-1-1V35c0-0.552,0.447-1,1-1s1,0.448,1,1v20C26,55.552,25.553,56,25,56z"/>
	<path style="fill:#8697CB;" d="M25,36H5c-0.553,0-1-0.448-1-1s0.447-1,1-1h20c0.553,0,1,0.448,1,1S25.553,36,25,36z"/>
	<path style="fill:#8697CB;" d="M1,60c-0.256,0-0.512-0.098-0.707-0.293c-0.391-0.391-0.391-1.023,0-1.414l24-24
		c0.391-0.391,1.023-0.391,1.414,0s0.391,1.023,0,1.414l-24,24C1.512,59.902,1.256,60,1,60z"/>
</g>
<g>
</g>
<g>
</g>
<g>
</g>
<g>
</g>
<g>
</g>
<g>
</g>
<g>
</g>
<g>
</g>
<g>
</g>
<g>
</g>
<g>
</g>
<g>
</g>
<g>
</g>
<g>
</g>
<g>
</g>
</svg>
