<?xml version="1.0" encoding="iso-8859-1"?>
<!-- Generator: Adobe Illustrator 18.0.0, SVG Export Plug-In . SVG Version: 6.00 Build 0)  -->
<!DOCTYPE svg PUBLIC "-//W3C//DTD SVG 1.1//EN" "http://www.w3.org/Graphics/SVG/1.1/DTD/svg11.dtd">
<svg version="1.1" id="Capa_1" xmlns="http://www.w3.org/2000/svg" xmlns:xlink="http://www.w3.org/1999/xlink" x="0px" y="0px"
	 viewBox="0 0 58 58" style="enable-background:new 0 0 58 58;" xml:space="preserve">
<g>
	<rect x="44.5" y="21" style="fill:#546A79;" width="2" height="24"/>
	<path style="fill:#546A79;" d="M39.5,28c-0.256,0-0.512-0.098-0.707-0.293c-0.391-0.391-0.391-1.023,0-1.414l6-6
		c0.391-0.391,1.023-0.391,1.414,0s0.391,1.023,0,1.414l-6,6C40.012,27.902,39.756,28,39.5,28z"/>
	<path style="fill:#546A79;" d="M51.5,28c-0.256,0-0.512-0.098-0.707-0.293l-6-6c-0.391-0.391-0.391-1.023,0-1.414
		s1.023-0.391,1.414,0l6,6c0.391,0.391,0.391,1.023,0,1.414C52.012,27.902,51.756,28,51.5,28z"/>
	<path style="fill:#546A79;" d="M32.5,52c-0.256,0-0.512-0.098-0.707-0.293l-6-6c-0.391-0.391-0.391-1.023,0-1.414
		s1.023-0.391,1.414,0l6,6c0.391,0.391,0.391,1.023,0,1.414C33.012,51.902,32.756,52,32.5,52z"/>
	<path style="fill:#546A79;" d="M26.5,58c-0.256,0-0.512-0.098-0.707-0.293c-0.391-0.391-0.391-1.023,0-1.414l6-6
		c0.391-0.391,1.023-0.391,1.414,0s0.391,1.023,0,1.414l-6,6C27.012,57.902,26.756,58,26.5,58z"/>
	<path style="fill:#546A79;" d="M31.689,52h-2c-0.552,0-1-0.447-1-1s0.448-1,1-1h2c0.552,0,1,0.447,1,1S32.242,52,31.689,52z
		 M25.689,52h-2c-0.552,0-1-0.447-1-1s0.448-1,1-1h2c0.552,0,1,0.447,1,1S26.242,52,25.689,52z M19.721,51.664
		c-0.086,0-0.174-0.011-0.261-0.034c-1.067-0.288-2.08-0.739-3.011-1.339c-0.464-0.3-0.598-0.918-0.299-1.383
		c0.3-0.463,0.918-0.597,1.382-0.299c0.758,0.488,1.582,0.855,2.45,1.089c0.533,0.145,0.849,0.693,0.705,1.227
		C20.565,51.371,20.162,51.664,19.721,51.664z M14.156,47.668c-0.322,0-0.638-0.155-0.831-0.442
		c-0.41-0.611-0.758-1.265-1.034-1.942c-0.208-0.512,0.038-1.096,0.55-1.304c0.509-0.208,1.094,0.039,1.303,0.55
		c0.224,0.552,0.507,1.084,0.841,1.581c0.308,0.459,0.186,1.08-0.272,1.388C14.541,47.613,14.347,47.668,14.156,47.668z M12.5,42
		c-0.552,0-1-0.447-1-1v-2c0-0.553,0.448-1,1-1s1,0.447,1,1v2C13.5,41.553,13.052,42,12.5,42z M12.5,36c-0.552,0-1-0.447-1-1v-3
		c0-0.553,0.448-1,1-1s1,0.447,1,1v3C13.5,35.553,13.052,36,12.5,36z M12.5,29c-0.552,0-1-0.447-1-1v-2c0-0.553,0.448-1,1-1
		s1,0.447,1,1v2C13.5,28.553,13.052,29,12.5,29z M12.5,23c-0.552,0-1-0.447-1-1v-2c0-0.553,0.448-1,1-1s1,0.447,1,1v2
		C13.5,22.553,13.052,23,12.5,23z M12.5,17c-0.552,0-1-0.447-1-1v-3c0-0.553,0.448-1,1-1s1,0.447,1,1v3
		C13.5,16.553,13.052,17,12.5,17z"/>
	<g>
		<circle style="fill:#57B0E3;" cx="45.5" cy="7" r="6"/>
		<path style="fill:#57B0E3;" d="M45.5,14c-3.86,0-7-3.141-7-7s3.14-7,7-7c3.859,0,7,3.141,7,7S49.359,14,45.5,14z M45.5,2
			c-2.757,0-5,2.243-5,5s2.243,5,5,5s5-2.243,5-5S48.257,2,45.5,2z"/>
	</g>
	<g>
		<circle style="fill:#4C98BC;" cx="45.5" cy="51" r="6"/>
		<path style="fill:#4C98BC;" d="M45.5,58c-3.86,0-7-3.141-7-7s3.14-7,7-7c3.859,0,7,3.141,7,7S49.359,58,45.5,58z M45.5,46
			c-2.757,0-5,2.243-5,5s2.243,5,5,5s5-2.243,5-5S48.257,46,45.5,46z"/>
	</g>
	<g>
		<circle style="fill:#3B7995;" cx="12.5" cy="7" r="6"/>
		<path style="fill:#3B7995;" d="M12.5,14c-3.86,0-7-3.141-7-7s3.14-7,7-7s7,3.141,7,7S16.36,14,12.5,14z M12.5,2
			c-2.757,0-5,2.243-5,5s2.243,5,5,5s5-2.243,5-5S15.257,2,12.5,2z"/>
	</g>
</g>
<g>
</g>
<g>
</g>
<g>
</g>
<g>
</g>
<g>
</g>
<g>
</g>
<g>
</g>
<g>
</g>
<g>
</g>
<g>
</g>
<g>
</g>
<g>
</g>
<g>
</g>
<g>
</g>
<g>
</g>
</svg>
