<?xml version="1.0" encoding="iso-8859-1"?>
<!-- Generator: Adobe Illustrator 18.0.0, SVG Export Plug-In . SVG Version: 6.00 Build 0)  -->
<!DOCTYPE svg PUBLIC "-//W3C//DTD SVG 1.1//EN" "http://www.w3.org/Graphics/SVG/1.1/DTD/svg11.dtd">
<svg version="1.1" id="Capa_1" xmlns="http://www.w3.org/2000/svg" xmlns:xlink="http://www.w3.org/1999/xlink" x="0px" y="0px"
	 viewBox="0 0 60 60" style="enable-background:new 0 0 60 60;" xml:space="preserve">
<g>
	<path style="fill:#546A79;" d="M59,31H40c-0.552,0-1-0.447-1-1s0.448-1,1-1h19c0.552,0,1,0.447,1,1S59.552,31,59,31z"/>
	<path style="fill:#546A79;" d="M41,31h-9c-0.552,0-1-0.447-1-1s0.448-1,1-1h9c0.552,0,1,0.447,1,1S41.552,31,41,31z"/>
	<path style="fill:#546A79;" d="M59,31c-0.256,0-0.512-0.098-0.707-0.293l-9-9c-0.391-0.391-0.391-1.023,0-1.414
		s1.023-0.391,1.414,0l9,9c0.391,0.391,0.391,1.023,0,1.414C59.512,30.902,59.256,31,59,31z"/>
	<path style="fill:#546A79;" d="M50,40c-0.256,0-0.512-0.098-0.707-0.293c-0.391-0.391-0.391-1.023,0-1.414l9-9
		c0.391-0.391,1.023-0.391,1.414,0s0.391,1.023,0,1.414l-9,9C50.512,39.902,50.256,40,50,40z"/>
	<path style="fill:#546A79;" d="M17,46c-0.256,0-0.512-0.098-0.707-0.293l-9-9c-0.391-0.391-0.391-1.023,0-1.414
		s1.023-0.391,1.414,0l9,9c0.391,0.391,0.391,1.023,0,1.414C17.512,45.902,17.256,46,17,46z"/>
	<path style="fill:#546A79;" d="M8,55c-0.256,0-0.512-0.098-0.707-0.293c-0.391-0.391-0.391-1.023,0-1.414l9-9
		c0.391-0.391,1.023-0.391,1.414,0s0.391,1.023,0,1.414l-9,9C8.512,54.902,8.256,55,8,55z"/>
	<path style="fill:#546A79;" d="M17,16c-0.256,0-0.512-0.098-0.707-0.293l-9-9c-0.391-0.391-0.391-1.023,0-1.414
		s1.023-0.391,1.414,0l9,9c0.391,0.391,0.391,1.023,0,1.414C17.512,15.902,17.256,16,17,16z"/>
	<path style="fill:#546A79;" d="M8,25c-0.256,0-0.512-0.098-0.707-0.293c-0.391-0.391-0.391-1.023,0-1.414l9-9
		c0.391-0.391,1.023-0.391,1.414,0s0.391,1.023,0,1.414l-9,9C8.512,24.902,8.256,25,8,25z"/>
	<path style="fill:#546A79;" d="M20.117,45.676c-0.463,0-0.878-0.323-0.978-0.794c-0.114-0.54,0.232-1.07,0.772-1.185
		c0.605-0.127,1.208-0.298,1.793-0.507c0.52-0.186,1.092,0.086,1.278,0.604c0.186,0.521-0.085,1.093-0.605,1.278
		c-0.669,0.239-1.36,0.435-2.053,0.581C20.255,45.669,20.186,45.676,20.117,45.676z M25.583,43.305c-0.315,0-0.626-0.148-0.82-0.427
		c-0.317-0.453-0.207-1.076,0.246-1.393c0.509-0.356,0.999-0.749,1.455-1.168c0.407-0.375,1.04-0.348,1.413,0.06
		c0.374,0.407,0.347,1.04-0.06,1.413c-0.521,0.479-1.08,0.928-1.661,1.334C25.981,43.246,25.781,43.305,25.583,43.305z
		 M29.695,38.993c-0.182,0-0.366-0.05-0.532-0.153c-0.467-0.295-0.608-0.912-0.313-1.379c0.333-0.528,0.631-1.081,0.888-1.643
		c0.23-0.501,0.824-0.721,1.325-0.493c0.502,0.229,0.723,0.823,0.493,1.325c-0.293,0.642-0.635,1.272-1.014,1.875
		C30.352,38.828,30.027,38.993,29.695,38.993z M31.808,33.419c-0.053,0-0.107-0.004-0.162-0.013
		c-0.545-0.089-0.916-0.603-0.827-1.147c0.099-0.609,0.158-1.234,0.176-1.857c0.015-0.552,0.443-0.953,1.028-0.972
		c0.552,0.016,0.987,0.477,0.971,1.028c-0.02,0.711-0.087,1.425-0.2,2.121C32.714,33.07,32.289,33.419,31.808,33.419z M31.58,27.464
		c-0.451,0-0.86-0.307-0.971-0.765c-0.146-0.604-0.334-1.202-0.559-1.778c-0.201-0.515,0.054-1.095,0.568-1.295
		c0.514-0.201,1.095,0.053,1.295,0.568c0.257,0.659,0.472,1.344,0.639,2.034c0.13,0.537-0.2,1.077-0.736,1.207
		C31.737,27.455,31.658,27.464,31.58,27.464z M29.054,22.069c-0.306,0-0.608-0.14-0.804-0.404c-0.369-0.498-0.776-0.977-1.208-1.422
		c-0.385-0.396-0.375-1.028,0.021-1.414c0.396-0.384,1.029-0.376,1.414,0.021c0.494,0.508,0.958,1.055,1.38,1.623
		c0.329,0.443,0.236,1.07-0.208,1.399C29.469,22.006,29.26,22.069,29.054,22.069z M24.625,18.081c-0.173,0-0.349-0.045-0.509-0.14
		c-0.531-0.315-1.091-0.598-1.663-0.84c-0.509-0.215-0.747-0.802-0.532-1.311c0.215-0.508,0.803-0.746,1.311-0.531
		c0.655,0.276,1.296,0.601,1.905,0.961c0.475,0.282,0.631,0.896,0.35,1.37C25.299,17.906,24.966,18.081,24.625,18.081z
		 M18.995,16.131c-0.044,0-0.088-0.003-0.132-0.009C18.247,16.041,17.621,16,17,16c-0.552,0-1-0.447-1-1s0.448-1,1-1
		c0.708,0,1.422,0.047,2.124,0.14c0.547,0.072,0.933,0.574,0.86,1.122C19.918,15.765,19.489,16.131,18.995,16.131z"/>
	<g>
		<circle style="fill:#F3D55B;" cx="20" cy="30" r="8"/>
		<path style="fill:#F3D55B;" d="M20,39c-4.962,0-9-4.037-9-9s4.038-9,9-9s9,4.037,9,9S24.962,39,20,39z M20,23c-3.86,0-7,3.141-7,7
			s3.14,7,7,7s7-3.141,7-7S23.86,23,20,23z"/>
	</g>
	<path style="fill:#546A79;" d="M16,46H1c-0.552,0-1-0.447-1-1s0.448-1,1-1h15c0.552,0,1,0.447,1,1S16.552,46,16,46z"/>
	<path style="fill:#546A79;" d="M16,16H1c-0.552,0-1-0.447-1-1s0.448-1,1-1h15c0.552,0,1,0.447,1,1S16.552,16,16,16z"/>
</g>
<g>
</g>
<g>
</g>
<g>
</g>
<g>
</g>
<g>
</g>
<g>
</g>
<g>
</g>
<g>
</g>
<g>
</g>
<g>
</g>
<g>
</g>
<g>
</g>
<g>
</g>
<g>
</g>
<g>
</g>
</svg>
