<?xml version="1.0" encoding="iso-8859-1"?>
<!-- Generator: Adobe Illustrator 18.0.0, SVG Export Plug-In . SVG Version: 6.00 Build 0)  -->
<!DOCTYPE svg PUBLIC "-//W3C//DTD SVG 1.1//EN" "http://www.w3.org/Graphics/SVG/1.1/DTD/svg11.dtd">
<svg version="1.1" id="Capa_1" xmlns="http://www.w3.org/2000/svg" xmlns:xlink="http://www.w3.org/1999/xlink" x="0px" y="0px"
	 viewBox="0 0 60 60" style="enable-background:new 0 0 60 60;" xml:space="preserve">
<g>
	<path style="fill:#546A79;" d="M59,31H40c-0.552,0-1-0.447-1-1s0.448-1,1-1h19c0.552,0,1,0.447,1,1S59.552,31,59,31z"/>
	<path style="fill:#546A79;" d="M41,31h-9c-0.552,0-1-0.447-1-1s0.448-1,1-1h9c0.552,0,1,0.447,1,1S41.552,31,41,31z"/>
	<path style="fill:#546A79;" d="M50,40c-0.256,0-0.512-0.098-0.707-0.293c-0.391-0.391-0.391-1.023,0-1.414l9-9
		c0.391-0.391,1.023-0.391,1.414,0s0.391,1.023,0,1.414l-9,9C50.512,39.902,50.256,40,50,40z"/>
	<path style="fill:#546A79;" d="M59,31c-0.256,0-0.512-0.098-0.707-0.293l-9-9c-0.391-0.391-0.391-1.023,0-1.414
		s1.023-0.391,1.414,0l9,9c0.391,0.391,0.391,1.023,0,1.414C59.512,30.902,59.256,31,59,31z"/>
	<path style="fill:#546A79;" d="M6,55c-0.256,0-0.512-0.098-0.707-0.293c-0.391-0.391-0.391-1.023,0-1.414l9-9
		c0.391-0.391,1.023-0.391,1.414,0s0.391,1.023,0,1.414l-9,9C6.512,54.902,6.256,55,6,55z"/>
	<path style="fill:#546A79;" d="M15,46c-0.256,0-0.512-0.098-0.707-0.293l-9-9c-0.391-0.391-0.391-1.023,0-1.414
		s1.023-0.391,1.414,0l9,9c0.391,0.391,0.391,1.023,0,1.414C15.512,45.902,15.256,46,15,46z"/>
	<path style="fill:#546A79;" d="M6,25c-0.256,0-0.512-0.098-0.707-0.293c-0.391-0.391-0.391-1.023,0-1.414l9-9
		c0.391-0.391,1.023-0.391,1.414,0s0.391,1.023,0,1.414l-9,9C6.512,24.902,6.256,25,6,25z"/>
	<path style="fill:#546A79;" d="M15,16c-0.256,0-0.512-0.098-0.707-0.293l-9-9c-0.391-0.391-0.391-1.023,0-1.414
		s1.023-0.391,1.414,0l9,9c0.391,0.391,0.391,1.023,0,1.414C15.512,15.902,15.256,16,15,16z"/>
	<path style="fill:#546A79;" d="M31,46h-2c-0.552,0-1-0.447-1-1s0.448-1,1-1h2c0.552,0,1,0.447,1,1S31.552,46,31,46z M25,46h-2
		c-0.552,0-1-0.447-1-1s0.448-1,1-1h2c0.552,0,1,0.447,1,1S25.552,46,25,46z M19,46h-2c-0.552,0-1-0.447-1-1s0.448-1,1-1h2
		c0.552,0,1,0.447,1,1S19.552,46,19,46z M32,43c-0.552,0-1-0.447-1-1v-2c0-0.553,0.448-1,1-1s1,0.447,1,1v2
		C33,42.553,32.552,43,32,43z M32,37c-0.552,0-1-0.447-1-1v-2c0-0.553,0.448-1,1-1s1,0.447,1,1v2C33,36.553,32.552,37,32,37z M32,31
		c-0.552,0-1-0.447-1-1v-2c0-0.553,0.448-1,1-1s1,0.447,1,1v2C33,30.553,32.552,31,32,31z M32,25c-0.552,0-1-0.447-1-1v-2
		c0-0.553,0.448-1,1-1s1,0.447,1,1v2C33,24.553,32.552,25,32,25z M32,19c-0.552,0-1-0.447-1-1v-2c0-0.553,0.448-1,1-1s1,0.447,1,1v2
		C33,18.553,32.552,19,32,19z M29,16h-2c-0.552,0-1-0.447-1-1s0.448-1,1-1h2c0.552,0,1,0.447,1,1S29.552,16,29,16z M23,16h-2
		c-0.552,0-1-0.447-1-1s0.448-1,1-1h2c0.552,0,1,0.447,1,1S23.552,16,23,16z M17,16h-2c-0.552,0-1-0.447-1-1s0.448-1,1-1h2
		c0.552,0,1,0.447,1,1S17.552,16,17,16z"/>
	<g>
		<rect x="17" y="21" style="fill:#F3D55B;" width="10" height="18"/>
		<path style="fill:#F3D55B;" d="M28,40H16V20h12V40z M18,38h8V22h-8V38z"/>
	</g>
	<path style="fill:#546A79;" d="M14,46H1c-0.552,0-1-0.447-1-1s0.448-1,1-1h13c0.552,0,1,0.447,1,1S14.552,46,14,46z"/>
	<path style="fill:#546A79;" d="M14,16H1c-0.552,0-1-0.447-1-1s0.448-1,1-1h13c0.552,0,1,0.447,1,1S14.552,16,14,16z"/>
</g>
<g>
</g>
<g>
</g>
<g>
</g>
<g>
</g>
<g>
</g>
<g>
</g>
<g>
</g>
<g>
</g>
<g>
</g>
<g>
</g>
<g>
</g>
<g>
</g>
<g>
</g>
<g>
</g>
<g>
</g>
</svg>
