<?xml version="1.0" encoding="iso-8859-1"?>
<!-- Generator: Adobe Illustrator 18.0.0, SVG Export Plug-In . SVG Version: 6.00 Build 0)  -->
<!DOCTYPE svg PUBLIC "-//W3C//DTD SVG 1.1//EN" "http://www.w3.org/Graphics/SVG/1.1/DTD/svg11.dtd">
<svg version="1.1" id="Capa_1" xmlns="http://www.w3.org/2000/svg" xmlns:xlink="http://www.w3.org/1999/xlink" x="0px" y="0px"
	 viewBox="0 0 54 54" style="enable-background:new 0 0 54 54;" xml:space="preserve">
<g>
	<g>
		<path style="fill:#0096E6;" d="M1,49.217V4.783C1,2.694,2.694,1,4.783,1h44.435C51.306,1,53,2.694,53,4.783v44.435
			C53,51.306,51.306,53,49.217,53H4.783C2.694,53,1,51.306,1,49.217z"/>
		<path style="fill:#0096E6;" d="M49.217,54H4.783C2.146,54,0,51.854,0,49.218V4.783C0,2.146,2.146,0,4.783,0h44.435
			C51.854,0,54,2.146,54,4.782v44.435C54,51.854,51.854,54,49.217,54z M4.783,2C3.249,2,2,3.249,2,4.783v44.435
			C2,50.752,3.249,52,4.783,52h44.435C50.751,52,52,50.751,52,49.217V4.782C52,3.248,50.751,2,49.217,2H4.783z"/>
	</g>
	<g>
		<path style="fill:#FFFFFF;" d="M26.159,39.544L13.984,18.456C13.611,17.809,14.078,17,14.825,17h24.349
			c0.747,0,1.215,0.809,0.841,1.456L27.841,39.544C27.467,40.191,26.533,40.191,26.159,39.544z"/>
		<path style="fill:#FFFFFF;" d="M27,41.029c-0.712,0-1.351-0.368-1.707-0.985L13.118,18.956c-0.356-0.616-0.356-1.354,0-1.971
			C13.475,16.368,14.113,16,14.825,16h24.35c0.712,0,1.351,0.368,1.707,0.985c0.356,0.617,0.356,1.354,0,1.971L28.707,40.044
			C28.351,40.661,27.712,41.029,27,41.029z M39.149,17.956L14.825,18L27,39L39.149,17.956z"/>
	</g>
</g>
<g>
</g>
<g>
</g>
<g>
</g>
<g>
</g>
<g>
</g>
<g>
</g>
<g>
</g>
<g>
</g>
<g>
</g>
<g>
</g>
<g>
</g>
<g>
</g>
<g>
</g>
<g>
</g>
<g>
</g>
</svg>
