<?xml version="1.0" encoding="iso-8859-1"?>
<!-- Generator: Adobe Illustrator 18.0.0, SVG Export Plug-In . SVG Version: 6.00 Build 0)  -->
<!DOCTYPE svg PUBLIC "-//W3C//DTD SVG 1.1//EN" "http://www.w3.org/Graphics/SVG/1.1/DTD/svg11.dtd">
<svg version="1.1" id="Capa_1" xmlns="http://www.w3.org/2000/svg" xmlns:xlink="http://www.w3.org/1999/xlink" x="0px" y="0px"
	 viewBox="0 0 54 54" style="enable-background:new 0 0 54 54;" xml:space="preserve">
<g>
	<g>
		<path style="fill:#88C057;" d="M1,27L1,27C1,12.641,12.641,1,27,1h0c14.359,0,26,11.641,26,26v0c0,14.359-11.641,26-26,26h0
			C12.641,53,1,41.359,1,27z"/>
		<path style="fill:#88C057;" d="M27,54C12.112,54,0,41.888,0,27S12.112,0,27,0s27,12.112,27,27S41.888,54,27,54z M27,2
			C13.215,2,2,13.215,2,27s11.215,25,25,25s25-11.215,25-25S40.785,2,27,2z"/>
	</g>
	<g>
		<path style="fill:#FFFFFF;" d="M25.983,36.144l-8.719-15.101C16.996,20.579,17.331,20,17.866,20h17.437
			c0.535,0,0.87,0.579,0.602,1.043l-8.719,15.101C26.919,36.608,26.25,36.608,25.983,36.144z"/>
		<path style="fill:#FFFFFF;" d="M26.585,37.492c-0.613,0-1.162-0.317-1.469-0.848l-8.719-15.102c-0.307-0.531-0.306-1.165,0-1.695
			C16.704,19.316,17.253,19,17.866,19h17.438c0.613,0,1.162,0.316,1.469,0.848c0.306,0.53,0.307,1.164,0,1.695l-8.719,15.102
			C27.747,37.175,27.198,37.492,26.585,37.492z M18.394,21l8.191,14.188L34.776,21H18.394z"/>
	</g>
</g>
<g>
</g>
<g>
</g>
<g>
</g>
<g>
</g>
<g>
</g>
<g>
</g>
<g>
</g>
<g>
</g>
<g>
</g>
<g>
</g>
<g>
</g>
<g>
</g>
<g>
</g>
<g>
</g>
<g>
</g>
</svg>
