<?xml version="1.0" encoding="iso-8859-1"?>
<!-- Generator: Adobe Illustrator 18.0.0, SVG Export Plug-In . SVG Version: 6.00 Build 0)  -->
<!DOCTYPE svg PUBLIC "-//W3C//DTD SVG 1.1//EN" "http://www.w3.org/Graphics/SVG/1.1/DTD/svg11.dtd">
<svg version="1.1" id="Capa_1" xmlns="http://www.w3.org/2000/svg" xmlns:xlink="http://www.w3.org/1999/xlink" x="0px" y="0px"
	 viewBox="0 0 53 53" style="enable-background:new 0 0 53 53;" xml:space="preserve">
<g>
	<path style="fill:#546A79;" d="M24.182,29.818c-0.256,0-0.512-0.098-0.707-0.293c-0.391-0.391-0.391-1.023,0-1.414L51.293,0.293
		c0.391-0.391,1.023-0.391,1.414,0s0.391,1.023,0,1.414L24.889,29.525C24.693,29.721,24.437,29.818,24.182,29.818z"/>
	<path style="fill:#546A79;" d="M52,20.546c-0.552,0-1-0.447-1-1V1c0-0.553,0.448-1,1-1s1,0.447,1,1v18.546
		C53,20.099,52.552,20.546,52,20.546z"/>
	<path style="fill:#546A79;" d="M52,2H33.455c-0.552,0-1-0.447-1-1s0.448-1,1-1H52c0.552,0,1,0.447,1,1S52.552,2,52,2z"/>
	<g>
		<rect x="1" y="29" style="fill:#B1E97C;" width="23" height="23"/>
		<path style="fill:#B1E97C;" d="M25,53H0V28h25V53z M2,51h21V30H2V51z"/>
	</g>
</g>
<g>
</g>
<g>
</g>
<g>
</g>
<g>
</g>
<g>
</g>
<g>
</g>
<g>
</g>
<g>
</g>
<g>
</g>
<g>
</g>
<g>
</g>
<g>
</g>
<g>
</g>
<g>
</g>
<g>
</g>
</svg>
