<?xml version="1.0" encoding="iso-8859-1"?>
<!-- Generator: Adobe Illustrator 18.0.0, SVG Export Plug-In . SVG Version: 6.00 Build 0)  -->
<!DOCTYPE svg PUBLIC "-//W3C//DTD SVG 1.1//EN" "http://www.w3.org/Graphics/SVG/1.1/DTD/svg11.dtd">
<svg version="1.1" id="Capa_1" xmlns="http://www.w3.org/2000/svg" xmlns:xlink="http://www.w3.org/1999/xlink" x="0px" y="0px"
	 viewBox="0 0 53 53" style="enable-background:new 0 0 53 53;" xml:space="preserve">
<g>
	<path style="fill:#546A79;" d="M52,53c-0.256,0-0.512-0.098-0.707-0.293L23.475,24.889c-0.391-0.391-0.391-1.023,0-1.414
		s1.023-0.391,1.414,0l27.818,27.818c0.391,0.391,0.391,1.023,0,1.414C52.512,52.902,52.256,53,52,53z"/>
	<path style="fill:#546A79;" d="M52,53H33.455c-0.552,0-1-0.447-1-1s0.448-1,1-1H52c0.552,0,1,0.447,1,1S52.552,53,52,53z"/>
	<path style="fill:#546A79;" d="M52,53c-0.552,0-1-0.447-1-1V33.454c0-0.553,0.448-1,1-1s1,0.447,1,1V52C53,52.553,52.552,53,52,53z
		"/>
	<g>
		<rect x="1" y="1" style="fill:#B1E97C;" width="23" height="23"/>
		<path style="fill:#B1E97C;" d="M25,25H0V0h25V25z M2,23h21V2H2V23z"/>
	</g>
</g>
<g>
</g>
<g>
</g>
<g>
</g>
<g>
</g>
<g>
</g>
<g>
</g>
<g>
</g>
<g>
</g>
<g>
</g>
<g>
</g>
<g>
</g>
<g>
</g>
<g>
</g>
<g>
</g>
<g>
</g>
</svg>
