<?xml version="1.0" encoding="iso-8859-1"?>
<!-- Generator: Adobe Illustrator 18.0.0, SVG Export Plug-In . SVG Version: 6.00 Build 0)  -->
<!DOCTYPE svg PUBLIC "-//W3C//DTD SVG 1.1//EN" "http://www.w3.org/Graphics/SVG/1.1/DTD/svg11.dtd">
<svg version="1.1" id="Capa_1" xmlns="http://www.w3.org/2000/svg" xmlns:xlink="http://www.w3.org/1999/xlink" x="0px" y="0px"
	 viewBox="0 0 59 59" style="enable-background:new 0 0 59 59;" xml:space="preserve">
<g>
	<path style="fill:#546A79;" d="M36,30.386H1c-0.553,0-1-0.447-1-1s0.447-1,1-1h35c0.553,0,1,0.447,1,1S36.553,30.386,36,30.386z"/>
	<path style="fill:#546A79;" d="M1,30.386c-0.258,0-0.515-0.099-0.71-0.296c-0.389-0.393-0.387-1.025,0.006-1.414l13.113-13
		c0.393-0.389,1.025-0.387,1.414,0.006s0.387,1.025-0.006,1.414l-13.113,13C1.509,30.29,1.255,30.386,1,30.386z"/>
	<path style="fill:#546A79;" d="M14.113,43.614c-0.258,0-0.515-0.099-0.71-0.296L0.29,30.09c-0.389-0.393-0.387-1.025,0.006-1.414
		c0.394-0.389,1.026-0.387,1.414,0.006L14.823,41.91c0.389,0.393,0.387,1.025-0.006,1.414
		C14.622,43.517,14.368,43.614,14.113,43.614z"/>
	<g>
		<rect x="36" y="18.387" style="fill:#48A0DC;" width="22" height="22"/>
		<path style="fill:#48A0DC;" d="M59,41.386H35v-24h24V41.386z M37,39.386h20v-20H37V39.386z"/>
	</g>
</g>
<g>
</g>
<g>
</g>
<g>
</g>
<g>
</g>
<g>
</g>
<g>
</g>
<g>
</g>
<g>
</g>
<g>
</g>
<g>
</g>
<g>
</g>
<g>
</g>
<g>
</g>
<g>
</g>
<g>
</g>
</svg>
