<?xml version="1.0" encoding="iso-8859-1"?>
<!-- Generator: Adobe Illustrator 18.0.0, SVG Export Plug-In . SVG Version: 6.00 Build 0)  -->
<!DOCTYPE svg PUBLIC "-//W3C//DTD SVG 1.1//EN" "http://www.w3.org/Graphics/SVG/1.1/DTD/svg11.dtd">
<svg version="1.1" id="Capa_1" xmlns="http://www.w3.org/2000/svg" xmlns:xlink="http://www.w3.org/1999/xlink" x="0px" y="0px"
	 viewBox="0 0 57.807 57.807" style="enable-background:new 0 0 57.807 57.807;" xml:space="preserve">
<g>
	<path style="fill:#546A79;" d="M36.812,29.904H1c-0.553,0-1-0.447-1-1s0.447-1,1-1h35.812c0.553,0,1,0.447,1,1
		S37.364,29.904,36.812,29.904z"/>
	<path style="fill:#546A79;" d="M1,29.904c-0.256,0-0.512-0.098-0.707-0.293c-0.391-0.391-0.391-1.023,0-1.414l13.114-13.114
		c0.391-0.391,1.023-0.391,1.414,0s0.391,1.023,0,1.414L1.707,29.611C1.512,29.806,1.256,29.904,1,29.904z"/>
	<path style="fill:#546A79;" d="M14.114,43.017c-0.256,0-0.512-0.098-0.707-0.293L0.293,29.611c-0.391-0.391-0.391-1.023,0-1.414
		s1.023-0.391,1.414,0L14.821,41.31c0.391,0.391,0.391,1.023,0,1.414C14.626,42.919,14.37,43.017,14.114,43.017z"/>
	<g>
		<circle style="fill:#48A0DC;" cx="46.812" cy="28.904" r="10"/>
		<path style="fill:#48A0DC;" d="M46.812,39.903c-2.938,0-5.701-1.144-7.778-3.222c-4.289-4.289-4.289-11.267,0-15.556
			c2.077-2.078,4.84-3.222,7.778-3.222s5.701,1.144,7.778,3.222c4.289,4.289,4.289,11.267,0,15.556
			C52.513,38.759,49.75,39.903,46.812,39.903z M46.812,19.904c-2.404,0-4.664,0.936-6.364,2.636c-3.509,3.509-3.509,9.219,0,12.728
			c1.7,1.7,3.96,2.636,6.364,2.636s4.664-0.936,6.364-2.636c3.509-3.509,3.509-9.219,0-12.728
			C51.476,20.839,49.216,19.904,46.812,19.904z"/>
	</g>
</g>
<g>
</g>
<g>
</g>
<g>
</g>
<g>
</g>
<g>
</g>
<g>
</g>
<g>
</g>
<g>
</g>
<g>
</g>
<g>
</g>
<g>
</g>
<g>
</g>
<g>
</g>
<g>
</g>
<g>
</g>
</svg>
