<?xml version="1.0" encoding="iso-8859-1"?>
<!-- Generator: Adobe Illustrator 18.0.0, SVG Export Plug-In . SVG Version: 6.00 Build 0)  -->
<!DOCTYPE svg PUBLIC "-//W3C//DTD SVG 1.1//EN" "http://www.w3.org/Graphics/SVG/1.1/DTD/svg11.dtd">
<svg version="1.1" id="Capa_1" xmlns="http://www.w3.org/2000/svg" xmlns:xlink="http://www.w3.org/1999/xlink" x="0px" y="0px"
	 viewBox="0 0 53 53" style="enable-background:new 0 0 53 53;" xml:space="preserve">
<g>
	<path style="fill:#546A79;" d="M1,53c-0.552,0-1-0.447-1-1V33.454c0-0.553,0.448-1,1-1s1,0.447,1,1V52C2,52.553,1.552,53,1,53z"/>
	<path style="fill:#546A79;" d="M1,53c-0.256,0-0.512-0.098-0.707-0.293c-0.391-0.391-0.391-1.023,0-1.414l27.818-27.818
		c0.391-0.391,1.023-0.391,1.414,0s0.391,1.023,0,1.414L1.707,52.707C1.512,52.902,1.256,53,1,53z"/>
	<path style="fill:#546A79;" d="M19.545,53H1c-0.552,0-1-0.447-1-1s0.448-1,1-1h18.545c0.552,0,1,0.447,1,1S20.098,53,19.545,53z"/>
	<g>
		<rect x="29" y="1" style="fill:#B1E97C;" width="23" height="23"/>
		<path style="fill:#B1E97C;" d="M53,25H28V0h25V25z M30,23h21V2H30V23z"/>
	</g>
</g>
<g>
</g>
<g>
</g>
<g>
</g>
<g>
</g>
<g>
</g>
<g>
</g>
<g>
</g>
<g>
</g>
<g>
</g>
<g>
</g>
<g>
</g>
<g>
</g>
<g>
</g>
<g>
</g>
<g>
</g>
</svg>
