<?xml version="1.0" encoding="iso-8859-1"?>
<!-- Generator: Adobe Illustrator 18.0.0, SVG Export Plug-In . SVG Version: 6.00 Build 0)  -->
<!DOCTYPE svg PUBLIC "-//W3C//DTD SVG 1.1//EN" "http://www.w3.org/Graphics/SVG/1.1/DTD/svg11.dtd">
<svg version="1.1" id="Capa_1" xmlns="http://www.w3.org/2000/svg" xmlns:xlink="http://www.w3.org/1999/xlink" x="0px" y="0px"
	 viewBox="0 0 53 53" style="enable-background:new 0 0 53 53;" xml:space="preserve">
<g>
	<path style="fill:#546A79;" d="M28.818,29.818c-0.256,0-0.512-0.098-0.707-0.293L0.293,1.707c-0.391-0.391-0.391-1.023,0-1.414
		s1.023-0.391,1.414,0l27.818,27.818c0.391,0.391,0.391,1.023,0,1.414C29.33,29.721,29.074,29.818,28.818,29.818z"/>
	<path style="fill:#546A79;" d="M19.545,2H1C0.448,2,0,1.553,0,1s0.448-1,1-1h18.545c0.552,0,1,0.447,1,1S20.098,2,19.545,2z"/>
	<path style="fill:#546A79;" d="M1,20.546c-0.552,0-1-0.447-1-1V1c0-0.553,0.448-1,1-1s1,0.447,1,1v18.546
		C2,20.099,1.552,20.546,1,20.546z"/>
	<g>
		<rect x="29" y="29" style="fill:#B1E97C;" width="23" height="23"/>
		<path style="fill:#B1E97C;" d="M53,53H28V28h25V53z M30,51h21V30H30V51z"/>
	</g>
</g>
<g>
</g>
<g>
</g>
<g>
</g>
<g>
</g>
<g>
</g>
<g>
</g>
<g>
</g>
<g>
</g>
<g>
</g>
<g>
</g>
<g>
</g>
<g>
</g>
<g>
</g>
<g>
</g>
<g>
</g>
</svg>
