<?xml version="1.0" encoding="iso-8859-1"?>
<!-- Generator: Adobe Illustrator 18.0.0, SVG Export Plug-In . SVG Version: 6.00 Build 0)  -->
<!DOCTYPE svg PUBLIC "-//W3C//DTD SVG 1.1//EN" "http://www.w3.org/Graphics/SVG/1.1/DTD/svg11.dtd">
<svg version="1.1" id="Capa_1" xmlns="http://www.w3.org/2000/svg" xmlns:xlink="http://www.w3.org/1999/xlink" x="0px" y="0px"
	 viewBox="0 0 57.806 57.806" style="enable-background:new 0 0 57.806 57.806;" xml:space="preserve">
<g>
	<path style="fill:#546A79;" d="M56.806,29.903H20.994c-0.553,0-1-0.447-1-1s0.447-1,1-1h35.812c0.553,0,1,0.447,1,1
		S57.358,29.903,56.806,29.903z"/>
	<path style="fill:#546A79;" d="M43.692,43.017c-0.256,0-0.512-0.098-0.707-0.293c-0.391-0.391-0.391-1.023,0-1.414l13.113-13.113
		c0.391-0.391,1.023-0.391,1.414,0s0.391,1.023,0,1.414L44.399,42.724C44.204,42.919,43.948,43.017,43.692,43.017z"/>
	<path style="fill:#546A79;" d="M56.806,29.903c-0.256,0-0.512-0.098-0.707-0.293L42.985,16.496c-0.391-0.391-0.391-1.023,0-1.414
		s1.023-0.391,1.414,0l13.113,13.114c0.391,0.391,0.391,1.023,0,1.414C57.317,29.806,57.062,29.903,56.806,29.903z"/>
	<g>
		<circle style="fill:#48A0DC;" cx="10.995" cy="28.903" r="10"/>
		<path style="fill:#48A0DC;" d="M10.994,39.902c-2.938,0-5.7-1.144-7.777-3.222c-4.289-4.289-4.289-11.267,0-15.556
			c2.077-2.078,4.84-3.222,7.777-3.222c2.938,0,5.701,1.144,7.778,3.222c2.078,2.077,3.222,4.84,3.222,7.777
			c0,2.938-1.144,5.701-3.222,7.778C16.695,38.759,13.933,39.902,10.994,39.902z M10.994,19.903c-2.403,0-4.663,0.936-6.363,2.636
			c-3.509,3.509-3.509,9.219,0,12.728c1.7,1.7,3.96,2.636,6.363,2.636c2.404,0,4.664-0.936,6.364-2.636s2.636-3.96,2.636-6.364
			c0-2.403-0.936-4.663-2.636-6.363S13.398,19.903,10.994,19.903z"/>
	</g>
</g>
<g>
</g>
<g>
</g>
<g>
</g>
<g>
</g>
<g>
</g>
<g>
</g>
<g>
</g>
<g>
</g>
<g>
</g>
<g>
</g>
<g>
</g>
<g>
</g>
<g>
</g>
<g>
</g>
<g>
</g>
</svg>
