<?xml version="1.0" encoding="iso-8859-1"?>
<!-- Generator: Adobe Illustrator 18.0.0, SVG Export Plug-In . SVG Version: 6.00 Build 0)  -->
<!DOCTYPE svg PUBLIC "-//W3C//DTD SVG 1.1//EN" "http://www.w3.org/Graphics/SVG/1.1/DTD/svg11.dtd">
<svg version="1.1" id="Capa_1" xmlns="http://www.w3.org/2000/svg" xmlns:xlink="http://www.w3.org/1999/xlink" x="0px" y="0px"
	 viewBox="0 0 59 59" style="enable-background:new 0 0 59 59;" xml:space="preserve">
<g>
	<path style="fill:#546A79;" d="M58,30.614H23c-0.553,0-1-0.447-1-1s0.447-1,1-1h35c0.553,0,1,0.447,1,1S58.553,30.614,58,30.614z"
		/>
	<path style="fill:#546A79;" d="M44.887,43.614c-0.258,0-0.515-0.099-0.71-0.296c-0.389-0.393-0.387-1.025,0.006-1.414l13.113-13
		c0.393-0.39,1.025-0.386,1.414,0.006c0.389,0.393,0.387,1.025-0.006,1.414l-13.113,13C45.396,43.517,45.142,43.614,44.887,43.614z"
		/>
	<path style="fill:#546A79;" d="M58,30.614c-0.258,0-0.515-0.099-0.71-0.296L44.177,17.09c-0.389-0.393-0.387-1.025,0.006-1.414
		c0.394-0.389,1.025-0.387,1.414,0.006L58.71,28.91c0.389,0.393,0.387,1.025-0.006,1.414C58.509,30.517,58.255,30.614,58,30.614z"/>
	<g>
		<rect x="1" y="18.614" style="fill:#48A0DC;" width="22" height="22"/>
		<path style="fill:#48A0DC;" d="M24,41.614H0v-24h24V41.614z M2,39.614h20v-20H2V39.614z"/>
	</g>
</g>
<g>
</g>
<g>
</g>
<g>
</g>
<g>
</g>
<g>
</g>
<g>
</g>
<g>
</g>
<g>
</g>
<g>
</g>
<g>
</g>
<g>
</g>
<g>
</g>
<g>
</g>
<g>
</g>
<g>
</g>
</svg>
