<?xml version="1.0" encoding="iso-8859-1"?>
<!-- Generator: Adobe Illustrator 18.0.0, SVG Export Plug-In . SVG Version: 6.00 Build 0)  -->
<!DOCTYPE svg PUBLIC "-//W3C//DTD SVG 1.1//EN" "http://www.w3.org/Graphics/SVG/1.1/DTD/svg11.dtd">
<svg version="1.1" id="Capa_1" xmlns="http://www.w3.org/2000/svg" xmlns:xlink="http://www.w3.org/1999/xlink" x="0px" y="0px"
	 viewBox="0 0 55 55" style="enable-background:new 0 0 55 55;" xml:space="preserve">
<g>
	<path style="fill:#546A79;" d="M18.071,37.929c-0.256,0-0.512-0.098-0.707-0.293c-0.391-0.391-0.391-1.023,0-1.414L53.293,0.293
		c0.391-0.391,1.023-0.391,1.414,0s0.391,1.023,0,1.414L18.778,37.636C18.583,37.831,18.327,37.929,18.071,37.929z"/>
	<path style="fill:#546A79;" d="M54,20.546c-0.553,0-1-0.447-1-1V1c0-0.553,0.447-1,1-1s1,0.447,1,1v18.546
		C55,20.099,54.553,20.546,54,20.546z"/>
	<path style="fill:#546A79;" d="M54,2H35.455c-0.552,0-1-0.447-1-1s0.448-1,1-1H54c0.553,0,1,0.447,1,1S54.553,2,54,2z"/>
	<g>
		<circle style="fill:#F18D46;" cx="11" cy="44" r="10"/>
		<path style="fill:#F18D46;" d="M11,55C4.935,55,0,50.065,0,44s4.935-11,11-11s11,4.935,11,11S17.065,55,11,55z M11,35
			c-4.962,0-9,4.037-9,9s4.038,9,9,9s9-4.037,9-9S15.962,35,11,35z"/>
	</g>
</g>
<g>
</g>
<g>
</g>
<g>
</g>
<g>
</g>
<g>
</g>
<g>
</g>
<g>
</g>
<g>
</g>
<g>
</g>
<g>
</g>
<g>
</g>
<g>
</g>
<g>
</g>
<g>
</g>
<g>
</g>
</svg>
