<?xml version="1.0" encoding="iso-8859-1"?>
<!-- Generator: Adobe Illustrator 18.0.0, SVG Export Plug-In . SVG Version: 6.00 Build 0)  -->
<!DOCTYPE svg PUBLIC "-//W3C//DTD SVG 1.1//EN" "http://www.w3.org/Graphics/SVG/1.1/DTD/svg11.dtd">
<svg version="1.1" id="Capa_1" xmlns="http://www.w3.org/2000/svg" xmlns:xlink="http://www.w3.org/1999/xlink" x="0px" y="0px"
	 viewBox="0 0 55 55" style="enable-background:new 0 0 55 55;" xml:space="preserve">
<g>
	<path style="fill:#546A79;" d="M36.929,37.929c-0.256,0-0.512-0.098-0.707-0.293L0.293,1.707c-0.391-0.391-0.391-1.023,0-1.414
		s1.023-0.391,1.414,0l35.929,35.929c0.391,0.391,0.391,1.023,0,1.414C37.44,37.831,37.185,37.929,36.929,37.929z"/>
	<path style="fill:#546A79;" d="M19.546,2H1C0.447,2,0,1.553,0,1s0.447-1,1-1h18.546c0.553,0,1,0.447,1,1S20.099,2,19.546,2z"/>
	<path style="fill:#546A79;" d="M1,20.546c-0.553,0-1-0.447-1-1V1c0-0.553,0.447-1,1-1s1,0.447,1,1v18.546
		C2,20.099,1.553,20.546,1,20.546z"/>
	<g>
		<circle style="fill:#F18D46;" cx="44" cy="44" r="10"/>
		<path style="fill:#F18D46;" d="M44,55c-6.065,0-11-4.935-11-11s4.935-11,11-11s11,4.935,11,11S50.065,55,44,55z M44,35
			c-4.963,0-9,4.037-9,9s4.037,9,9,9s9-4.037,9-9S48.963,35,44,35z"/>
	</g>
</g>
<g>
</g>
<g>
</g>
<g>
</g>
<g>
</g>
<g>
</g>
<g>
</g>
<g>
</g>
<g>
</g>
<g>
</g>
<g>
</g>
<g>
</g>
<g>
</g>
<g>
</g>
<g>
</g>
<g>
</g>
</svg>
