<?xml version="1.0" encoding="iso-8859-1"?>
<!-- Generator: Adobe Illustrator 18.0.0, SVG Export Plug-In . SVG Version: 6.00 Build 0)  -->
<!DOCTYPE svg PUBLIC "-//W3C//DTD SVG 1.1//EN" "http://www.w3.org/Graphics/SVG/1.1/DTD/svg11.dtd">
<svg version="1.1" id="Capa_1" xmlns="http://www.w3.org/2000/svg" xmlns:xlink="http://www.w3.org/1999/xlink" x="0px" y="0px"
	 viewBox="0 0 55 55" style="enable-background:new 0 0 55 55;" xml:space="preserve">
<g>
	<path style="fill:#546A79;" d="M1,55c-0.256,0-0.512-0.098-0.707-0.293c-0.391-0.391-0.391-1.023,0-1.414l35.929-35.929
		c0.391-0.391,1.023-0.391,1.414,0s0.391,1.023,0,1.414L1.707,54.707C1.512,54.902,1.256,55,1,55z"/>
	<path style="fill:#546A79;" d="M1,55c-0.553,0-1-0.447-1-1V35.454c0-0.553,0.447-1,1-1s1,0.447,1,1V54C2,54.553,1.553,55,1,55z"/>
	<path style="fill:#546A79;" d="M19.546,55H1c-0.553,0-1-0.447-1-1s0.447-1,1-1h18.546c0.553,0,1,0.447,1,1S20.099,55,19.546,55z"/>
	<g>
		<circle style="fill:#F18D46;" cx="44" cy="11" r="10"/>
		<path style="fill:#F18D46;" d="M44,22c-6.065,0-11-4.935-11-11S37.935,0,44,0s11,4.935,11,11S50.065,22,44,22z M44,2
			c-4.963,0-9,4.037-9,9s4.037,9,9,9s9-4.037,9-9S48.963,2,44,2z"/>
	</g>
</g>
<g>
</g>
<g>
</g>
<g>
</g>
<g>
</g>
<g>
</g>
<g>
</g>
<g>
</g>
<g>
</g>
<g>
</g>
<g>
</g>
<g>
</g>
<g>
</g>
<g>
</g>
<g>
</g>
<g>
</g>
</svg>
