<?xml version="1.0" encoding="iso-8859-1"?>
<!-- Generator: Adobe Illustrator 18.0.0, SVG Export Plug-In . SVG Version: 6.00 Build 0)  -->
<!DOCTYPE svg PUBLIC "-//W3C//DTD SVG 1.1//EN" "http://www.w3.org/Graphics/SVG/1.1/DTD/svg11.dtd">
<svg version="1.1" id="Capa_1" xmlns="http://www.w3.org/2000/svg" xmlns:xlink="http://www.w3.org/1999/xlink" x="0px" y="0px"
	 viewBox="0 0 53 53" style="enable-background:new 0 0 53 53;" xml:space="preserve">
<g>
	<path style="fill:#26B99A;" d="M1,53c-0.256,0-0.512-0.098-0.707-0.293c-0.391-0.391-0.391-1.023,0-1.414l51-51
		c0.391-0.391,1.023-0.391,1.414,0s0.391,1.023,0,1.414l-51,51C1.512,52.902,1.256,53,1,53z"/>
	<path style="fill:#26B99A;" d="M52,53c-0.256,0-0.512-0.098-0.707-0.293l-51-51c-0.391-0.391-0.391-1.023,0-1.414
		s1.023-0.391,1.414,0l51,51c0.391,0.391,0.391,1.023,0,1.414C52.512,52.902,52.256,53,52,53z"/>
	<path style="fill:#26B99A;" d="M13,2H1C0.448,2,0,1.552,0,1s0.448-1,1-1h12c0.552,0,1,0.448,1,1S13.552,2,13,2z"/>
	<path style="fill:#26B99A;" d="M1,14c-0.552,0-1-0.448-1-1V1c0-0.552,0.448-1,1-1s1,0.448,1,1v12C2,13.552,1.552,14,1,14z"/>
	<path style="fill:#26B99A;" d="M52,53H40c-0.552,0-1-0.448-1-1s0.448-1,1-1h12c0.552,0,1,0.448,1,1S52.552,53,52,53z"/>
	<path style="fill:#26B99A;" d="M52,53c-0.552,0-1-0.448-1-1V40c0-0.552,0.448-1,1-1s1,0.448,1,1v12C53,52.552,52.552,53,52,53z"/>
	<path style="fill:#26B99A;" d="M1,53c-0.552,0-1-0.448-1-1V40c0-0.552,0.448-1,1-1s1,0.448,1,1v12C2,52.552,1.552,53,1,53z"/>
	<path style="fill:#26B99A;" d="M13,53H1c-0.552,0-1-0.448-1-1s0.448-1,1-1h12c0.552,0,1,0.448,1,1S13.552,53,13,53z"/>
	<path style="fill:#26B99A;" d="M52,14c-0.552,0-1-0.448-1-1V1c0-0.552,0.448-1,1-1s1,0.448,1,1v12C53,13.552,52.552,14,52,14z"/>
	<path style="fill:#26B99A;" d="M52,2H40c-0.552,0-1-0.448-1-1s0.448-1,1-1h12c0.552,0,1,0.448,1,1S52.552,2,52,2z"/>
</g>
<g>
</g>
<g>
</g>
<g>
</g>
<g>
</g>
<g>
</g>
<g>
</g>
<g>
</g>
<g>
</g>
<g>
</g>
<g>
</g>
<g>
</g>
<g>
</g>
<g>
</g>
<g>
</g>
<g>
</g>
</svg>
