<?xml version="1.0" encoding="iso-8859-1"?>
<!-- Generator: Adobe Illustrator 18.0.0, SVG Export Plug-In . SVG Version: 6.00 Build 0)  -->
<!DOCTYPE svg PUBLIC "-//W3C//DTD SVG 1.1//EN" "http://www.w3.org/Graphics/SVG/1.1/DTD/svg11.dtd">
<svg version="1.1" id="Capa_1" xmlns="http://www.w3.org/2000/svg" xmlns:xlink="http://www.w3.org/1999/xlink" x="0px" y="0px"
	 viewBox="0 0 60 60" style="enable-background:new 0 0 60 60;" xml:space="preserve">
<g>
	<g>
		<circle style="fill:#F29C1F;" cx="30" cy="30" r="26"/>
		<path style="fill:#F29C1F;" d="M30,57C15.112,57,3,44.888,3,30S15.112,3,30,3s27,12.112,27,27S44.888,57,30,57z M30,5
			C16.215,5,5,16.215,5,30s11.215,25,25,25s25-11.215,25-25S43.785,5,30,5z"/>
	</g>
	<path style="fill:#F3D55B;" d="M1,60c-0.256,0-0.512-0.098-0.707-0.293c-0.391-0.391-0.391-1.023,0-1.414l17-17
		c0.391-0.391,1.023-0.391,1.414,0s0.391,1.023,0,1.414l-17,17C1.512,59.902,1.256,60,1,60z"/>
	<polygon style="fill:#F3D55B;" points="15.143,60 0,60 0,44.857 2,44.857 2,58 15.143,58 	"/>
	<path style="fill:#F3D55B;" d="M42,19c-0.256,0-0.512-0.098-0.707-0.293c-0.391-0.391-0.391-1.023,0-1.414l17-17
		c0.391-0.391,1.023-0.391,1.414,0s0.391,1.023,0,1.414l-17,17C42.512,18.902,42.256,19,42,19z"/>
	<polygon style="fill:#F3D55B;" points="60,15.143 58,15.143 58,2 44.857,2 44.857,0 60,0 	"/>
	<g>
		<circle style="fill:#E64C3C;" cx="30" cy="30" r="10"/>
		<path style="fill:#E64C3C;" d="M30,41c-6.065,0-11-4.935-11-11s4.935-11,11-11s11,4.935,11,11S36.065,41,30,41z M30,21
			c-4.963,0-9,4.037-9,9s4.037,9,9,9s9-4.037,9-9S34.963,21,30,21z"/>
	</g>
</g>
<g>
</g>
<g>
</g>
<g>
</g>
<g>
</g>
<g>
</g>
<g>
</g>
<g>
</g>
<g>
</g>
<g>
</g>
<g>
</g>
<g>
</g>
<g>
</g>
<g>
</g>
<g>
</g>
<g>
</g>
</svg>
