<?xml version="1.0" encoding="iso-8859-1"?>
<!-- Generator: Adobe Illustrator 18.0.0, SVG Export Plug-In . SVG Version: 6.00 Build 0)  -->
<!DOCTYPE svg PUBLIC "-//W3C//DTD SVG 1.1//EN" "http://www.w3.org/Graphics/SVG/1.1/DTD/svg11.dtd">
<svg version="1.1" id="Capa_1" xmlns="http://www.w3.org/2000/svg" xmlns:xlink="http://www.w3.org/1999/xlink" x="0px" y="0px"
	 viewBox="0 0 53 53" style="enable-background:new 0 0 53 53;" xml:space="preserve">
<g>
	<path style="fill:#26B99A;" d="M34,20c-0.256,0-0.512-0.098-0.707-0.293c-0.391-0.391-0.391-1.023,0-1.414l18-18
		c0.391-0.391,1.023-0.391,1.414,0s0.391,1.023,0,1.414l-18,18C34.512,19.902,34.256,20,34,20z"/>
	<path style="fill:#26B99A;" d="M1,53c-0.256,0-0.512-0.098-0.707-0.293c-0.391-0.391-0.391-1.023,0-1.414l18-18
		c0.391-0.391,1.023-0.391,1.414,0s0.391,1.023,0,1.414l-18,18C1.512,52.902,1.256,53,1,53z"/>
	<path style="fill:#26B99A;" d="M52,53c-0.256,0-0.512-0.098-0.707-0.293l-18-18c-0.391-0.391-0.391-1.023,0-1.414
		s1.023-0.391,1.414,0l18,18c0.391,0.391,0.391,1.023,0,1.414C52.512,52.902,52.256,53,52,53z"/>
	<path style="fill:#26B99A;" d="M18.999,19.999c-0.256,0-0.512-0.098-0.707-0.293L0.293,1.707c-0.391-0.391-0.391-1.023,0-1.414
		s1.023-0.391,1.414,0l17.999,17.999c0.391,0.391,0.391,1.023,0,1.414C19.511,19.901,19.255,19.999,18.999,19.999z"/>
	<path style="fill:#26B99A;" d="M18.999,19.999h-12c-0.553,0-1-0.448-1-1s0.447-1,1-1h12c0.553,0,1,0.448,1,1
		S19.552,19.999,18.999,19.999z"/>
	<path style="fill:#26B99A;" d="M18.999,19.999c-0.553,0-1-0.448-1-1v-12c0-0.552,0.447-1,1-1s1,0.448,1,1v12
		C19.999,19.551,19.552,19.999,18.999,19.999z"/>
	<path style="fill:#26B99A;" d="M46,35H34c-0.553,0-1-0.448-1-1s0.447-1,1-1h12c0.553,0,1,0.448,1,1S46.553,35,46,35z"/>
	<path style="fill:#26B99A;" d="M34,47c-0.553,0-1-0.448-1-1V34c0-0.552,0.447-1,1-1s1,0.448,1,1v12C35,46.552,34.553,47,34,47z"/>
	<path style="fill:#26B99A;" d="M19,47c-0.553,0-1-0.448-1-1V34c0-0.552,0.447-1,1-1s1,0.448,1,1v12C20,46.552,19.553,47,19,47z"/>
	<path style="fill:#26B99A;" d="M19,35H7c-0.553,0-1-0.448-1-1s0.447-1,1-1h12c0.553,0,1,0.448,1,1S19.553,35,19,35z"/>
	<path style="fill:#26B99A;" d="M34,20c-0.553,0-1-0.448-1-1V7c0-0.552,0.447-1,1-1s1,0.448,1,1v12C35,19.552,34.553,20,34,20z"/>
	<path style="fill:#26B99A;" d="M46,20H34c-0.553,0-1-0.448-1-1s0.447-1,1-1h12c0.553,0,1,0.448,1,1S46.553,20,46,20z"/>
	<g>
		<rect x="22" y="22" style="fill:#B1E97C;" width="9" height="9"/>
		<path style="fill:#B1E97C;" d="M32,32H21V21h11V32z M23,30h7v-7h-7V30z"/>
	</g>
</g>
<g>
</g>
<g>
</g>
<g>
</g>
<g>
</g>
<g>
</g>
<g>
</g>
<g>
</g>
<g>
</g>
<g>
</g>
<g>
</g>
<g>
</g>
<g>
</g>
<g>
</g>
<g>
</g>
<g>
</g>
</svg>
