<?xml version="1.0" encoding="iso-8859-1"?>
<!-- Generator: Adobe Illustrator 18.0.0, SVG Export Plug-In . SVG Version: 6.00 Build 0)  -->
<!DOCTYPE svg PUBLIC "-//W3C//DTD SVG 1.1//EN" "http://www.w3.org/Graphics/SVG/1.1/DTD/svg11.dtd">
<svg version="1.1" id="Capa_1" xmlns="http://www.w3.org/2000/svg" xmlns:xlink="http://www.w3.org/1999/xlink" x="0px" y="0px"
	 viewBox="0 0 54 54" style="enable-background:new 0 0 54 54;" xml:space="preserve">
<g>
	<g>
		<circle style="fill:#CC66A1;" cx="24" cy="27" r="23"/>
		<path style="fill:#CC66A1;" d="M24,51C10.767,51,0,40.233,0,27S10.767,3,24,3s24,10.767,24,24S37.233,51,24,51z M24,5
			C11.869,5,2,14.869,2,27s9.869,22,22,22s22-9.869,22-22S36.131,5,24,5z"/>
	</g>
	<path style="fill:#99527E;" d="M53,39H22c-0.553,0-1-0.447-1-1s0.447-1,1-1h31c0.553,0,1,0.447,1,1S53.553,39,53,39z"/>
	<path style="fill:#99527E;" d="M28,45c-0.256,0-0.512-0.098-0.707-0.293l-6-6c-0.391-0.391-0.391-1.023,0-1.414
		s1.023-0.391,1.414,0l6,6c0.391,0.391,0.391,1.023,0,1.414C28.512,44.902,28.256,45,28,45z"/>
	<path style="fill:#99527E;" d="M22,39c-0.256,0-0.512-0.098-0.707-0.293c-0.391-0.391-0.391-1.023,0-1.414l6-6
		c0.391-0.391,1.023-0.391,1.414,0s0.391,1.023,0,1.414l-6,6C22.512,38.902,22.256,39,22,39z"/>
	<path style="fill:#99527E;" d="M53,19H22c-0.553,0-1-0.447-1-1s0.447-1,1-1h31c0.553,0,1,0.447,1,1S53.553,19,53,19z"/>
	<path style="fill:#99527E;" d="M28,25c-0.256,0-0.512-0.098-0.707-0.293l-6-6c-0.391-0.391-0.391-1.023,0-1.414
		s1.023-0.391,1.414,0l6,6c0.391,0.391,0.391,1.023,0,1.414C28.512,24.902,28.256,25,28,25z"/>
	<path style="fill:#99527E;" d="M22,19c-0.256,0-0.512-0.098-0.707-0.293c-0.391-0.391-0.391-1.023,0-1.414l6-6
		c0.391-0.391,1.023-0.391,1.414,0s0.391,1.023,0,1.414l-6,6C22.512,18.902,22.256,19,22,19z"/>
</g>
<g>
</g>
<g>
</g>
<g>
</g>
<g>
</g>
<g>
</g>
<g>
</g>
<g>
</g>
<g>
</g>
<g>
</g>
<g>
</g>
<g>
</g>
<g>
</g>
<g>
</g>
<g>
</g>
<g>
</g>
</svg>
