<?xml version="1.0" encoding="iso-8859-1"?>
<!-- Generator: Adobe Illustrator 18.0.0, SVG Export Plug-In . SVG Version: 6.00 Build 0)  -->
<!DOCTYPE svg PUBLIC "-//W3C//DTD SVG 1.1//EN" "http://www.w3.org/Graphics/SVG/1.1/DTD/svg11.dtd">
<svg version="1.1" id="Capa_1" xmlns="http://www.w3.org/2000/svg" xmlns:xlink="http://www.w3.org/1999/xlink" x="0px" y="0px"
	 viewBox="0 0 54 54" style="enable-background:new 0 0 54 54;" xml:space="preserve">
<g>
	<g>
		<path style="fill:#88C057;" d="M27,1L27,1c14.359,0,26,11.641,26,26v0c0,14.359-11.641,26-26,26h0C12.641,53,1,41.359,1,27v0
			C1,12.641,12.641,1,27,1z"/>
		<path style="fill:#88C057;" d="M27,54C12.112,54,0,41.888,0,27S12.112,0,27,0s27,12.112,27,27S41.888,54,27,54z M27,2
			C13.215,2,2,13.215,2,27s11.215,25,25,25s25-11.215,25-25S40.785,2,27,2z"/>
	</g>
	<g>
		<path style="fill:#FFFFFF;" d="M17.856,25.983l15.101-8.719C33.421,16.996,34,17.331,34,17.866v17.437
			c0,0.535-0.579,0.87-1.043,0.602l-15.101-8.719C17.392,26.919,17.392,26.25,17.856,25.983z"/>
		<path style="fill:#FFFFFF;" d="M33.304,37c-0.295,0-0.588-0.078-0.847-0.228l-15.102-8.719c-0.53-0.307-0.848-0.855-0.848-1.469
			s0.317-1.162,0.848-1.469l15.102-8.719c0.259-0.149,0.552-0.228,0.847-0.228c0.936,0,1.696,0.761,1.696,1.696v17.438
			C35,36.239,34.239,37,33.304,37z M18.812,26.585L33,34.776V18.394L18.812,26.585z"/>
	</g>
</g>
<g>
</g>
<g>
</g>
<g>
</g>
<g>
</g>
<g>
</g>
<g>
</g>
<g>
</g>
<g>
</g>
<g>
</g>
<g>
</g>
<g>
</g>
<g>
</g>
<g>
</g>
<g>
</g>
<g>
</g>
</svg>
