<?xml version="1.0" encoding="iso-8859-1"?>
<!-- Generator: Adobe Illustrator 18.0.0, SVG Export Plug-In . SVG Version: 6.00 Build 0)  -->
<!DOCTYPE svg PUBLIC "-//W3C//DTD SVG 1.1//EN" "http://www.w3.org/Graphics/SVG/1.1/DTD/svg11.dtd">
<svg version="1.1" id="Capa_1" xmlns="http://www.w3.org/2000/svg" xmlns:xlink="http://www.w3.org/1999/xlink" x="0px" y="0px"
	 viewBox="0 0 54 54" style="enable-background:new 0 0 54 54;" xml:space="preserve">
<g>
	<g>
		<path style="fill:#0096E6;" d="M4.783,1h44.435C51.306,1,53,2.694,53,4.783v44.435C53,51.306,51.306,53,49.217,53H4.783
			C2.694,53,1,51.306,1,49.217V4.783C1,2.694,2.694,1,4.783,1z"/>
		<path style="fill:#0096E6;" d="M49.217,54H4.783C2.146,54,0,51.854,0,49.218V4.783C0,2.146,2.146,0,4.783,0h44.435
			C51.854,0,54,2.146,54,4.782v44.435C54,51.854,51.854,54,49.217,54z M4.783,2C3.249,2,2,3.249,2,4.783v44.435
			C2,50.752,3.249,52,4.783,52h44.435C50.751,52,52,50.751,52,49.217V4.782C52,3.248,50.751,2,49.217,2H4.783z"/>
	</g>
	<g>
		<path style="fill:#FFFFFF;" d="M14.456,26.159l21.087-12.175C36.191,13.611,37,14.078,37,14.825v24.349
			c0,0.747-0.809,1.215-1.456,0.841L14.456,27.841C13.809,27.467,13.809,26.533,14.456,26.159z"/>
		<path style="fill:#FFFFFF;" d="M36.027,41.147c-0.343,0-0.683-0.092-0.984-0.266L13.957,28.707
			c-0.617-0.356-0.986-0.995-0.985-1.707c0-0.712,0.368-1.351,0.985-1.707l21.087-12.175c0.301-0.174,0.641-0.266,0.984-0.266
			c1.088,0,1.973,0.885,1.973,1.973v24.35C38,40.263,37.115,41.147,36.027,41.147z M36,14.825l-21.043,12.2L36,39.125V14.825z"/>
	</g>
</g>
<g>
</g>
<g>
</g>
<g>
</g>
<g>
</g>
<g>
</g>
<g>
</g>
<g>
</g>
<g>
</g>
<g>
</g>
<g>
</g>
<g>
</g>
<g>
</g>
<g>
</g>
<g>
</g>
<g>
</g>
</svg>
