<?xml version="1.0" encoding="iso-8859-1"?>
<!-- Generator: Adobe Illustrator 18.0.0, SVG Export Plug-In . SVG Version: 6.00 Build 0)  -->
<!DOCTYPE svg PUBLIC "-//W3C//DTD SVG 1.1//EN" "http://www.w3.org/Graphics/SVG/1.1/DTD/svg11.dtd">
<svg version="1.1" id="Capa_1" xmlns="http://www.w3.org/2000/svg" xmlns:xlink="http://www.w3.org/1999/xlink" x="0px" y="0px"
	 viewBox="0 0 60 60" style="enable-background:new 0 0 60 60;" xml:space="preserve">
<g>
	<path style="fill:#546A79;" d="M20,31H1c-0.552,0-1-0.447-1-1s0.448-1,1-1h19c0.552,0,1,0.447,1,1S20.552,31,20,31z"/>
	<path style="fill:#546A79;" d="M28,31h-9c-0.552,0-1-0.447-1-1s0.448-1,1-1h9c0.552,0,1,0.447,1,1S28.552,31,28,31z"/>
	<path style="fill:#546A79;" d="M20,31c-0.256,0-0.512-0.098-0.707-0.293l-9-9c-0.391-0.391-0.391-1.023,0-1.414
		s1.023-0.391,1.414,0l9,9c0.391,0.391,0.391,1.023,0,1.414C20.512,30.902,20.256,31,20,31z"/>
	<path style="fill:#546A79;" d="M11,40c-0.256,0-0.512-0.098-0.707-0.293c-0.391-0.391-0.391-1.023,0-1.414l9-9
		c0.391-0.391,1.023-0.391,1.414,0s0.391,1.023,0,1.414l-9,9C11.512,39.902,11.256,40,11,40z"/>
	<path style="fill:#546A79;" d="M59,16c-0.256,0-0.512-0.098-0.707-0.293l-9-9c-0.391-0.391-0.391-1.023,0-1.414
		s1.023-0.391,1.414,0l9,9c0.391,0.391,0.391,1.023,0,1.414C59.512,15.902,59.256,16,59,16z"/>
	<path style="fill:#546A79;" d="M50,25c-0.256,0-0.512-0.098-0.707-0.293c-0.391-0.391-0.391-1.023,0-1.414l9-9
		c0.391-0.391,1.023-0.391,1.414,0s0.391,1.023,0,1.414l-9,9C50.512,24.902,50.256,25,50,25z"/>
	<path style="fill:#546A79;" d="M59,46c-0.256,0-0.512-0.098-0.707-0.293l-9-9c-0.391-0.391-0.391-1.023,0-1.414
		s1.023-0.391,1.414,0l9,9c0.391,0.391,0.391,1.023,0,1.414C59.512,45.902,59.256,46,59,46z"/>
	<path style="fill:#546A79;" d="M50,55c-0.256,0-0.512-0.098-0.707-0.293c-0.391-0.391-0.391-1.023,0-1.414l9-9
		c0.391-0.391,1.023-0.391,1.414,0s0.391,1.023,0,1.414l-9,9C50.512,54.902,50.256,55,50,55z"/>
	<path style="fill:#546A79;" d="M59,46h-2c-0.552,0-1-0.447-1-1s0.448-1,1-1h2c0.552,0,1,0.447,1,1S59.552,46,59,46z M53,46h-2
		c-0.552,0-1-0.447-1-1s0.448-1,1-1h2c0.552,0,1,0.447,1,1S53.552,46,53,46z M47,46h-2c-0.552,0-1-0.447-1-1s0.448-1,1-1h2
		c0.552,0,1,0.447,1,1S47.552,46,47,46z M41.008,45.869c-0.044,0-0.089-0.003-0.133-0.009c-0.701-0.093-1.403-0.234-2.088-0.421
		c-0.533-0.145-0.848-0.693-0.704-1.227c0.145-0.532,0.696-0.852,1.227-0.703c0.6,0.162,1.215,0.286,1.829,0.368
		c0.547,0.073,0.932,0.576,0.859,1.123C41.931,45.504,41.501,45.869,41.008,45.869z M35.375,43.92c-0.173,0-0.348-0.045-0.508-0.139
		c-0.609-0.36-1.201-0.767-1.759-1.206c-0.434-0.342-0.508-0.971-0.166-1.404c0.342-0.434,0.972-0.507,1.404-0.166
		c0.488,0.385,1.005,0.739,1.538,1.054c0.476,0.281,0.633,0.895,0.352,1.37C36.05,43.744,35.717,43.92,35.375,43.92z M30.949,39.931
		c-0.306,0-0.607-0.14-0.804-0.403c-0.423-0.57-0.812-1.173-1.154-1.793c-0.267-0.483-0.091-1.092,0.392-1.358
		c0.482-0.269,1.091-0.093,1.359,0.392c0.299,0.541,0.638,1.068,1.008,1.566c0.33,0.443,0.237,1.07-0.207,1.399
		C31.365,39.866,31.156,39.931,30.949,39.931z M28.418,34.537c-0.451,0-0.861-0.308-0.971-0.766c-0.166-0.688-0.287-1.395-0.361-2.1
		c-0.057-0.549,0.342-1.041,0.891-1.098c0.543-0.062,1.041,0.341,1.098,0.891c0.064,0.617,0.17,1.235,0.316,1.838
		c0.129,0.537-0.201,1.077-0.738,1.206C28.575,34.528,28.496,34.537,28.418,34.537z M28.195,28.583
		c-0.053,0-0.106-0.004-0.161-0.013c-0.545-0.088-0.916-0.602-0.828-1.147c0.113-0.698,0.275-1.396,0.481-2.076
		c0.16-0.528,0.721-0.824,1.247-0.667c0.529,0.16,0.827,0.719,0.667,1.247c-0.18,0.595-0.322,1.206-0.42,1.816
		C29.102,28.233,28.677,28.583,28.195,28.583z M30.302,23.011c-0.182,0-0.367-0.05-0.532-0.154
		c-0.467-0.294-0.607-0.912-0.313-1.379c0.378-0.6,0.8-1.18,1.254-1.724c0.354-0.425,0.984-0.48,1.408-0.127
		s0.481,0.984,0.127,1.408c-0.397,0.477-0.767,0.983-1.098,1.509C30.958,22.846,30.634,23.011,30.302,23.011z M34.417,18.697
		c-0.315,0-0.626-0.148-0.82-0.427c-0.316-0.452-0.207-1.076,0.246-1.393c0.582-0.407,1.196-0.778,1.823-1.103
		c0.492-0.253,1.094-0.061,1.348,0.43c0.253,0.491,0.061,1.094-0.43,1.348c-0.549,0.283-1.085,0.607-1.595,0.964
		C34.815,18.639,34.615,18.697,34.417,18.697z M39.879,16.324c-0.462,0-0.877-0.322-0.977-0.793c-0.115-0.54,0.23-1.07,0.771-1.186
		c0.69-0.146,1.4-0.247,2.11-0.301c0.558-0.036,1.031,0.371,1.072,0.922c0.042,0.551-0.371,1.031-0.922,1.072
		c-0.622,0.047-1.243,0.136-1.846,0.264C40.018,16.317,39.948,16.324,39.879,16.324z M59,16h-1.143c-0.552,0-1-0.447-1-1
		s0.448-1,1-1H59c0.552,0,1,0.447,1,1S59.552,16,59,16z M53.857,16h-2c-0.552,0-1-0.447-1-1s0.448-1,1-1h2c0.552,0,1,0.447,1,1
		S54.409,16,53.857,16z M47.857,16h-2c-0.552,0-1-0.447-1-1s0.448-1,1-1h2c0.552,0,1,0.447,1,1S48.409,16,47.857,16z"/>
	<g>
		<circle style="fill:#F3D55B;" cx="40" cy="30" r="8"/>
		<path style="fill:#F3D55B;" d="M40,39c-4.962,0-9-4.037-9-9s4.038-9,9-9s9,4.037,9,9S44.962,39,40,39z M40,23c-3.86,0-7,3.141-7,7
			s3.14,7,7,7s7-3.141,7-7S43.86,23,40,23z"/>
	</g>
</g>
<g>
</g>
<g>
</g>
<g>
</g>
<g>
</g>
<g>
</g>
<g>
</g>
<g>
</g>
<g>
</g>
<g>
</g>
<g>
</g>
<g>
</g>
<g>
</g>
<g>
</g>
<g>
</g>
<g>
</g>
</svg>
