<?xml version="1.0" encoding="iso-8859-1"?>
<!-- Generator: Adobe Illustrator 18.0.0, SVG Export Plug-In . SVG Version: 6.00 Build 0)  -->
<!DOCTYPE svg PUBLIC "-//W3C//DTD SVG 1.1//EN" "http://www.w3.org/Graphics/SVG/1.1/DTD/svg11.dtd">
<svg version="1.1" id="Capa_1" xmlns="http://www.w3.org/2000/svg" xmlns:xlink="http://www.w3.org/1999/xlink" x="0px" y="0px"
	 viewBox="0 0 60 60" style="enable-background:new 0 0 60 60;" xml:space="preserve">
<g>
	<path style="fill:#546A79;" d="M20,31H1c-0.552,0-1-0.447-1-1s0.448-1,1-1h19c0.552,0,1,0.447,1,1S20.552,31,20,31z"/>
	<path style="fill:#546A79;" d="M28,31h-9c-0.552,0-1-0.447-1-1s0.448-1,1-1h9c0.552,0,1,0.447,1,1S28.552,31,28,31z"/>
	<path style="fill:#546A79;" d="M20,31c-0.256,0-0.512-0.098-0.707-0.293l-9-9c-0.391-0.391-0.391-1.023,0-1.414
		s1.023-0.391,1.414,0l9,9c0.391,0.391,0.391,1.023,0,1.414C20.512,30.902,20.256,31,20,31z"/>
	<path style="fill:#546A79;" d="M11,40c-0.256,0-0.512-0.098-0.707-0.293c-0.391-0.391-0.391-1.023,0-1.414l9-9
		c0.391-0.391,1.023-0.391,1.414,0s0.391,1.023,0,1.414l-9,9C11.512,39.902,11.256,40,11,40z"/>
	<path style="fill:#546A79;" d="M59,16c-0.256,0-0.512-0.098-0.707-0.293l-9-9c-0.391-0.391-0.391-1.023,0-1.414
		s1.023-0.391,1.414,0l9,9c0.391,0.391,0.391,1.023,0,1.414C59.512,15.902,59.256,16,59,16z"/>
	<path style="fill:#546A79;" d="M50,25c-0.256,0-0.512-0.098-0.707-0.293c-0.391-0.391-0.391-1.023,0-1.414l9-9
		c0.391-0.391,1.023-0.391,1.414,0s0.391,1.023,0,1.414l-9,9C50.512,24.902,50.256,25,50,25z"/>
	<path style="fill:#546A79;" d="M59,46c-0.256,0-0.512-0.098-0.707-0.293l-9-9c-0.391-0.391-0.391-1.023,0-1.414
		s1.023-0.391,1.414,0l9,9c0.391,0.391,0.391,1.023,0,1.414C59.512,45.902,59.256,46,59,46z"/>
	<path style="fill:#546A79;" d="M50,55c-0.256,0-0.512-0.098-0.707-0.293c-0.391-0.391-0.391-1.023,0-1.414l9-9
		c0.391-0.391,1.023-0.391,1.414,0s0.391,1.023,0,1.414l-9,9C50.512,54.902,50.256,55,50,55z"/>
	<path style="fill:#546A79;" d="M59,46h-2c-0.552,0-1-0.447-1-1s0.448-1,1-1h2c0.552,0,1,0.447,1,1S59.552,46,59,46z M53,46h-2
		c-0.552,0-1-0.447-1-1s0.448-1,1-1h2c0.552,0,1,0.447,1,1S53.552,46,53,46z M47,46h-2c-0.552,0-1-0.447-1-1s0.448-1,1-1h2
		c0.552,0,1,0.447,1,1S47.552,46,47,46z M41,46h-2c-0.552,0-1-0.447-1-1s0.448-1,1-1h2c0.552,0,1,0.447,1,1S41.552,46,41,46z M35,46
		h-2c-0.552,0-1-0.447-1-1s0.448-1,1-1h2c0.552,0,1,0.447,1,1S35.552,46,35,46z M29,46h-2v-2c0-0.553,0.448-1,1-1s1,0.447,1,1
		c0.552,0,1,0.447,1,1S29.552,46,29,46z M28,41c-0.552,0-1-0.447-1-1v-2c0-0.553,0.448-1,1-1s1,0.447,1,1v2
		C29,40.553,28.552,41,28,41z M28,35c-0.552,0-1-0.447-1-1v-2c0-0.553,0.448-1,1-1s1,0.447,1,1v2C29,34.553,28.552,35,28,35z M28,29
		c-0.552,0-1-0.447-1-1v-2c0-0.553,0.448-1,1-1s1,0.447,1,1v2C29,28.553,28.552,29,28,29z M28,23c-0.552,0-1-0.447-1-1v-2
		c0-0.553,0.448-1,1-1s1,0.447,1,1v2C29,22.553,28.552,23,28,23z M28,17c-0.552,0-1-0.447-1-1v-2h2c0.552,0,1,0.447,1,1
		s-0.448,1-1,1C29,16.553,28.552,17,28,17z M59,16h-2c-0.552,0-1-0.447-1-1s0.448-1,1-1h2c0.552,0,1,0.447,1,1S59.552,16,59,16z
		 M53,16h-2c-0.552,0-1-0.447-1-1s0.448-1,1-1h2c0.552,0,1,0.447,1,1S53.552,16,53,16z M47,16h-2c-0.552,0-1-0.447-1-1s0.448-1,1-1
		h2c0.552,0,1,0.447,1,1S47.552,16,47,16z M41,16h-2c-0.552,0-1-0.447-1-1s0.448-1,1-1h2c0.552,0,1,0.447,1,1S41.552,16,41,16z
		 M35,16h-2c-0.552,0-1-0.447-1-1s0.448-1,1-1h2c0.552,0,1,0.447,1,1S35.552,16,35,16z"/>
	<g>
		<rect x="33" y="21" style="fill:#F3D55B;" width="10" height="18"/>
		<path style="fill:#F3D55B;" d="M44,40H32V20h12V40z M34,38h8V22h-8V38z"/>
	</g>
</g>
<g>
</g>
<g>
</g>
<g>
</g>
<g>
</g>
<g>
</g>
<g>
</g>
<g>
</g>
<g>
</g>
<g>
</g>
<g>
</g>
<g>
</g>
<g>
</g>
<g>
</g>
<g>
</g>
<g>
</g>
</svg>
