<?xml version="1.0" encoding="iso-8859-1"?>
<!-- Generator: Adobe Illustrator 18.0.0, SVG Export Plug-In . SVG Version: 6.00 Build 0)  -->
<!DOCTYPE svg PUBLIC "-//W3C//DTD SVG 1.1//EN" "http://www.w3.org/Graphics/SVG/1.1/DTD/svg11.dtd">
<svg version="1.1" id="Capa_1" xmlns="http://www.w3.org/2000/svg" xmlns:xlink="http://www.w3.org/1999/xlink" x="0px" y="0px"
	 viewBox="0 0 53 53" style="enable-background:new 0 0 53 53;" xml:space="preserve">
<g>
	<rect x="25.5" y="26" style="fill:#7D6599;" width="2" height="14"/>
	<polygon style="fill:#546A79;" points="26.5,28.414 12.793,14.707 14.207,13.293 26.5,25.586 38.793,13.293 40.207,14.707 	"/>
	<rect x="25.5" y="1" style="fill:#546A79;" width="2" height="26"/>
	<path style="fill:#546A79;" d="M39.5,15h-7c-0.553,0-1-0.447-1-1s0.447-1,1-1h7c0.553,0,1,0.447,1,1S40.053,15,39.5,15z"/>
	<path style="fill:#546A79;" d="M39.5,22c-0.553,0-1-0.447-1-1v-7c0-0.553,0.447-1,1-1s1,0.447,1,1v7C40.5,21.553,40.053,22,39.5,22
		z"/>
	<path style="fill:#546A79;" d="M13.5,22c-0.553,0-1-0.447-1-1v-7c0-0.553,0.447-1,1-1s1,0.447,1,1v7C14.5,21.553,14.053,22,13.5,22
		z"/>
	<path style="fill:#546A79;" d="M20.5,15h-7c-0.553,0-1-0.447-1-1s0.447-1,1-1h7c0.553,0,1,0.447,1,1S21.053,15,20.5,15z"/>
	<path style="fill:#546A79;" d="M19.5,9c-0.256,0-0.512-0.098-0.707-0.293c-0.391-0.391-0.391-1.023,0-1.414l7-7
		c0.391-0.391,1.023-0.391,1.414,0s0.391,1.023,0,1.414l-7,7C20.012,8.902,19.756,9,19.5,9z"/>
	<path style="fill:#546A79;" d="M33.5,9c-0.256,0-0.512-0.098-0.707-0.293l-7-7c-0.391-0.391-0.391-1.023,0-1.414
		s1.023-0.391,1.414,0l7,7c0.391,0.391,0.391,1.023,0,1.414C34.012,8.902,33.756,9,33.5,9z"/>
	<g>
		<circle style="fill:#CC66A1;" cx="26.5" cy="46" r="6"/>
		<path style="fill:#CC66A1;" d="M26.5,53c-3.859,0-7-3.141-7-7s3.141-7,7-7s7,3.141,7,7S30.359,53,26.5,53z M26.5,41
			c-2.757,0-5,2.243-5,5s2.243,5,5,5s5-2.243,5-5S29.257,41,26.5,41z"/>
	</g>
</g>
<g>
</g>
<g>
</g>
<g>
</g>
<g>
</g>
<g>
</g>
<g>
</g>
<g>
</g>
<g>
</g>
<g>
</g>
<g>
</g>
<g>
</g>
<g>
</g>
<g>
</g>
<g>
</g>
<g>
</g>
</svg>
