<?xml version="1.0" encoding="iso-8859-1"?>
<!-- Generator: Adobe Illustrator 18.0.0, SVG Export Plug-In . SVG Version: 6.00 Build 0)  -->
<!DOCTYPE svg PUBLIC "-//W3C//DTD SVG 1.1//EN" "http://www.w3.org/Graphics/SVG/1.1/DTD/svg11.dtd">
<svg version="1.1" id="Capa_1" xmlns="http://www.w3.org/2000/svg" xmlns:xlink="http://www.w3.org/1999/xlink" x="0px" y="0px"
	 viewBox="0 0 50 50" style="enable-background:new 0 0 50 50;" xml:space="preserve">
<g>
	<rect x="24" y="23" style="fill:#687492;" width="2" height="14"/>
	<path style="fill:#687492;" d="M3,9C2.744,9,2.488,8.902,2.293,8.707c-0.391-0.391-0.391-1.023,0-1.414l7-7
		c0.391-0.391,1.023-0.391,1.414,0s0.391,1.023,0,1.414l-7,7C3.512,8.902,3.256,9,3,9z"/>
	<path style="fill:#687492;" d="M17,9c-0.256,0-0.512-0.098-0.707-0.293l-7-7c-0.391-0.391-0.391-1.023,0-1.414s1.023-0.391,1.414,0
		l7,7c0.391,0.391,0.391,1.023,0,1.414C17.512,8.902,17.256,9,17,9z"/>
	<path style="fill:#687492;" d="M33,9c-0.256,0-0.512-0.098-0.707-0.293c-0.391-0.391-0.391-1.023,0-1.414l7-7
		c0.391-0.391,1.023-0.391,1.414,0s0.391,1.023,0,1.414l-7,7C33.512,8.902,33.256,9,33,9z"/>
	<path style="fill:#687492;" d="M47,9c-0.256,0-0.512-0.098-0.707-0.293l-7-7c-0.391-0.391-0.391-1.023,0-1.414s1.023-0.391,1.414,0
		l7,7c0.391,0.391,0.391,1.023,0,1.414C47.512,8.902,47.256,9,47,9z"/>
	<polygon style="fill:#687492;" points="41,24 9,24 9,1 11,1 11,22 39,22 39,1 41,1 	"/>
	<g>
		<circle style="fill:#CC66A1;" cx="25" cy="43" r="6"/>
		<path style="fill:#CC66A1;" d="M25,50c-3.859,0-7-3.141-7-7s3.141-7,7-7s7,3.141,7,7S28.859,50,25,50z M25,38
			c-2.757,0-5,2.243-5,5s2.243,5,5,5s5-2.243,5-5S27.757,38,25,38z"/>
	</g>
</g>
<g>
</g>
<g>
</g>
<g>
</g>
<g>
</g>
<g>
</g>
<g>
</g>
<g>
</g>
<g>
</g>
<g>
</g>
<g>
</g>
<g>
</g>
<g>
</g>
<g>
</g>
<g>
</g>
<g>
</g>
</svg>
