<?xml version="1.0" encoding="iso-8859-1"?>
<!-- Generator: Adobe Illustrator 18.0.0, SVG Export Plug-In . SVG Version: 6.00 Build 0)  -->
<!DOCTYPE svg PUBLIC "-//W3C//DTD SVG 1.1//EN" "http://www.w3.org/Graphics/SVG/1.1/DTD/svg11.dtd">
<svg version="1.1" id="Capa_1" xmlns="http://www.w3.org/2000/svg" xmlns:xlink="http://www.w3.org/1999/xlink" x="0px" y="0px"
	 viewBox="0 0 58 58" style="enable-background:new 0 0 58 58;" xml:space="preserve">
<g>
	<g>
		<circle style="fill:#4C98BC;" cx="13" cy="7" r="6"/>
		<path style="fill:#4C98BC;" d="M13,14c-3.86,0-7-3.141-7-7s3.14-7,7-7s7,3.141,7,7S16.86,14,13,14z M13,2c-2.757,0-5,2.243-5,5
			s2.243,5,5,5s5-2.243,5-5S15.757,2,13,2z"/>
	</g>
	<g>
		<circle style="fill:#57B0E3;" cx="45" cy="7" r="6"/>
		<path style="fill:#57B0E3;" d="M45,14c-3.86,0-7-3.141-7-7s3.14-7,7-7s7,3.141,7,7S48.86,14,45,14z M45,2c-2.757,0-5,2.243-5,5
			s2.243,5,5,5s5-2.243,5-5S47.757,2,45,2z"/>
	</g>
	<rect x="12" y="13" style="fill:#546A79;" width="2" height="32"/>
	<g>
		<path style="fill:#546A79;" d="M44.932,15.499c-0.031,0-0.062-0.001-0.094-0.004c-0.55-0.052-0.954-0.539-0.903-1.089
			C43.978,13.942,44,13.47,44,13c0-0.553,0.448-1,1-1s1,0.447,1,1c0,0.531-0.025,1.066-0.074,1.592
			C45.878,15.11,45.442,15.499,44.932,15.499z"/>
		<path style="fill:#546A79;" d="M40.708,24.911c-0.244,0-0.489-0.089-0.682-0.269c-0.404-0.376-0.427-1.009-0.05-1.413
			c0.372-0.399,0.726-0.823,1.053-1.26c0.33-0.442,0.956-0.534,1.399-0.202c0.442,0.33,0.533,0.957,0.202,1.399
			c-0.369,0.494-0.77,0.974-1.19,1.426C41.243,24.804,40.976,24.911,40.708,24.911z M43.601,20.558
			c-0.137,0-0.276-0.028-0.409-0.088c-0.504-0.227-0.729-0.818-0.502-1.322c0.223-0.496,0.421-1.012,0.588-1.529
			c0.17-0.526,0.731-0.813,1.259-0.646c0.525,0.17,0.814,0.733,0.645,1.259c-0.189,0.588-0.414,1.172-0.667,1.736
			C44.347,20.338,43.982,20.558,43.601,20.558z"/>
		<path style="fill:#546A79;" d="M13.777,41.056c-0.102,0-0.206-0.016-0.308-0.049c-0.525-0.17-0.813-0.734-0.643-1.26
			c0.191-0.589,0.416-1.173,0.669-1.734c0.228-0.504,0.821-0.729,1.323-0.5c0.503,0.227,0.728,0.819,0.5,1.322
			c-0.223,0.495-0.422,1.009-0.59,1.529C14.592,40.787,14.199,41.056,13.777,41.056z M16.181,36.416
			c-0.208,0-0.418-0.064-0.598-0.199c-0.442-0.331-0.532-0.958-0.202-1.4c0.369-0.492,0.771-0.972,1.193-1.424
			c0.377-0.404,1.01-0.425,1.413-0.048c0.404,0.377,0.425,1.01,0.048,1.413c-0.373,0.399-0.728,0.822-1.053,1.258
			C16.786,36.277,16.485,36.416,16.181,36.416z M19.954,32.797c-0.319,0-0.632-0.151-0.826-0.435
			c-0.313-0.455-0.196-1.077,0.259-1.39c0.765-0.525,1.579-0.99,2.42-1.383c0.5-0.231,1.095-0.019,1.329,0.483
			c0.233,0.5,0.017,1.096-0.483,1.329c-0.742,0.347-1.459,0.757-2.134,1.219C20.346,32.74,20.149,32.797,19.954,32.797z
			 M25.538,30.374c-0.459,0-0.873-0.318-0.976-0.785c-0.119-0.54,0.223-1.073,0.762-1.191c0.605-0.133,1.223-0.233,1.835-0.299
			c0.538-0.058,1.042,0.339,1.1,0.888c0.059,0.55-0.339,1.042-0.888,1.101c-0.539,0.058-1.083,0.146-1.617,0.264
			C25.682,30.366,25.609,30.374,25.538,30.374z M30.757,29.904c-0.504,0-0.938-0.381-0.993-0.894
			c-0.059-0.55,0.339-1.042,0.888-1.101c0.535-0.058,1.079-0.146,1.615-0.266c0.538-0.114,1.073,0.221,1.193,0.761
			c0.119,0.539-0.221,1.072-0.76,1.192c-0.609,0.135-1.227,0.236-1.836,0.301C30.829,29.902,30.793,29.904,30.757,29.904z
			 M35.791,28.493c-0.376,0-0.737-0.213-0.907-0.577c-0.233-0.5-0.017-1.096,0.483-1.329c0.736-0.344,1.453-0.754,2.131-1.221
			c0.454-0.316,1.078-0.198,1.391,0.256c0.313,0.455,0.198,1.078-0.257,1.391c-0.769,0.53-1.583,0.996-2.419,1.387
			C36.077,28.463,35.933,28.493,35.791,28.493z"/>
		<path style="fill:#546A79;" d="M13,46c-0.552,0-1-0.447-1-1c0-0.531,0.025-1.066,0.074-1.592c0.051-0.55,0.528-0.957,1.088-0.903
			c0.55,0.052,0.954,0.539,0.903,1.089C14.022,44.058,14,44.53,14,45C14,45.553,13.552,46,13,46z"/>
	</g>
	<path style="fill:#546A79;" d="M7,20c-0.256,0-0.512-0.098-0.707-0.293c-0.391-0.391-0.391-1.023,0-1.414l6-6
		c0.391-0.391,1.023-0.391,1.414,0s0.391,1.023,0,1.414l-6,6C7.512,19.902,7.256,20,7,20z"/>
	<path style="fill:#546A79;" d="M19,20c-0.256,0-0.512-0.098-0.707-0.293l-6-6c-0.391-0.391-0.391-1.023,0-1.414
		s1.023-0.391,1.414,0l6,6c0.391,0.391,0.391,1.023,0,1.414C19.512,19.902,19.256,20,19,20z"/>
	<g>
		<circle style="fill:#3B7995;" cx="13" cy="51" r="6"/>
		<path style="fill:#3B7995;" d="M13,58c-3.86,0-7-3.141-7-7s3.14-7,7-7s7,3.141,7,7S16.86,58,13,58z M13,46c-2.757,0-5,2.243-5,5
			s2.243,5,5,5s5-2.243,5-5S15.757,46,13,46z"/>
	</g>
</g>
<g>
</g>
<g>
</g>
<g>
</g>
<g>
</g>
<g>
</g>
<g>
</g>
<g>
</g>
<g>
</g>
<g>
</g>
<g>
</g>
<g>
</g>
<g>
</g>
<g>
</g>
<g>
</g>
<g>
</g>
</svg>
