<?xml version="1.0" encoding="iso-8859-1"?>
<!-- Generator: Adobe Illustrator 18.0.0, SVG Export Plug-In . SVG Version: 6.00 Build 0)  -->
<!DOCTYPE svg PUBLIC "-//W3C//DTD SVG 1.1//EN" "http://www.w3.org/Graphics/SVG/1.1/DTD/svg11.dtd">
<svg version="1.1" id="Capa_1" xmlns="http://www.w3.org/2000/svg" xmlns:xlink="http://www.w3.org/1999/xlink" x="0px" y="0px"
	 viewBox="0 0 56 56" style="enable-background:new 0 0 56 56;" xml:space="preserve">
<g>
	<rect x="27" y="28" style="fill:#546A79;" width="2" height="14"/>
	<polygon style="fill:#546A79;" points="28,30.414 0.293,2.707 1.707,1.293 28,27.586 54.293,1.293 55.707,2.707 	"/>
	<rect x="27" y="7" style="fill:#546A79;" width="2" height="22"/>
	<path style="fill:#546A79;" d="M55,3h-7c-0.553,0-1-0.447-1-1s0.447-1,1-1h7c0.553,0,1,0.447,1,1S55.553,3,55,3z"/>
	<path style="fill:#546A79;" d="M55,10c-0.553,0-1-0.447-1-1V2c0-0.553,0.447-1,1-1s1,0.447,1,1v7C56,9.553,55.553,10,55,10z"/>
	<path style="fill:#546A79;" d="M1,10c-0.553,0-1-0.447-1-1V2c0-0.553,0.447-1,1-1s1,0.447,1,1v7C2,9.553,1.553,10,1,10z"/>
	<path style="fill:#546A79;" d="M8,3H1C0.447,3,0,2.553,0,2s0.447-1,1-1h7c0.553,0,1,0.447,1,1S8.553,3,8,3z"/>
	<path style="fill:#546A79;" d="M21,15c-0.256,0-0.512-0.098-0.707-0.293c-0.391-0.391-0.391-1.023,0-1.414l7-7
		c0.391-0.391,1.023-0.391,1.414,0s0.391,1.023,0,1.414l-7,7C21.512,14.902,21.256,15,21,15z"/>
	<path style="fill:#546A79;" d="M35,15c-0.256,0-0.512-0.098-0.707-0.293l-7-7c-0.391-0.391-0.391-1.023,0-1.414
		s1.023-0.391,1.414,0l7,7c0.391,0.391,0.391,1.023,0,1.414C35.512,14.902,35.256,15,35,15z"/>
	<g>
		<circle style="fill:#F18D46;" cx="28" cy="48" r="6"/>
		<path style="fill:#F18D46;" d="M28,55c-3.859,0-7-3.141-7-7s3.141-7,7-7s7,3.141,7,7S31.859,55,28,55z M28,43
			c-2.757,0-5,2.243-5,5s2.243,5,5,5s5-2.243,5-5S30.757,43,28,43z"/>
	</g>
</g>
<g>
</g>
<g>
</g>
<g>
</g>
<g>
</g>
<g>
</g>
<g>
</g>
<g>
</g>
<g>
</g>
<g>
</g>
<g>
</g>
<g>
</g>
<g>
</g>
<g>
</g>
<g>
</g>
<g>
</g>
</svg>
