<?xml version="1.0" encoding="iso-8859-1"?>
<!-- Generator: Adobe Illustrator 18.0.0, SVG Export Plug-In . SVG Version: 6.00 Build 0)  -->
<!DOCTYPE svg PUBLIC "-//W3C//DTD SVG 1.1//EN" "http://www.w3.org/Graphics/SVG/1.1/DTD/svg11.dtd">
<svg version="1.1" id="Capa_1" xmlns="http://www.w3.org/2000/svg" xmlns:xlink="http://www.w3.org/1999/xlink" x="0px" y="0px"
	 viewBox="0 0 58 58" style="enable-background:new 0 0 58 58;" xml:space="preserve">
<g>
	<g>
		<circle style="fill:#7D6599;" cx="13" cy="7" r="6"/>
		<path style="fill:#7D6599;" d="M13,14c-3.86,0-7-3.141-7-7s3.14-7,7-7s7,3.141,7,7S16.86,14,13,14z M13,2c-2.757,0-5,2.243-5,5
			s2.243,5,5,5s5-2.243,5-5S15.757,2,13,2z"/>
	</g>
	<g>
		<circle style="fill:#CC66A1;" cx="45" cy="7" r="6"/>
		<path style="fill:#CC66A1;" d="M45,14c-3.86,0-7-3.141-7-7s3.14-7,7-7s7,3.141,7,7S48.86,14,45,14z M45,2c-2.757,0-5,2.243-5,5
			s2.243,5,5,5s5-2.243,5-5S47.757,2,45,2z"/>
	</g>
	<rect x="12" y="12" style="fill:#546A79;" width="2" height="33"/>
	<path style="fill:#546A79;" d="M14,45h-2c0-9.374,7.626-17,17-17c8.271,0,15-6.729,15-15h2c0,9.374-7.626,17-17,17
		C20.729,30,14,36.729,14,45z"/>
	<path style="fill:#546A79;" d="M7,20c-0.256,0-0.512-0.098-0.707-0.293c-0.391-0.391-0.391-1.023,0-1.414l6-6
		c0.391-0.391,1.023-0.391,1.414,0s0.391,1.023,0,1.414l-6,6C7.512,19.902,7.256,20,7,20z"/>
	<path style="fill:#546A79;" d="M19,20c-0.256,0-0.512-0.098-0.707-0.293l-6-6c-0.391-0.391-0.391-1.023,0-1.414
		s1.023-0.391,1.414,0l6,6c0.391,0.391,0.391,1.023,0,1.414C19.512,19.902,19.256,20,19,20z"/>
	<path style="fill:#546A79;" d="M39,20c-0.256,0-0.512-0.098-0.707-0.293c-0.391-0.391-0.391-1.023,0-1.414l6-6
		c0.391-0.391,1.023-0.391,1.414,0s0.391,1.023,0,1.414l-6,6C39.512,19.902,39.256,20,39,20z"/>
	<path style="fill:#546A79;" d="M51,20c-0.256,0-0.512-0.098-0.707-0.293l-6-6c-0.391-0.391-0.391-1.023,0-1.414
		s1.023-0.391,1.414,0l6,6c0.391,0.391,0.391,1.023,0,1.414C51.512,19.902,51.256,20,51,20z"/>
	<g>
		<circle style="fill:#687492;" cx="13" cy="51" r="6"/>
		<path style="fill:#687492;" d="M13,58c-3.86,0-7-3.141-7-7s3.14-7,7-7s7,3.141,7,7S16.86,58,13,58z M13,46c-2.757,0-5,2.243-5,5
			s2.243,5,5,5s5-2.243,5-5S15.757,46,13,46z"/>
	</g>
</g>
<g>
</g>
<g>
</g>
<g>
</g>
<g>
</g>
<g>
</g>
<g>
</g>
<g>
</g>
<g>
</g>
<g>
</g>
<g>
</g>
<g>
</g>
<g>
</g>
<g>
</g>
<g>
</g>
<g>
</g>
</svg>
