<?xml version="1.0" encoding="iso-8859-1"?>
<!-- Generator: Adobe Illustrator 18.0.0, SVG Export Plug-In . SVG Version: 6.00 Build 0)  -->
<!DOCTYPE svg PUBLIC "-//W3C//DTD SVG 1.1//EN" "http://www.w3.org/Graphics/SVG/1.1/DTD/svg11.dtd">
<svg version="1.1" id="Capa_1" xmlns="http://www.w3.org/2000/svg" xmlns:xlink="http://www.w3.org/1999/xlink" x="0px" y="0px"
	 viewBox="0 0 58 58" style="enable-background:new 0 0 58 58;" xml:space="preserve">
<g>
	<g>
		<circle style="fill:#F3D55B;" cx="13" cy="51" r="6"/>
		<path style="fill:#F3D55B;" d="M13,58c-3.86,0-7-3.141-7-7s3.14-7,7-7s7,3.141,7,7S16.86,58,13,58z M13,46c-2.757,0-5,2.243-5,5
			s2.243,5,5,5s5-2.243,5-5S15.757,46,13,46z"/>
	</g>
	<g>
		<circle style="fill:#F29C1F;" cx="45" cy="51" r="6"/>
		<path style="fill:#F29C1F;" d="M45,58c-3.86,0-7-3.141-7-7s3.14-7,7-7s7,3.141,7,7S48.86,58,45,58z M45,46c-2.757,0-5,2.243-5,5
			s2.243,5,5,5s5-2.243,5-5S47.757,46,45,46z"/>
	</g>
	<g>
		<path style="fill:#546A79;" d="M13,46c-0.552,0-1-0.447-1-1v-1.5c0-0.553,0.448-1,1-1s1,0.447,1,1V45C14,45.553,13.552,46,13,46z"
			/>
		<path style="fill:#546A79;" d="M13,41.186c-0.552,0-1-0.447-1-1v-1.657c0-0.553,0.448-1,1-1s1,0.447,1,1v1.657
			C14,40.738,13.552,41.186,13,41.186z M13,36.214c-0.552,0-1-0.447-1-1v-1.657c0-0.553,0.448-1,1-1s1,0.447,1,1v1.657
			C14,35.767,13.552,36.214,13,36.214z"/>
		<path style="fill:#546A79;" d="M13,31.243c-0.552,0-1-0.447-1-1v-2.485c0-0.553,0.448-1,1-1s1,0.447,1,1v2.485
			C14,30.796,13.552,31.243,13,31.243z M13,25.443c-0.552,0-1-0.447-1-1v-1.657c0-0.553,0.448-1,1-1s1,0.447,1,1v1.657
			C14,24.996,13.552,25.443,13,25.443z M13,20.472c-0.552,0-1-0.447-1-1v-1.657c0-0.553,0.448-1,1-1s1,0.447,1,1v1.657
			C14,20.024,13.552,20.472,13,20.472z"/>
		<path style="fill:#546A79;" d="M13,15.5c-0.552,0-1-0.447-1-1V13c0-0.553,0.448-1,1-1s1,0.447,1,1v1.5
			C14,15.053,13.552,15.5,13,15.5z"/>
	</g>
	<g>
		<path style="fill:#546A79;" d="M45,46c-0.552,0-1-0.447-1-1c0-0.47-0.022-0.942-0.065-1.406c-0.051-0.55,0.353-1.037,0.903-1.089
			c0.556-0.052,1.037,0.354,1.088,0.903C45.975,43.934,46,44.469,46,45C46,45.553,45.552,46,45,46z"/>
		<path style="fill:#546A79;" d="M44.229,41.075c-0.422,0-0.815-0.27-0.952-0.693c-0.167-0.518-0.365-1.033-0.588-1.529
			c-0.227-0.504-0.001-1.096,0.502-1.322c0.503-0.227,1.096-0.001,1.322,0.502c0.253,0.564,0.478,1.148,0.667,1.736
			c0.169,0.525-0.119,1.089-0.645,1.259C44.435,41.06,44.331,41.075,44.229,41.075z M41.831,36.432
			c-0.305,0-0.605-0.139-0.802-0.401c-0.327-0.437-0.681-0.86-1.053-1.26c-0.376-0.404-0.354-1.037,0.05-1.413
			c0.404-0.376,1.036-0.354,1.414,0.05c0.421,0.452,0.821,0.932,1.19,1.426c0.331,0.442,0.24,1.069-0.202,1.399
			C42.249,36.367,42.039,36.432,41.831,36.432z"/>
		<path style="fill:#546A79;" d="M38.064,32.811c-0.195,0-0.393-0.057-0.566-0.177c-0.678-0.467-1.395-0.877-2.131-1.221
			c-0.5-0.233-0.717-0.829-0.483-1.329c0.234-0.502,0.829-0.716,1.329-0.483c0.836,0.391,1.65,0.856,2.419,1.387
			c0.455,0.313,0.57,0.936,0.257,1.391C38.695,32.659,38.382,32.811,38.064,32.811z M32.485,30.379
			c-0.072,0-0.145-0.008-0.217-0.023c-0.537-0.119-1.08-0.208-1.615-0.266c-0.549-0.059-0.947-0.551-0.888-1.101
			c0.059-0.549,0.556-0.947,1.1-0.888c0.609,0.064,1.227,0.166,1.836,0.301c0.539,0.12,0.879,0.653,0.76,1.192
			C33.357,30.062,32.944,30.379,32.485,30.379z M27.267,29.907c-0.036,0-0.071-0.002-0.107-0.006
			c-0.612-0.065-1.229-0.166-1.835-0.299c-0.539-0.118-0.88-0.651-0.762-1.191c0.119-0.539,0.653-0.878,1.191-0.762
			c0.534,0.117,1.078,0.206,1.617,0.264c0.549,0.059,0.947,0.551,0.888,1.101C28.205,29.526,27.771,29.907,27.267,29.907z
			 M22.229,28.504c-0.142,0-0.286-0.03-0.422-0.094c-0.841-0.393-1.655-0.857-2.42-1.383c-0.455-0.313-0.571-0.935-0.259-1.39
			c0.313-0.456,0.935-0.572,1.391-0.259c0.674,0.462,1.392,0.872,2.134,1.219c0.5,0.233,0.717,0.829,0.483,1.329
			C22.966,28.291,22.606,28.504,22.229,28.504z M17.305,24.925c-0.267,0-0.534-0.106-0.73-0.317
			c-0.423-0.452-0.824-0.932-1.193-1.424c-0.331-0.442-0.241-1.069,0.202-1.4c0.443-0.332,1.069-0.239,1.4,0.201
			c0.325,0.436,0.68,0.858,1.053,1.258c0.377,0.403,0.356,1.036-0.048,1.413C17.795,24.836,17.549,24.925,17.305,24.925z
			 M14.408,20.576c-0.381,0-0.745-0.219-0.912-0.589c-0.253-0.562-0.479-1.146-0.669-1.734c-0.17-0.525,0.118-1.09,0.643-1.26
			c0.525-0.171,1.089,0.117,1.259,0.643c0.168,0.521,0.367,1.034,0.59,1.529c0.227,0.503,0.003,1.096-0.5,1.322
			C14.685,20.548,14.545,20.576,14.408,20.576z"/>
		<path style="fill:#546A79;" d="M13.068,15.499c-0.511,0-0.946-0.389-0.995-0.907C12.025,14.066,12,13.531,12,13
			c0-0.553,0.448-1,1-1s1,0.447,1,1c0,0.47,0.022,0.942,0.065,1.406c0.051,0.55-0.353,1.037-0.903,1.089
			C13.13,15.498,13.099,15.499,13.068,15.499z"/>
	</g>
	<path style="fill:#546A79;" d="M13,46c-0.256,0-0.512-0.098-0.707-0.293c-0.391-0.391-0.391-1.023,0-1.414l6-6
		c0.391-0.391,1.023-0.391,1.414,0s0.391,1.023,0,1.414l-6,6C13.512,45.902,13.256,46,13,46z"/>
	<path style="fill:#546A79;" d="M13,46c-0.256,0-0.512-0.098-0.707-0.293l-6-6c-0.391-0.391-0.391-1.023,0-1.414
		s1.023-0.391,1.414,0l6,6c0.391,0.391,0.391,1.023,0,1.414C13.512,45.902,13.256,46,13,46z"/>
	<path style="fill:#546A79;" d="M45,46c-0.256,0-0.512-0.098-0.707-0.293c-0.391-0.391-0.391-1.023,0-1.414l6-6
		c0.391-0.391,1.023-0.391,1.414,0s0.391,1.023,0,1.414l-6,6C45.512,45.902,45.256,46,45,46z"/>
	<path style="fill:#546A79;" d="M45,46c-0.256,0-0.512-0.098-0.707-0.293l-6-6c-0.391-0.391-0.391-1.023,0-1.414
		s1.023-0.391,1.414,0l6,6c0.391,0.391,0.391,1.023,0,1.414C45.512,45.902,45.256,46,45,46z"/>
	<g>
		<circle style="fill:#F0785A;" cx="13" cy="7" r="6"/>
		<path style="fill:#F0785A;" d="M13,14c-3.86,0-7-3.141-7-7s3.14-7,7-7s7,3.141,7,7S16.86,14,13,14z M13,2c-2.757,0-5,2.243-5,5
			s2.243,5,5,5s5-2.243,5-5S15.757,2,13,2z"/>
	</g>
</g>
<g>
</g>
<g>
</g>
<g>
</g>
<g>
</g>
<g>
</g>
<g>
</g>
<g>
</g>
<g>
</g>
<g>
</g>
<g>
</g>
<g>
</g>
<g>
</g>
<g>
</g>
<g>
</g>
<g>
</g>
</svg>
