<?xml version="1.0" encoding="iso-8859-1"?>
<!-- Generator: Adobe Illustrator 18.0.0, SVG Export Plug-In . SVG Version: 6.00 Build 0)  -->
<!DOCTYPE svg PUBLIC "-//W3C//DTD SVG 1.1//EN" "http://www.w3.org/Graphics/SVG/1.1/DTD/svg11.dtd">
<svg version="1.1" id="Capa_1" xmlns="http://www.w3.org/2000/svg" xmlns:xlink="http://www.w3.org/1999/xlink" x="0px" y="0px"
	 viewBox="0 0 60 60" style="enable-background:new 0 0 60 60;" xml:space="preserve">
<g>
	<path style="fill:#687492;" d="M30,58c-0.548,0-0.994-0.441-1-0.99c-0.006-0.552,0.438-1.004,0.99-1.01l0.285-0.003
		c0.004,0,0.008,0,0.011,0c0.548,0,0.994,0.441,1,0.989c0.006,0.553-0.438,1.005-0.989,1.011L30.01,58C30.007,58,30.003,58,30,58z
		 M34.259,57.606c-0.472,0-0.892-0.335-0.981-0.815c-0.103-0.542,0.255-1.065,0.798-1.167c0.629-0.119,1.256-0.265,1.861-0.435
		c0.527-0.147,1.083,0.161,1.232,0.693c0.149,0.531-0.161,1.083-0.693,1.232c-0.661,0.186-1.345,0.345-2.031,0.474
		C34.382,57.601,34.32,57.606,34.259,57.606z M39.944,55.746c-0.372,0-0.729-0.208-0.902-0.566c-0.239-0.497-0.03-1.095,0.468-1.335
		c0.575-0.276,1.144-0.58,1.687-0.902c0.479-0.281,1.089-0.124,1.37,0.351c0.281,0.476,0.124,1.089-0.351,1.37
		c-0.593,0.352-1.212,0.683-1.839,0.984C40.237,55.715,40.09,55.746,39.944,55.746z M44.952,52.479
		c-0.281,0-0.562-0.118-0.759-0.349c-0.359-0.42-0.312-1.051,0.107-1.41c0.485-0.416,0.956-0.855,1.398-1.307
		c0.388-0.396,1.021-0.399,1.414-0.014c0.395,0.387,0.4,1.021,0.014,1.414c-0.483,0.492-0.996,0.972-1.523,1.424
		C45.414,52.399,45.183,52.479,44.952,52.479z M48.954,48.032c-0.195,0-0.393-0.057-0.565-0.176
		c-0.455-0.313-0.57-0.936-0.258-1.391c0.361-0.526,0.704-1.072,1.017-1.623c0.271-0.48,0.881-0.649,1.363-0.375
		c0.48,0.272,0.648,0.883,0.375,1.363c-0.34,0.6-0.713,1.193-1.106,1.768C49.586,47.881,49.272,48.032,48.954,48.032z
		 M51.678,42.704c-0.111,0-0.225-0.019-0.336-0.058c-0.52-0.186-0.791-0.758-0.606-1.278c0.214-0.599,0.402-1.213,0.562-1.826
		c0.138-0.534,0.685-0.861,1.219-0.717c0.534,0.139,0.855,0.684,0.717,1.219c-0.173,0.669-0.38,1.341-0.612,1.996
		C52.474,42.449,52.089,42.704,51.678,42.704z M52.928,36.854c-0.026,0-0.054-0.001-0.08-0.003
		c-0.551-0.044-0.962-0.526-0.918-1.076C51.977,35.191,52,34.595,52,34v-0.143c0-0.553,0.447-1,1-1s1,0.447,1,1V34
		c0,0.647-0.025,1.298-0.076,1.934C53.882,36.457,53.444,36.854,52.928,36.854z M52.631,30.88c-0.475,0-0.896-0.339-0.983-0.822
		c-0.113-0.627-0.255-1.254-0.422-1.863c-0.146-0.532,0.168-1.082,0.701-1.229c0.527-0.141,1.082,0.168,1.229,0.701
		c0.182,0.666,0.337,1.351,0.461,2.035c0.098,0.544-0.264,1.063-0.807,1.162C52.749,30.875,52.689,30.88,52.631,30.88z
		 M50.809,25.186c-0.375,0-0.734-0.211-0.905-0.572c-0.271-0.571-0.57-1.141-0.893-1.692c-0.277-0.478-0.116-1.09,0.36-1.368
		c0.477-0.276,1.09-0.116,1.368,0.36c0.35,0.601,0.677,1.222,0.973,1.845c0.236,0.499,0.022,1.096-0.477,1.332
		C51.098,25.155,50.951,25.186,50.809,25.186z M47.571,20.157c-0.284,0-0.566-0.12-0.764-0.354
		c-0.413-0.488-0.851-0.961-1.299-1.407c-0.392-0.389-0.394-1.022-0.004-1.414c0.391-0.391,1.023-0.394,1.414-0.004
		c0.489,0.485,0.965,1.001,1.414,1.532c0.357,0.422,0.305,1.053-0.116,1.409C48.028,20.079,47.799,20.157,47.571,20.157z
		 M43.146,16.126c-0.198,0-0.398-0.059-0.573-0.181c-0.514-0.36-1.056-0.705-1.611-1.024c-0.479-0.275-0.645-0.887-0.369-1.365
		c0.275-0.479,0.888-0.644,1.365-0.369c0.608,0.35,1.201,0.727,1.764,1.12c0.452,0.317,0.562,0.94,0.245,1.394
		C43.771,15.978,43.462,16.126,43.146,16.126z M37.839,13.37c-0.113,0-0.229-0.02-0.341-0.06c-0.603-0.219-1.216-0.411-1.824-0.572
		c-0.533-0.142-0.852-0.689-0.71-1.224c0.142-0.533,0.692-0.848,1.224-0.71c0.665,0.177,1.335,0.387,1.992,0.625
		c0.52,0.188,0.787,0.762,0.6,1.281C38.632,13.117,38.248,13.37,37.839,13.37z M31.997,12.086c-0.028,0-0.058-0.001-0.087-0.004
		C31.277,12.027,30.635,12,30,12c-0.553,0-1-0.447-1-1s0.447-1,1-1c0.691,0,1.392,0.03,2.082,0.09
		c0.55,0.047,0.958,0.531,0.91,1.082C32.947,11.692,32.511,12.086,31.997,12.086z"/>
	<path style="fill:#99527E;" d="M24,8c-0.256,0-0.512-0.098-0.707-0.293c-0.391-0.391-0.391-1.023,0-1.414l6-6
		c0.391-0.391,1.023-0.391,1.414,0s0.391,1.023,0,1.414l-6,6C24.512,7.902,24.256,8,24,8z"/>
	<path style="fill:#99527E;" d="M36,8c-0.256,0-0.512-0.098-0.707-0.293l-6-6c-0.391-0.391-0.391-1.023,0-1.414s1.023-0.391,1.414,0
		l6,6c0.391,0.391,0.391,1.023,0,1.414C36.512,7.902,36.256,8,36,8z"/>
	<g>
		<path style="fill:#CC66A1;" d="M30,57C17.297,57,7,46.703,7,34s10.297-23,23-23"/>
		<path style="fill:#CC66A1;" d="M30,58C16.767,58,6,47.233,6,34s10.767-24,24-24c0.553,0,1,0.447,1,1s-0.447,1-1,1
			C17.869,12,8,21.869,8,34s9.869,22,22,22c0.553,0,1,0.447,1,1S30.553,58,30,58z"/>
	</g>
	<path style="fill:#99527E;" d="M30,60c-0.553,0-1-0.447-1-1V1c0-0.553,0.447-1,1-1s1,0.447,1,1v58C31,59.553,30.553,60,30,60z"/>
</g>
<g>
</g>
<g>
</g>
<g>
</g>
<g>
</g>
<g>
</g>
<g>
</g>
<g>
</g>
<g>
</g>
<g>
</g>
<g>
</g>
<g>
</g>
<g>
</g>
<g>
</g>
<g>
</g>
<g>
</g>
</svg>
