<?xml version="1.0" encoding="iso-8859-1"?>
<!-- Generator: Adobe Illustrator 18.0.0, SVG Export Plug-In . SVG Version: 6.00 Build 0)  -->
<!DOCTYPE svg PUBLIC "-//W3C//DTD SVG 1.1//EN" "http://www.w3.org/Graphics/SVG/1.1/DTD/svg11.dtd">
<svg version="1.1" id="Capa_1" xmlns="http://www.w3.org/2000/svg" xmlns:xlink="http://www.w3.org/1999/xlink" x="0px" y="0px"
	 viewBox="0 0 57 57" style="enable-background:new 0 0 57 57;" xml:space="preserve">
<g>
	<path style="fill:#7D6599;" d="M28,56.5c-0.546,0-1.089-0.016-1.628-0.047c-0.551-0.032-0.972-0.505-0.939-1.057
		c0.031-0.551,0.496-0.955,1.057-0.939c0.5,0.029,1.004,0.043,1.511,0.043l0.415-0.003c0.005,0,0.01,0,0.014,0
		c0.546,0,0.992,0.438,1,0.986c0.008,0.552-0.434,1.006-0.986,1.014L28,56.5z M32.408,56.142c-0.481,0-0.905-0.348-0.986-0.838
		c-0.089-0.545,0.28-1.06,0.825-1.149c0.627-0.103,1.262-0.23,1.887-0.382c0.537-0.123,1.076,0.201,1.207,0.738
		c0.129,0.537-0.201,1.077-0.738,1.207c-0.673,0.162-1.356,0.3-2.031,0.411C32.517,56.138,32.462,56.142,32.408,56.142z
		 M22.471,55.933c-0.067,0-0.136-0.007-0.205-0.021c-0.676-0.141-1.353-0.308-2.012-0.497c-0.531-0.152-0.838-0.706-0.686-1.236
		c0.151-0.531,0.703-0.84,1.236-0.686c0.613,0.176,1.241,0.331,1.869,0.462c0.541,0.112,0.888,0.642,0.774,1.183
		C23.351,55.609,22.935,55.933,22.471,55.933z M38.17,54.521c-0.395,0-0.768-0.234-0.926-0.623
		c-0.209-0.511,0.037-1.095,0.549-1.303c0.589-0.24,1.179-0.507,1.753-0.791c0.494-0.248,1.096-0.043,1.34,0.451
		c0.246,0.495,0.044,1.095-0.451,1.34c-0.618,0.307-1.253,0.594-1.888,0.852C38.424,54.498,38.296,54.521,38.17,54.521z
		 M16.779,54.067c-0.139,0-0.28-0.029-0.415-0.091c-0.628-0.287-1.252-0.601-1.854-0.933c-0.484-0.267-0.66-0.875-0.394-1.358
		c0.268-0.484,0.877-0.659,1.358-0.394c0.559,0.308,1.138,0.6,1.721,0.866c0.502,0.229,0.723,0.823,0.493,1.325
		C17.522,53.85,17.159,54.067,16.779,54.067z M43.426,51.664c-0.316,0-0.627-0.149-0.821-0.428
		c-0.315-0.453-0.204-1.077,0.248-1.393c0.522-0.364,1.04-0.754,1.538-1.159c0.43-0.348,1.059-0.282,1.407,0.146
		c0.348,0.429,0.283,1.059-0.146,1.407c-0.536,0.436-1.093,0.855-1.655,1.247C43.822,51.605,43.623,51.664,43.426,51.664z
		 M11.645,50.986c-0.211,0-0.424-0.066-0.605-0.205c-0.549-0.419-1.088-0.861-1.602-1.317c-0.413-0.366-0.451-0.998-0.085-1.411
		c0.365-0.416,0.999-0.451,1.411-0.085c0.478,0.423,0.978,0.834,1.488,1.224c0.439,0.335,0.523,0.962,0.188,1.401
		C12.244,50.85,11.946,50.986,11.645,50.986z M47.929,47.718c-0.241,0-0.483-0.087-0.675-0.262
		c-0.407-0.373-0.436-1.006-0.063-1.413c0.43-0.47,0.849-0.964,1.247-1.469c0.343-0.433,0.971-0.508,1.404-0.166
		s0.508,0.97,0.166,1.404c-0.428,0.543-0.879,1.074-1.341,1.58C48.47,47.609,48.199,47.718,47.929,47.718z M7.315,46.853
		c-0.286,0-0.569-0.121-0.767-0.357c-0.443-0.528-0.872-1.078-1.272-1.634c-0.323-0.447-0.223-1.073,0.226-1.396
		c0.449-0.323,1.073-0.223,1.396,0.226c0.373,0.517,0.771,1.027,1.183,1.519c0.355,0.423,0.3,1.054-0.123,1.408
		C7.769,46.776,7.541,46.853,7.315,46.853z M51.455,42.881c-0.168,0-0.339-0.042-0.495-0.132c-0.479-0.273-0.646-0.885-0.372-1.364
		c0.318-0.558,0.619-1.132,0.894-1.707c0.237-0.499,0.835-0.711,1.333-0.472c0.498,0.238,0.71,0.835,0.472,1.333
		c-0.296,0.619-0.619,1.237-0.962,1.838C52.14,42.701,51.803,42.881,51.455,42.881z M3.996,41.873c-0.362,0-0.712-0.197-0.89-0.541
		c-0.314-0.609-0.611-1.24-0.881-1.875c-0.217-0.509,0.021-1.096,0.528-1.312c0.508-0.218,1.096,0.021,1.312,0.528
		c0.251,0.59,0.526,1.175,0.818,1.74c0.253,0.491,0.061,1.094-0.43,1.348C4.308,41.836,4.151,41.873,3.996,41.873z M53.831,37.381
		c-0.097,0-0.194-0.014-0.292-0.044c-0.528-0.161-0.825-0.72-0.664-1.248c0.187-0.613,0.352-1.238,0.491-1.858
		c0.121-0.538,0.659-0.875,1.194-0.757c0.539,0.121,0.878,0.655,0.757,1.194c-0.149,0.669-0.328,1.344-0.53,2.005
		C54.656,37.104,54.26,37.381,53.831,37.381z M1.858,36.284c-0.444,0-0.851-0.299-0.967-0.749c-0.171-0.661-0.32-1.343-0.444-2.025
		c-0.098-0.543,0.263-1.063,0.807-1.162c0.54-0.098,1.063,0.264,1.162,0.807c0.114,0.634,0.253,1.267,0.411,1.879
		c0.139,0.535-0.183,1.081-0.717,1.219C2.025,36.274,1.941,36.284,1.858,36.284z M54.929,31.498c-0.024,0-0.049-0.001-0.073-0.003
		c-0.551-0.04-0.965-0.519-0.925-1.069C53.977,29.789,54,29.141,54,28.5c-0.001-0.553-0.018-1.103-0.052-1.647
		c-0.034-0.552,0.385-1.026,0.936-1.061c0.577-0.01,1.025,0.386,1.061,0.936c0.036,0.586,0.055,1.177,0.056,1.771
		c0,0.69-0.025,1.387-0.075,2.071C55.887,31.096,55.448,31.498,54.929,31.498z M1.012,30.358c-0.538,0-0.981-0.428-0.999-0.969
		C0.004,29.093-0.001,28.795,0,28.498c0-0.394,0.008-0.788,0.024-1.18c0.022-0.553,0.525-0.995,1.04-0.958
		c0.552,0.022,0.98,0.488,0.958,1.04C2.008,27.764,2,28.131,2,28.5c-0.001,0.279,0.004,0.554,0.013,0.826
		c0.017,0.553-0.417,1.014-0.969,1.031C1.033,30.358,1.023,30.358,1.012,30.358z M1.484,24.39c-0.063,0-0.125-0.006-0.188-0.018
		c-0.543-0.104-0.898-0.628-0.795-1.17c0.128-0.667,0.284-1.346,0.465-2.02c0.144-0.534,0.693-0.849,1.225-0.707
		c0.534,0.144,0.851,0.691,0.707,1.225c-0.168,0.627-0.313,1.259-0.432,1.877C2.374,24.057,1.955,24.39,1.484,24.39z M54.403,23.833
		c-0.462,0-0.877-0.321-0.977-0.791c-0.133-0.621-0.292-1.249-0.473-1.865c-0.155-0.53,0.148-1.086,0.679-1.241
		c0.533-0.154,1.086,0.149,1.241,0.679c0.194,0.664,0.365,1.34,0.508,2.01c0.115,0.54-0.229,1.071-0.769,1.187
		C54.543,23.826,54.473,23.833,54.403,23.833z M3.259,18.671c-0.134,0-0.27-0.027-0.4-0.084c-0.506-0.222-0.736-0.812-0.515-1.317
		c0.275-0.627,0.579-1.255,0.903-1.867c0.259-0.489,0.867-0.674,1.352-0.416c0.488,0.259,0.675,0.864,0.416,1.352
		c-0.302,0.569-0.584,1.153-0.839,1.734C4.011,18.448,3.645,18.671,3.259,18.671z M52.509,18.155c-0.378,0-0.738-0.214-0.908-0.579
		c-0.27-0.58-0.563-1.157-0.874-1.714c-0.269-0.482-0.095-1.091,0.388-1.359c0.479-0.269,1.091-0.098,1.359,0.387
		c0.334,0.599,0.65,1.219,0.941,1.845c0.232,0.501,0.015,1.095-0.486,1.328C52.793,18.125,52.65,18.155,52.509,18.155z
		 M6.258,13.488c-0.206,0-0.414-0.063-0.593-0.195c-0.444-0.328-0.539-0.954-0.211-1.398c0.405-0.549,0.84-1.094,1.292-1.621
		c0.359-0.421,0.992-0.468,1.409-0.108c0.42,0.359,0.469,0.99,0.108,1.409c-0.42,0.491-0.824,0.998-1.2,1.508
		C6.867,13.347,6.565,13.488,6.258,13.488z M49.404,13.041c-0.301,0-0.598-0.135-0.794-0.392c-0.388-0.504-0.801-1.002-1.229-1.479
		c-0.368-0.411-0.333-1.043,0.078-1.412c0.409-0.368,1.044-0.334,1.412,0.078c0.461,0.515,0.907,1.052,1.324,1.597
		c0.337,0.438,0.254,1.065-0.185,1.401C49.831,12.974,49.616,13.041,49.404,13.041z M10.322,9.09c-0.279,0-0.558-0.116-0.755-0.345
		c-0.362-0.417-0.317-1.049,0.1-1.41c0.52-0.452,1.063-0.889,1.615-1.3c0.444-0.332,1.069-0.236,1.399,0.204
		c0.33,0.443,0.238,1.07-0.204,1.399c-0.513,0.382-1.018,0.788-1.5,1.206C10.788,9.01,10.555,9.09,10.322,9.09z M45.251,8.729
		c-0.225,0-0.451-0.075-0.638-0.23c-0.493-0.409-1.006-0.805-1.526-1.177c-0.449-0.32-0.554-0.945-0.232-1.395
		c0.32-0.449,0.946-0.554,1.395-0.232c0.56,0.399,1.112,0.825,1.642,1.265c0.425,0.354,0.483,0.983,0.131,1.408
		C45.823,8.606,45.538,8.729,45.251,8.729z M15.251,5.695c-0.356,0-0.701-0.19-0.882-0.526c-0.262-0.486-0.079-1.093,0.407-1.354
		c0.602-0.323,1.228-0.63,1.861-0.912c0.506-0.225,1.096,0.004,1.32,0.508c0.224,0.505-0.003,1.096-0.508,1.32
		c-0.589,0.262-1.17,0.546-1.727,0.846C15.573,5.657,15.411,5.695,15.251,5.695z M40.25,5.433c-0.152,0-0.308-0.035-0.453-0.109
		c-0.571-0.291-1.159-0.563-1.747-0.811c-0.51-0.213-0.749-0.799-0.535-1.309c0.213-0.51,0.8-0.751,1.309-0.535
		c0.634,0.266,1.267,0.56,1.882,0.873c0.492,0.251,0.688,0.853,0.437,1.345C40.965,5.234,40.614,5.433,40.25,5.433z M20.804,3.47
		c-0.438,0-0.841-0.29-0.963-0.733c-0.147-0.532,0.165-1.083,0.697-1.23c0.661-0.183,1.34-0.343,2.018-0.478
		c0.54-0.107,1.068,0.246,1.176,0.787c0.106,0.542-0.246,1.068-0.787,1.176c-0.63,0.124-1.261,0.273-1.873,0.442
		C20.983,3.458,20.893,3.47,20.804,3.47z M34.646,3.324c-0.082,0-0.164-0.01-0.247-0.03C33.78,3.136,33.148,3,32.518,2.891
		c-0.544-0.096-0.908-0.613-0.813-1.157s0.614-0.905,1.157-0.813c0.68,0.119,1.362,0.265,2.029,0.434
		c0.535,0.137,0.859,0.681,0.724,1.216C35.499,3.023,35.092,3.324,34.646,3.324z M26.715,2.53c-0.531,0-0.974-0.418-0.998-0.954
		c-0.025-0.552,0.401-1.02,0.953-1.045c0.688-0.032,1.387-0.04,2.073-0.021c0.553,0.017,0.987,0.477,0.972,1.028
		c-0.017,0.553-0.47,0.995-1.028,0.972C28.045,2.493,27.4,2.5,26.762,2.529C26.746,2.53,26.731,2.53,26.715,2.53z"/>
	<path style="fill:#7D6599;" d="M11,8.5H2c-0.553,0-1-0.447-1-1s0.447-1,1-1h9c0.553,0,1,0.447,1,1S11.553,8.5,11,8.5z"/>
	<path style="fill:#7D6599;" d="M11,17.5c-0.553,0-1-0.447-1-1v-9c0-0.553,0.447-1,1-1s1,0.447,1,1v9C12,17.053,11.553,17.5,11,17.5
		z"/>
	<g>
		<circle style="fill:#99527E;" cx="28" cy="28.5" r="11"/>
		<path style="fill:#99527E;" d="M28,40.5c-6.617,0-12-5.383-12-12s5.383-12,12-12s12,5.383,12,12S34.617,40.5,28,40.5z M28,18.5
			c-5.514,0-10,4.486-10,10s4.486,10,10,10s10-4.486,10-10S33.514,18.5,28,18.5z"/>
	</g>
	<path style="fill:#7D6599;" d="M56,48.5h-9c-0.553,0-1-0.447-1-1s0.447-1,1-1h9c0.553,0,1,0.447,1,1S56.553,48.5,56,48.5z"/>
	<path style="fill:#7D6599;" d="M47,48.5c-0.553,0-1-0.447-1-1v-9c0-0.553,0.447-1,1-1s1,0.447,1,1v9C48,48.053,47.553,48.5,47,48.5
		z"/>
</g>
<g>
</g>
<g>
</g>
<g>
</g>
<g>
</g>
<g>
</g>
<g>
</g>
<g>
</g>
<g>
</g>
<g>
</g>
<g>
</g>
<g>
</g>
<g>
</g>
<g>
</g>
<g>
</g>
<g>
</g>
</svg>
