<?xml version="1.0" encoding="iso-8859-1"?>
<!-- Generator: Adobe Illustrator 18.0.0, SVG Export Plug-In . SVG Version: 6.00 Build 0)  -->
<!DOCTYPE svg PUBLIC "-//W3C//DTD SVG 1.1//EN" "http://www.w3.org/Graphics/SVG/1.1/DTD/svg11.dtd">
<svg version="1.1" id="Capa_1" xmlns="http://www.w3.org/2000/svg" xmlns:xlink="http://www.w3.org/1999/xlink" x="0px" y="0px"
	 viewBox="0 0 53 53" style="enable-background:new 0 0 53 53;" xml:space="preserve">
<g>
	<path style="fill:#26B99A;" d="M30,50c-0.553,0-1-0.447-1-1s0.447-1,1-1c0.637,0,1.278-0.029,1.906-0.086
		c0.542-0.059,1.036,0.356,1.086,0.906s-0.355,1.036-0.906,1.086C31.398,49.969,30.697,50,30,50z M35.924,49.192
		c-0.438,0-0.839-0.289-0.962-0.731c-0.148-0.532,0.163-1.084,0.694-1.231c0.61-0.17,1.22-0.371,1.811-0.597
		c0.513-0.196,1.094,0.063,1.291,0.578c0.196,0.516-0.062,1.094-0.578,1.291c-0.648,0.247-1.317,0.468-1.986,0.653
		C36.104,49.181,36.013,49.192,35.924,49.192z M41.412,46.813c-0.338,0-0.667-0.171-0.855-0.48
		c-0.287-0.472-0.137-1.087,0.335-1.374c0.543-0.33,1.075-0.688,1.583-1.064c0.446-0.329,1.07-0.235,1.399,0.208
		c0.328,0.444,0.235,1.07-0.208,1.399c-0.557,0.412-1.141,0.805-1.735,1.166C41.769,46.766,41.589,46.813,41.412,46.813z
		 M46.054,43.043c-0.245,0-0.491-0.09-0.684-0.271c-0.403-0.378-0.424-1.011-0.046-1.413c0.433-0.462,0.85-0.949,1.241-1.45
		c0.339-0.436,0.967-0.514,1.403-0.173c0.436,0.34,0.513,0.968,0.173,1.403c-0.428,0.549-0.885,1.083-1.358,1.587
		C46.586,42.937,46.32,43.043,46.054,43.043z M49.515,38.166c-0.156,0-0.314-0.036-0.462-0.113c-0.489-0.256-0.679-0.86-0.424-1.35
		c0.293-0.56,0.563-1.142,0.805-1.729c0.21-0.512,0.796-0.756,1.305-0.545c0.511,0.21,0.755,0.794,0.545,1.305
		c-0.264,0.644-0.561,1.281-0.881,1.895C50.224,37.971,49.875,38.166,49.515,38.166z M51.532,32.538
		c-0.068,0-0.137-0.007-0.206-0.021c-0.541-0.113-0.887-0.644-0.773-1.184c0.129-0.618,0.232-1.252,0.307-1.884
		c0.064-0.548,0.57-0.946,1.109-0.877c0.549,0.064,0.941,0.561,0.877,1.109c-0.081,0.691-0.194,1.385-0.336,2.062
		C52.411,32.215,51.995,32.538,51.532,32.538z"/>
	<path style="fill:#26B99A;" d="M52,27c-0.553,0-1-0.447-1-1c0-11.579-9.421-21-21-21S9,14.421,9,26c0,0.553-0.447,1-1,1
		s-1-0.447-1-1C7,13.317,17.317,3,30,3s23,10.317,23,23C53,26.553,52.553,27,52,27z"/>
	<path style="fill:#26B99A;" d="M8,27c-0.256,0-0.512-0.098-0.707-0.293l-7-7c-0.391-0.391-0.391-1.023,0-1.414s1.023-0.391,1.414,0
		l7,7c0.391,0.391,0.391,1.023,0,1.414C8.512,26.902,8.256,27,8,27z"/>
	<path style="fill:#26B99A;" d="M8,27c-0.256,0-0.512-0.098-0.707-0.293c-0.391-0.391-0.391-1.023,0-1.414l7-7
		c0.391-0.391,1.023-0.391,1.414,0s0.391,1.023,0,1.414l-7,7C8.512,26.902,8.256,27,8,27z"/>
</g>
<g>
</g>
<g>
</g>
<g>
</g>
<g>
</g>
<g>
</g>
<g>
</g>
<g>
</g>
<g>
</g>
<g>
</g>
<g>
</g>
<g>
</g>
<g>
</g>
<g>
</g>
<g>
</g>
<g>
</g>
</svg>
