<?xml version="1.0" encoding="iso-8859-1"?>
<!-- Generator: Adobe Illustrator 18.0.0, SVG Export Plug-In . SVG Version: 6.00 Build 0)  -->
<!DOCTYPE svg PUBLIC "-//W3C//DTD SVG 1.1//EN" "http://www.w3.org/Graphics/SVG/1.1/DTD/svg11.dtd">
<svg version="1.1" id="Capa_1" xmlns="http://www.w3.org/2000/svg" xmlns:xlink="http://www.w3.org/1999/xlink" x="0px" y="0px"
	 viewBox="0 0 60 60" style="enable-background:new 0 0 60 60;" xml:space="preserve">
<g>
	<path style="fill:#26B99A;" d="M54.011,43.002c-0.256,0-0.512-0.098-0.707-0.293c-0.391-0.39-0.391-1.023,0-1.414
		C56.332,38.264,58,34.252,58,30c0-8.822-7.178-16-16-16H18c-0.553,0-1-0.447-1-1s0.447-1,1-1h24c9.925,0,18,8.075,18,18
		c0,4.786-1.876,9.3-5.282,12.709C54.522,42.904,54.267,43.002,54.011,43.002z"/>
	<path style="fill:#A4E869;" d="M42,48H18C8.075,48,0,39.925,0,30c0-4.259,1.529-8.396,4.307-11.652
		c0.358-0.421,0.991-0.471,1.41-0.111c0.42,0.358,0.47,0.989,0.111,1.41C3.359,22.54,2,26.217,2,30c0,8.822,7.178,16,16,16h24
		c0.553,0,1,0.447,1,1S42.553,48,42,48z"/>
	<path style="fill:#26B99A;" d="M18,14c-0.256,0-0.512-0.098-0.707-0.293c-0.391-0.391-0.391-1.023,0-1.414l9-9
		c0.391-0.391,1.023-0.391,1.414,0s0.391,1.023,0,1.414l-9,9C18.512,13.902,18.256,14,18,14z"/>
	<path style="fill:#26B99A;" d="M27,23c-0.256,0-0.512-0.098-0.707-0.293l-9-9c-0.391-0.391-0.391-1.023,0-1.414
		s1.023-0.391,1.414,0l9,9c0.391,0.391,0.391,1.023,0,1.414C27.512,22.902,27.256,23,27,23z"/>
	<path style="fill:#A4E869;" d="M35,57c-0.256,0-0.512-0.098-0.707-0.293c-0.391-0.391-0.391-1.023,0-1.414l9-9
		c0.391-0.391,1.023-0.391,1.414,0s0.391,1.023,0,1.414l-9,9C35.512,56.902,35.256,57,35,57z"/>
	<path style="fill:#A4E869;" d="M44,48c-0.256,0-0.512-0.098-0.707-0.293l-9-9c-0.391-0.391-0.391-1.023,0-1.414
		s1.023-0.391,1.414,0l9,9c0.391,0.391,0.391,1.023,0,1.414C44.512,47.902,44.256,48,44,48z"/>
</g>
<g>
</g>
<g>
</g>
<g>
</g>
<g>
</g>
<g>
</g>
<g>
</g>
<g>
</g>
<g>
</g>
<g>
</g>
<g>
</g>
<g>
</g>
<g>
</g>
<g>
</g>
<g>
</g>
<g>
</g>
</svg>
