<?xml version="1.0" encoding="iso-8859-1"?>
<!-- Generator: Adobe Illustrator 18.0.0, SVG Export Plug-In . SVG Version: 6.00 Build 0)  -->
<!DOCTYPE svg PUBLIC "-//W3C//DTD SVG 1.1//EN" "http://www.w3.org/Graphics/SVG/1.1/DTD/svg11.dtd">
<svg version="1.1" id="Capa_1" xmlns="http://www.w3.org/2000/svg" xmlns:xlink="http://www.w3.org/1999/xlink" x="0px" y="0px"
	 viewBox="0 0 47.707 47.707" style="enable-background:new 0 0 47.707 47.707;" xml:space="preserve">
<g>
	<path style="fill:#F0C419;" d="M20,46.561c-11.028,0-20-8.972-20-20v-24c0-0.553,0.448-1,1-1s1,0.447,1,1v24
		c0,9.925,8.075,18,18,18s18-8.075,18-18v-24c0-0.553,0.448-1,1-1s1,0.447,1,1v24C40,37.589,31.028,46.561,20,46.561z"/>
	<polygon style="fill:#F0C419;" points="46.293,11.268 39,3.975 31.707,11.268 30.293,9.854 39,1.146 47.707,9.854 	"/>
</g>
<g>
</g>
<g>
</g>
<g>
</g>
<g>
</g>
<g>
</g>
<g>
</g>
<g>
</g>
<g>
</g>
<g>
</g>
<g>
</g>
<g>
</g>
<g>
</g>
<g>
</g>
<g>
</g>
<g>
</g>
</svg>
