<?xml version="1.0" encoding="iso-8859-1"?>
<!-- Generator: Adobe Illustrator 18.0.0, SVG Export Plug-In . SVG Version: 6.00 Build 0)  -->
<!DOCTYPE svg PUBLIC "-//W3C//DTD SVG 1.1//EN" "http://www.w3.org/Graphics/SVG/1.1/DTD/svg11.dtd">
<svg version="1.1" id="Capa_1" xmlns="http://www.w3.org/2000/svg" xmlns:xlink="http://www.w3.org/1999/xlink" x="0px" y="0px"
	 viewBox="0 0 47.707 47.707" style="enable-background:new 0 0 47.707 47.707;" xml:space="preserve">
<g>
	<path style="fill:#F0C419;" d="M39,46.146c-0.552,0-1-0.447-1-1v-24c0-9.925-8.075-18-18-18s-18,8.075-18,18v24
		c0,0.553-0.448,1-1,1s-1-0.447-1-1v-24c0-11.028,8.972-20,20-20s20,8.972,20,20v24C40,45.699,39.552,46.146,39,46.146z"/>
	<polygon style="fill:#F0C419;" points="39,46.561 30.293,37.854 31.707,36.439 39,43.732 46.293,36.439 47.707,37.854 	"/>
</g>
<g>
</g>
<g>
</g>
<g>
</g>
<g>
</g>
<g>
</g>
<g>
</g>
<g>
</g>
<g>
</g>
<g>
</g>
<g>
</g>
<g>
</g>
<g>
</g>
<g>
</g>
<g>
</g>
<g>
</g>
</svg>
