<?xml version="1.0" encoding="iso-8859-1"?>
<!-- Generator: Adobe Illustrator 18.0.0, SVG Export Plug-In . SVG Version: 6.00 Build 0)  -->
<!DOCTYPE svg PUBLIC "-//W3C//DTD SVG 1.1//EN" "http://www.w3.org/Graphics/SVG/1.1/DTD/svg11.dtd">
<svg version="1.1" id="Capa_1" xmlns="http://www.w3.org/2000/svg" xmlns:xlink="http://www.w3.org/1999/xlink" x="0px" y="0px"
	 viewBox="0 0 47.707 47.707" style="enable-background:new 0 0 47.707 47.707;" xml:space="preserve">
<g>
	<path style="fill:#F0C419;" d="M26.561,40h-24c-0.552,0-1-0.447-1-1s0.448-1,1-1h24c9.925,0,18-8.075,18-18s-8.075-18-18-18h-24
		c-0.552,0-1-0.447-1-1s0.448-1,1-1h24c11.028,0,20,8.972,20,20S37.588,40,26.561,40z"/>
	<polygon style="fill:#F0C419;" points="9.854,47.707 1.146,39 9.854,30.293 11.268,31.707 3.975,39 11.268,46.293 	"/>
</g>
<g>
</g>
<g>
</g>
<g>
</g>
<g>
</g>
<g>
</g>
<g>
</g>
<g>
</g>
<g>
</g>
<g>
</g>
<g>
</g>
<g>
</g>
<g>
</g>
<g>
</g>
<g>
</g>
<g>
</g>
</svg>
