<?xml version="1.0" encoding="iso-8859-1"?>
<!-- Generator: Adobe Illustrator 18.0.0, SVG Export Plug-In . SVG Version: 6.00 Build 0)  -->
<!DOCTYPE svg PUBLIC "-//W3C//DTD SVG 1.1//EN" "http://www.w3.org/Graphics/SVG/1.1/DTD/svg11.dtd">
<svg version="1.1" id="Capa_1" xmlns="http://www.w3.org/2000/svg" xmlns:xlink="http://www.w3.org/1999/xlink" x="0px" y="0px"
	 viewBox="0 0 47.707 47.707" style="enable-background:new 0 0 47.707 47.707;" xml:space="preserve">
<g>
	<path style="fill:#F0C419;" d="M45.146,47.707h-24c-11.028,0-20-8.972-20-20s8.972-20,20-20h24c0.552,0,1,0.447,1,1s-0.448,1-1,1
		h-24c-9.925,0-18,8.075-18,18s8.075,18,18,18h24c0.552,0,1,0.447,1,1S45.699,47.707,45.146,47.707z"/>
	<polygon style="fill:#F0C419;" points="37.854,17.414 36.439,16 43.732,8.707 36.439,1.414 37.854,0 46.561,8.707 	"/>
</g>
<g>
</g>
<g>
</g>
<g>
</g>
<g>
</g>
<g>
</g>
<g>
</g>
<g>
</g>
<g>
</g>
<g>
</g>
<g>
</g>
<g>
</g>
<g>
</g>
<g>
</g>
<g>
</g>
<g>
</g>
</svg>
