<?xml version="1.0" encoding="iso-8859-1"?>
<!-- Generator: Adobe Illustrator 18.0.0, SVG Export Plug-In . SVG Version: 6.00 Build 0)  -->
<!DOCTYPE svg PUBLIC "-//W3C//DTD SVG 1.1//EN" "http://www.w3.org/Graphics/SVG/1.1/DTD/svg11.dtd">
<svg version="1.1" id="Capa_1" xmlns="http://www.w3.org/2000/svg" xmlns:xlink="http://www.w3.org/1999/xlink" x="0px" y="0px"
	 viewBox="0 0 60 60" style="enable-background:new 0 0 60 60;" xml:space="preserve">
<g>
	<path style="fill:#546A79;" d="M44,34.5c-0.552,0-1-0.447-1-1c0-7.72-6.28-14-14-14s-14,6.28-14,14c0,0.553-0.448,1-1,1
		s-1-0.447-1-1c0-8.822,7.178-16,16-16s16,7.178,16,16C45,34.053,44.552,34.5,44,34.5z"/>
	<path style="fill:#546A79;" d="M14,34.5H1c-0.552,0-1-0.447-1-1s0.448-1,1-1h13c0.552,0,1,0.447,1,1S14.552,34.5,14,34.5z"/>
	<path style="fill:#546A79;" d="M59,34.5H44c-0.552,0-1-0.447-1-1s0.448-1,1-1h15c0.553,0,1,0.447,1,1S59.553,34.5,59,34.5z"/>
	<path style="fill:#546A79;" d="M59,34.5c-0.256,0-0.512-0.098-0.707-0.293l-8-8c-0.391-0.391-0.391-1.023,0-1.414
		s1.023-0.391,1.414,0l8,8c0.391,0.391,0.391,1.023,0,1.414C59.512,34.402,59.256,34.5,59,34.5z"/>
	<path style="fill:#546A79;" d="M51,42.5c-0.256,0-0.512-0.098-0.707-0.293c-0.391-0.391-0.391-1.023,0-1.414l8-8
		c0.391-0.391,1.023-0.391,1.414,0s0.391,1.023,0,1.414l-8,8C51.512,42.402,51.256,42.5,51,42.5z"/>
	<g>
		<circle style="fill:#F3D55B;" cx="29" cy="33.5" r="8"/>
		<path style="fill:#F3D55B;" d="M29,42.5c-4.962,0-9-4.037-9-9s4.038-9,9-9s9,4.037,9,9S33.962,42.5,29,42.5z M29,26.5
			c-3.86,0-7,3.141-7,7s3.14,7,7,7s7-3.141,7-7S32.86,26.5,29,26.5z"/>
	</g>
</g>
<g>
</g>
<g>
</g>
<g>
</g>
<g>
</g>
<g>
</g>
<g>
</g>
<g>
</g>
<g>
</g>
<g>
</g>
<g>
</g>
<g>
</g>
<g>
</g>
<g>
</g>
<g>
</g>
<g>
</g>
</svg>
