<?xml version="1.0" encoding="iso-8859-1"?>
<!-- Generator: Adobe Illustrator 18.0.0, SVG Export Plug-In . SVG Version: 6.00 Build 0)  -->
<!DOCTYPE svg PUBLIC "-//W3C//DTD SVG 1.1//EN" "http://www.w3.org/Graphics/SVG/1.1/DTD/svg11.dtd">
<svg version="1.1" id="Capa_1" xmlns="http://www.w3.org/2000/svg" xmlns:xlink="http://www.w3.org/1999/xlink" x="0px" y="0px"
	 viewBox="0 0 54 54" style="enable-background:new 0 0 54 54;" xml:space="preserve">
<g>
	<path style="fill:#57B0E3;" d="M46,28H1c-0.553,0-1-0.448-1-1s0.447-1,1-1h45c0.553,0,1,0.448,1,1S46.553,28,46,28z"/>
	<path style="fill:#57B0E3;" d="M46,28c-0.256,0-0.512-0.098-0.707-0.293l-16-16c-0.391-0.391-0.391-1.023,0-1.414
		s1.023-0.391,1.414,0l16,16c0.391,0.391,0.391,1.023,0,1.414C46.512,27.902,46.256,28,46,28z"/>
	<path style="fill:#57B0E3;" d="M30,44c-0.256,0-0.512-0.098-0.707-0.293c-0.391-0.391-0.391-1.023,0-1.414l16-16
		c0.391-0.391,1.023-0.391,1.414,0s0.391,1.023,0,1.414l-16,16C30.512,43.902,30.256,44,30,44z"/>
	<path style="fill:#57B0E3;" d="M53,44c-0.553,0-1-0.448-1-1V11c0-0.552,0.447-1,1-1s1,0.448,1,1v32C54,43.552,53.553,44,53,44z"/>
</g>
<g>
</g>
<g>
</g>
<g>
</g>
<g>
</g>
<g>
</g>
<g>
</g>
<g>
</g>
<g>
</g>
<g>
</g>
<g>
</g>
<g>
</g>
<g>
</g>
<g>
</g>
<g>
</g>
<g>
</g>
</svg>
