<?xml version="1.0" encoding="iso-8859-1"?>
<!-- Generator: Adobe Illustrator 18.0.0, SVG Export Plug-In . SVG Version: 6.00 Build 0)  -->
<!DOCTYPE svg PUBLIC "-//W3C//DTD SVG 1.1//EN" "http://www.w3.org/Graphics/SVG/1.1/DTD/svg11.dtd">
<svg version="1.1" id="Capa_1" xmlns="http://www.w3.org/2000/svg" xmlns:xlink="http://www.w3.org/1999/xlink" x="0px" y="0px"
	 viewBox="0 0 60 60" style="enable-background:new 0 0 60 60;" xml:space="preserve">
<g>
	<path style="fill:#546A79;" d="M59,33.5H44c-0.553,0-1-0.447-1-1s0.447-1,1-1h15c0.553,0,1,0.447,1,1S59.553,33.5,59,33.5z"/>
	<path style="fill:#546A79;" d="M16,33.5H1c-0.553,0-1-0.447-1-1s0.447-1,1-1h15c0.553,0,1,0.447,1,1S16.553,33.5,16,33.5z"/>
	<path style="fill:#546A79;" d="M59,33.5c-0.256,0-0.512-0.098-0.707-0.293l-8-8c-0.391-0.391-0.391-1.023,0-1.414
		s1.023-0.391,1.414,0l8,8c0.391,0.391,0.391,1.023,0,1.414C59.512,33.402,59.256,33.5,59,33.5z"/>
	<path style="fill:#546A79;" d="M51,41.5c-0.256,0-0.512-0.098-0.707-0.293c-0.391-0.391-0.391-1.023,0-1.414l8-8
		c0.391-0.391,1.023-0.391,1.414,0s0.391,1.023,0,1.414l-8,8C51.512,41.402,51.256,41.5,51,41.5z"/>
	<path style="fill:#546A79;" d="M44,33.5c-0.553,0-1-0.447-1-1v-13H17v13c0,0.553-0.447,1-1,1s-1-0.447-1-1v-15h30v15
		C45,33.053,44.553,33.5,44,33.5z"/>
	<g>
		<rect x="21" y="23.5" style="fill:#F3D55B;" width="18" height="18"/>
		<path style="fill:#F3D55B;" d="M40,42.5H20v-20h20V42.5z M22,40.5h16v-16H22V40.5z"/>
	</g>
</g>
<g>
</g>
<g>
</g>
<g>
</g>
<g>
</g>
<g>
</g>
<g>
</g>
<g>
</g>
<g>
</g>
<g>
</g>
<g>
</g>
<g>
</g>
<g>
</g>
<g>
</g>
<g>
</g>
<g>
</g>
</svg>
