<?xml version="1.0" encoding="iso-8859-1"?>
<!-- Generator: Adobe Illustrator 18.0.0, SVG Export Plug-In . SVG Version: 6.00 Build 0)  -->
<!DOCTYPE svg PUBLIC "-//W3C//DTD SVG 1.1//EN" "http://www.w3.org/Graphics/SVG/1.1/DTD/svg11.dtd">
<svg version="1.1" id="Capa_1" xmlns="http://www.w3.org/2000/svg" xmlns:xlink="http://www.w3.org/1999/xlink" x="0px" y="0px"
	 viewBox="0 0 60 60" style="enable-background:new 0 0 60 60;" xml:space="preserve">
<g>
	<path style="fill:#B1E97C;" d="M15,43h-2c-0.553,0-1-0.447-1-1s0.447-1,1-1h2c0.553,0,1,0.447,1,1S15.553,43,15,43z M9,43H7
		c-0.553,0-1-0.447-1-1s0.447-1,1-1h2c0.553,0,1,0.447,1,1S9.553,43,9,43z M3,43H1c-0.553,0-1-0.447-1-1s0.447-1,1-1h2
		c0.553,0,1,0.447,1,1S3.553,43,3,43z M18.989,42.836c-0.48,0-0.904-0.347-0.985-0.836c-0.091-0.545,0.277-1.061,0.822-1.15
		c0.603-0.1,1.198-0.251,1.772-0.45c0.521-0.18,1.091,0.097,1.272,0.618c0.181,0.522-0.097,1.092-0.618,1.272
		c-0.681,0.235-1.387,0.414-2.099,0.532C19.099,42.832,19.043,42.836,18.989,42.836z M24.42,40.437
		c-0.296,0-0.589-0.131-0.786-0.381c-0.342-0.435-0.268-1.063,0.166-1.404c0.48-0.379,0.933-0.799,1.343-1.25
		c0.372-0.406,1.004-0.438,1.413-0.065c0.408,0.372,0.438,1.004,0.065,1.413c-0.484,0.531-1.017,1.026-1.583,1.473
		C24.854,40.366,24.636,40.437,24.42,40.437z M28.035,35.728c-0.132,0-0.266-0.026-0.395-0.081
		c-0.508-0.218-0.742-0.806-0.524-1.313c0.24-0.56,0.435-1.144,0.578-1.736c0.129-0.536,0.673-0.866,1.207-0.736
		c0.536,0.13,0.866,0.67,0.736,1.207c-0.169,0.701-0.399,1.393-0.684,2.055C28.791,35.501,28.423,35.728,28.035,35.728z
		 M29.054,29.862c-0.031,0-0.063-0.001-0.095-0.005c-0.55-0.052-0.954-0.539-0.901-1.089c0.067-0.72,0.195-1.437,0.379-2.129
		c0.143-0.533,0.692-0.848,1.224-0.71c0.534,0.143,0.852,0.689,0.71,1.224c-0.156,0.586-0.265,1.192-0.322,1.803
		C29.999,29.475,29.563,29.862,29.054,29.862z M31.056,24.274c-0.193,0-0.389-0.056-0.561-0.173
		c-0.457-0.31-0.576-0.932-0.266-1.389c0.403-0.595,0.86-1.161,1.356-1.684c0.382-0.399,1.016-0.413,1.414-0.035
		c0.4,0.381,0.416,1.014,0.035,1.414c-0.422,0.442-0.809,0.923-1.151,1.428C31.69,24.121,31.376,24.274,31.056,24.274z
		 M35.496,20.332c-0.362,0-0.712-0.197-0.89-0.541c-0.253-0.49-0.061-1.094,0.43-1.348c0.643-0.332,1.315-0.61,2-0.829
		c0.529-0.169,1.089,0.123,1.257,0.649c0.167,0.526-0.123,1.089-0.649,1.257c-0.578,0.184-1.146,0.419-1.689,0.7
		C35.808,20.296,35.65,20.332,35.496,20.332z M55.279,19h-2c-0.553,0-1-0.447-1-1s0.447-1,1-1h2c0.553,0,1,0.447,1,1
		S55.832,19,55.279,19z M49.279,19h-2c-0.553,0-1-0.447-1-1s0.447-1,1-1h2c0.553,0,1,0.447,1,1S49.832,19,49.279,19z M43.279,19h-2
		c-0.553,0-1-0.447-1-1s0.447-1,1-1h2c0.553,0,1,0.447,1,1S43.832,19,43.279,19z"/>
	<path style="fill:#B1E97C;" d="M59,19c-0.256,0-0.512-0.098-0.707-0.293l-8-8c-0.391-0.391-0.391-1.023,0-1.414
		s1.023-0.391,1.414,0l8,8c0.391,0.391,0.391,1.023,0,1.414C59.512,18.902,59.256,19,59,19z"/>
	<path style="fill:#B1E97C;" d="M51,27c-0.256,0-0.512-0.098-0.707-0.293c-0.391-0.391-0.391-1.023,0-1.414l8-8
		c0.391-0.391,1.023-0.391,1.414,0s0.391,1.023,0,1.414l-8,8C51.512,26.902,51.256,27,51,27z"/>
	<path style="fill:#26B99A;" d="M59.923,42.382c0.101-0.244,0.101-0.519,0-0.764c-0.051-0.123-0.125-0.234-0.217-0.326l-7.999-7.999
		c-0.391-0.391-1.023-0.391-1.414,0s-0.391,1.023,0,1.414L56.586,41H41c-6.065,0-11-4.935-11-11c0-7.168-5.832-13-13-13H1
		c-0.553,0-1,0.447-1,1s0.447,1,1,1h16c6.065,0,11,4.935,11,11c0,7.168,5.832,13,13,13h15.586l-6.293,6.293
		c-0.391,0.391-0.391,1.023,0,1.414C50.488,50.902,50.744,51,51,51s0.512-0.098,0.707-0.293l7.999-7.999
		C59.799,42.616,59.872,42.505,59.923,42.382z"/>
</g>
<g>
</g>
<g>
</g>
<g>
</g>
<g>
</g>
<g>
</g>
<g>
</g>
<g>
</g>
<g>
</g>
<g>
</g>
<g>
</g>
<g>
</g>
<g>
</g>
<g>
</g>
<g>
</g>
<g>
</g>
</svg>
