<?xml version="1.0" encoding="iso-8859-1"?>
<!-- Generator: Adobe Illustrator 18.0.0, SVG Export Plug-In . SVG Version: 6.00 Build 0)  -->
<!DOCTYPE svg PUBLIC "-//W3C//DTD SVG 1.1//EN" "http://www.w3.org/Graphics/SVG/1.1/DTD/svg11.dtd">
<svg version="1.1" id="Capa_1" xmlns="http://www.w3.org/2000/svg" xmlns:xlink="http://www.w3.org/1999/xlink" x="0px" y="0px"
	 viewBox="0 0 59.999 59.999" style="enable-background:new 0 0 59.999 59.999;" xml:space="preserve">
<g>
	<path style="fill:#26B99A;" d="M9,16.999H1c-0.553,0-1,0.447-1,1s0.447,1,1,1h8c6.065,0,11,4.935,11,11s-4.935,11-11,11H1
		c-0.553,0-1,0.447-1,1s0.447,1,1,1h8c7.168,0,13-5.832,13-13S16.168,16.999,9,16.999z"/>
	<path style="fill:#26B99A;" d="M59.923,41.618c-0.051-0.123-0.125-0.234-0.217-0.326l-7.999-7.999
		c-0.391-0.391-1.023-0.391-1.414,0s-0.391,1.023,0,1.414l6.293,6.293H33c-6.065,0-11-4.935-11-11s4.935-11,11-11h23.586
		l-6.293,6.293c-0.391,0.391-0.391,1.023,0,1.414c0.195,0.195,0.451,0.293,0.707,0.293s0.512-0.098,0.707-0.293l7.999-7.999
		c0.093-0.092,0.166-0.203,0.217-0.326c0.101-0.244,0.101-0.519,0-0.764c-0.051-0.123-0.125-0.234-0.217-0.326l-7.999-7.999
		c-0.391-0.391-1.023-0.391-1.414,0s-0.391,1.023,0,1.414l6.293,6.293H33c-7.168,0-13,5.832-13,13s5.832,13,13,13h23.586
		l-6.293,6.293c-0.391,0.391-0.391,1.023,0,1.414c0.195,0.195,0.451,0.293,0.707,0.293s0.512-0.098,0.707-0.293l7.999-7.999
		c0.093-0.092,0.166-0.203,0.217-0.326C60.024,42.137,60.024,41.862,59.923,41.618z"/>
	<path style="fill:#B1E97C;" d="M36,30.999h-2c-0.553,0-1-0.447-1-1s0.447-1,1-1h2c0.553,0,1,0.447,1,1S36.553,30.999,36,30.999z
		 M30,30.999h-2c-0.553,0-1-0.447-1-1s0.447-1,1-1h2c0.553,0,1,0.447,1,1S30.553,30.999,30,30.999z M24,30.999h-2
		c-0.553,0-1-0.447-1-1s0.447-1,1-1h2c0.553,0,1,0.447,1,1S24.553,30.999,24,30.999z M18,30.999h-2c-0.553,0-1-0.447-1-1
		s0.447-1,1-1h2c0.553,0,1,0.447,1,1S18.553,30.999,18,30.999z M12,30.999h-2c-0.553,0-1-0.447-1-1s0.447-1,1-1h2
		c0.553,0,1,0.447,1,1S12.553,30.999,12,30.999z M6,30.999H4c-0.553,0-1-0.447-1-1s0.447-1,1-1h2c0.553,0,1,0.447,1,1
		S6.553,30.999,6,30.999z"/>
	<path style="fill:#B1E97C;" d="M39,30.999c-0.256,0-0.512-0.098-0.707-0.293l-6-6c-0.391-0.391-0.391-1.023,0-1.414
		s1.023-0.391,1.414,0l6,6c0.391,0.391,0.391,1.023,0,1.414C39.512,30.902,39.256,30.999,39,30.999z"/>
	<path style="fill:#B1E97C;" d="M33,36.999c-0.256,0-0.512-0.098-0.707-0.293c-0.391-0.391-0.391-1.023,0-1.414l6-6
		c0.391-0.391,1.023-0.391,1.414,0s0.391,1.023,0,1.414l-6,6C33.512,36.902,33.256,36.999,33,36.999z"/>
</g>
<g>
</g>
<g>
</g>
<g>
</g>
<g>
</g>
<g>
</g>
<g>
</g>
<g>
</g>
<g>
</g>
<g>
</g>
<g>
</g>
<g>
</g>
<g>
</g>
<g>
</g>
<g>
</g>
<g>
</g>
</svg>
