<?xml version="1.0" encoding="iso-8859-1"?>
<!-- Generator: Adobe Illustrator 18.0.0, SVG Export Plug-In . SVG Version: 6.00 Build 0)  -->
<!DOCTYPE svg PUBLIC "-//W3C//DTD SVG 1.1//EN" "http://www.w3.org/Graphics/SVG/1.1/DTD/svg11.dtd">
<svg version="1.1" id="Capa_1" xmlns="http://www.w3.org/2000/svg" xmlns:xlink="http://www.w3.org/1999/xlink" x="0px" y="0px"
	 viewBox="0 0 52 52" style="enable-background:new 0 0 52 52;" xml:space="preserve">
<g>
	<path style="fill:#26B99A;" d="M7.997,39.93c-0.278,0-0.554-0.115-0.752-0.341C-0.742,30.488-0.331,16.691,8.18,8.181
		C12.491,3.87,18.222,1.5,24.331,1.5c0.039,0,0.078,0,0.118,0c6.135,0.03,11.909,2.443,16.258,6.793
		c0.391,0.391,0.391,1.023,0,1.414s-1.023,0.391-1.414,0c-3.975-3.975-9.25-6.179-14.854-6.207
		C18.818,3.506,13.552,5.637,9.594,9.595c-7.768,7.769-8.14,20.364-0.846,28.676c0.364,0.415,0.323,1.047-0.092,1.411
		C8.467,39.848,8.231,39.93,7.997,39.93z"/>
	<path style="fill:#A4E869;" d="M27.669,50.5c-0.039,0-0.078,0-0.118,0c-6.135-0.03-11.909-2.443-16.258-6.793
		c-0.391-0.391-0.391-1.023,0-1.414s1.023-0.391,1.414,0c3.975,3.975,9.25,6.179,14.854,6.207
		c5.628,0.038,10.887-2.137,14.845-6.095c7.771-7.771,8.14-20.37,0.84-28.682c-0.364-0.415-0.323-1.047,0.092-1.411
		c0.415-0.364,1.047-0.322,1.411,0.091c7.994,9.103,7.586,22.901-0.929,31.416C39.508,48.13,33.777,50.5,27.669,50.5z"/>
	<path style="fill:#A4E869;" d="M21,44h-9c-0.552,0-1-0.447-1-1s0.448-1,1-1h9c0.552,0,1,0.447,1,1S21.552,44,21,44z"/>
	<path style="fill:#A4E869;" d="M12,52c-0.552,0-1-0.447-1-1v-8c0-0.553,0.448-1,1-1s1,0.447,1,1v8C13,51.553,12.552,52,12,52z"/>
	<path style="fill:#26B99A;" d="M40,10h-9c-0.552,0-1-0.447-1-1s0.448-1,1-1h9c0.552,0,1,0.447,1,1S40.552,10,40,10z"/>
	<path style="fill:#26B99A;" d="M40,10c-0.552,0-1-0.447-1-1V1c0-0.553,0.448-1,1-1s1,0.447,1,1v8C41,9.553,40.552,10,40,10z"/>
</g>
<g>
</g>
<g>
</g>
<g>
</g>
<g>
</g>
<g>
</g>
<g>
</g>
<g>
</g>
<g>
</g>
<g>
</g>
<g>
</g>
<g>
</g>
<g>
</g>
<g>
</g>
<g>
</g>
<g>
</g>
</svg>
