<?xml version="1.0" encoding="iso-8859-1"?>
<!-- Generator: Adobe Illustrator 18.0.0, SVG Export Plug-In . SVG Version: 6.00 Build 0)  -->
<!DOCTYPE svg PUBLIC "-//W3C//DTD SVG 1.1//EN" "http://www.w3.org/Graphics/SVG/1.1/DTD/svg11.dtd">
<svg version="1.1" id="Capa_1" xmlns="http://www.w3.org/2000/svg" xmlns:xlink="http://www.w3.org/1999/xlink" x="0px" y="0px"
	 viewBox="0 0 58 58" style="enable-background:new 0 0 58 58;" xml:space="preserve">
<g>
	<rect x="11.5" y="21" style="fill:#546A79;" width="2" height="24"/>
	<path style="fill:#546A79;" d="M6.5,28c-0.256,0-0.512-0.098-0.707-0.293c-0.391-0.391-0.391-1.023,0-1.414l6-6
		c0.391-0.391,1.023-0.391,1.414,0s0.391,1.023,0,1.414l-6,6C7.012,27.902,6.756,28,6.5,28z"/>
	<path style="fill:#546A79;" d="M18.5,28c-0.256,0-0.512-0.098-0.707-0.293l-6-6c-0.391-0.391-0.391-1.023,0-1.414
		s1.023-0.391,1.414,0l6,6c0.391,0.391,0.391,1.023,0,1.414C19.012,27.902,18.756,28,18.5,28z"/>
	<path style="fill:#546A79;" d="M31.5,14c-0.256,0-0.512-0.098-0.707-0.293l-6-6c-0.391-0.391-0.391-1.023,0-1.414
		s1.023-0.391,1.414,0l6,6c0.391,0.391,0.391,1.023,0,1.414C32.012,13.902,31.756,14,31.5,14z"/>
	<path style="fill:#546A79;" d="M25.5,8c-0.256,0-0.512-0.098-0.707-0.293c-0.391-0.391-0.391-1.023,0-1.414l6-6
		c0.391-0.391,1.023-0.391,1.414,0s0.391,1.023,0,1.414l-6,6C26.012,7.902,25.756,8,25.5,8z"/>
	<path style="fill:#546A79;" d="M45.5,46c-0.552,0-1-0.447-1-1V16.774C44.5,11.937,40.564,8,35.726,8H25.5c-0.552,0-1-0.447-1-1
		s0.448-1,1-1h10.226C41.667,6,46.5,10.833,46.5,16.774V45C46.5,45.553,46.052,46,45.5,46z"/>
	<g>
		<circle style="fill:#25C3AA;" cx="12.5" cy="51" r="6"/>
		<path style="fill:#25C3AA;" d="M12.5,58c-3.86,0-7-3.141-7-7s3.14-7,7-7s7,3.141,7,7S16.36,58,12.5,58z M12.5,46
			c-2.757,0-5,2.243-5,5s2.243,5,5,5s5-2.243,5-5S15.257,46,12.5,46z"/>
	</g>
	<g>
		<circle style="fill:#4DE2C9;" cx="12.5" cy="7" r="6"/>
		<path style="fill:#4DE2C9;" d="M12.5,14c-3.86,0-7-3.141-7-7s3.14-7,7-7s7,3.141,7,7S16.36,14,12.5,14z M12.5,2
			c-2.757,0-5,2.243-5,5s2.243,5,5,5s5-2.243,5-5S15.257,2,12.5,2z"/>
	</g>
	<g>
		<circle style="fill:#2C8475;" cx="45.5" cy="51" r="6"/>
		<path style="fill:#2C8475;" d="M45.5,58c-3.86,0-7-3.141-7-7s3.14-7,7-7s7,3.141,7,7S49.36,58,45.5,58z M45.5,46
			c-2.757,0-5,2.243-5,5s2.243,5,5,5s5-2.243,5-5S48.257,46,45.5,46z"/>
	</g>
</g>
<g>
</g>
<g>
</g>
<g>
</g>
<g>
</g>
<g>
</g>
<g>
</g>
<g>
</g>
<g>
</g>
<g>
</g>
<g>
</g>
<g>
</g>
<g>
</g>
<g>
</g>
<g>
</g>
<g>
</g>
</svg>
