<?xml version="1.0" encoding="iso-8859-1"?>
<!-- Generator: Adobe Illustrator 18.0.0, SVG Export Plug-In . SVG Version: 6.00 Build 0)  -->
<!DOCTYPE svg PUBLIC "-//W3C//DTD SVG 1.1//EN" "http://www.w3.org/Graphics/SVG/1.1/DTD/svg11.dtd">
<svg version="1.1" id="Capa_1" xmlns="http://www.w3.org/2000/svg" xmlns:xlink="http://www.w3.org/1999/xlink" x="0px" y="0px"
	 viewBox="0 0 58 58" style="enable-background:new 0 0 58 58;" xml:space="preserve">
<g>
	<rect x="11.5" y="21" style="fill:#546A79;" width="2" height="24"/>
	<path style="fill:#546A79;" d="M6.5,28c-0.256,0-0.512-0.098-0.707-0.293c-0.391-0.391-0.391-1.023,0-1.414l6-6
		c0.391-0.391,1.023-0.391,1.414,0s0.391,1.023,0,1.414l-6,6C7.012,27.902,6.756,28,6.5,28z"/>
	<path style="fill:#546A79;" d="M18.5,28c-0.256,0-0.512-0.098-0.707-0.293l-6-6c-0.391-0.391-0.391-1.023,0-1.414
		s1.023-0.391,1.414,0l6,6c0.391,0.391,0.391,1.023,0,1.414C19.012,27.902,18.756,28,18.5,28z"/>
	<path style="fill:#546A79;" d="M31.5,14c-0.256,0-0.512-0.098-0.707-0.293l-6-6c-0.391-0.391-0.391-1.023,0-1.414
		s1.023-0.391,1.414,0l6,6c0.391,0.391,0.391,1.023,0,1.414C32.012,13.902,31.756,14,31.5,14z"/>
	<path style="fill:#546A79;" d="M25.5,8c-0.256,0-0.512-0.098-0.707-0.293c-0.391-0.391-0.391-1.023,0-1.414l6-6
		c0.391-0.391,1.023-0.391,1.414,0s0.391,1.023,0,1.414l-6,6C26.012,7.902,25.756,8,25.5,8z"/>
	<path style="fill:#546A79;" d="M45.5,46c-0.552,0-1-0.447-1-1v-3c0-0.553,0.448-1,1-1s1,0.447,1,1v3C46.5,45.553,46.052,46,45.5,46
		z M45.5,39c-0.552,0-1-0.447-1-1v-2c0-0.553,0.448-1,1-1s1,0.447,1,1v2C46.5,38.553,46.052,39,45.5,39z M45.5,33
		c-0.552,0-1-0.447-1-1v-2c0-0.553,0.448-1,1-1s1,0.447,1,1v2C46.5,32.553,46.052,33,45.5,33z M45.5,27c-0.552,0-1-0.447-1-1v-3
		c0-0.553,0.448-1,1-1s1,0.447,1,1v3C46.5,26.553,46.052,27,45.5,27z M45.5,20c-0.552,0-1-0.447-1-1v-2c0-0.553,0.448-1,1-1
		s1,0.447,1,1v2C46.5,19.553,46.052,20,45.5,20z M44.783,14.094c-0.395,0-0.769-0.235-0.927-0.623
		c-0.224-0.552-0.507-1.084-0.841-1.581c-0.308-0.459-0.186-1.08,0.272-1.388c0.46-0.311,1.08-0.186,1.388,0.272
		c0.41,0.611,0.758,1.265,1.034,1.942c0.208,0.512-0.038,1.096-0.55,1.304C45.036,14.07,44.909,14.094,44.783,14.094z M41.009,9.55
		c-0.186,0-0.373-0.052-0.541-0.159c-0.758-0.488-1.582-0.855-2.45-1.089c-0.533-0.145-0.849-0.693-0.705-1.227
		c0.144-0.534,0.691-0.849,1.226-0.705c1.067,0.288,2.08,0.739,3.011,1.339c0.464,0.3,0.598,0.918,0.299,1.383
		C41.66,9.388,41.338,9.55,41.009,9.55z M34.311,8h-2c-0.552,0-1-0.447-1-1s0.448-1,1-1h2c0.552,0,1,0.447,1,1S34.863,8,34.311,8z
		 M28.311,8h-2c-0.552,0-1-0.447-1-1s0.448-1,1-1h2c0.552,0,1,0.447,1,1S28.863,8,28.311,8z"/>
	<g>
		<circle style="fill:#F0785A;" cx="12.5" cy="51" r="6"/>
		<path style="fill:#F0785A;" d="M12.5,58c-3.86,0-7-3.141-7-7s3.14-7,7-7s7,3.141,7,7S16.36,58,12.5,58z M12.5,46
			c-2.757,0-5,2.243-5,5s2.243,5,5,5s5-2.243,5-5S15.257,46,12.5,46z"/>
	</g>
	<g>
		<circle style="fill:#F29C1F;" cx="12.5" cy="7" r="6"/>
		<path style="fill:#F29C1F;" d="M12.5,14c-3.86,0-7-3.141-7-7s3.14-7,7-7s7,3.141,7,7S16.36,14,12.5,14z M12.5,2
			c-2.757,0-5,2.243-5,5s2.243,5,5,5s5-2.243,5-5S15.257,2,12.5,2z"/>
	</g>
	<g>
		<circle style="fill:#F3D55B;" cx="45.5" cy="51" r="6"/>
		<path style="fill:#F3D55B;" d="M45.5,58c-3.86,0-7-3.141-7-7s3.14-7,7-7s7,3.141,7,7S49.36,58,45.5,58z M45.5,46
			c-2.757,0-5,2.243-5,5s2.243,5,5,5s5-2.243,5-5S48.257,46,45.5,46z"/>
	</g>
</g>
<g>
</g>
<g>
</g>
<g>
</g>
<g>
</g>
<g>
</g>
<g>
</g>
<g>
</g>
<g>
</g>
<g>
</g>
<g>
</g>
<g>
</g>
<g>
</g>
<g>
</g>
<g>
</g>
<g>
</g>
</svg>
