<?xml version="1.0" encoding="iso-8859-1"?>
<!-- Generator: Adobe Illustrator 18.0.0, SVG Export Plug-In . SVG Version: 6.00 Build 0)  -->
<!DOCTYPE svg PUBLIC "-//W3C//DTD SVG 1.1//EN" "http://www.w3.org/Graphics/SVG/1.1/DTD/svg11.dtd">
<svg version="1.1" id="Capa_1" xmlns="http://www.w3.org/2000/svg" xmlns:xlink="http://www.w3.org/1999/xlink" x="0px" y="0px"
	 viewBox="0 0 60 60" style="enable-background:new 0 0 60 60;" xml:space="preserve">
<g>
	<path style="fill:#26B99A;" d="M5.989,43.002c-0.256,0-0.512-0.098-0.708-0.293C1.876,39.3,0,34.786,0,30c0-9.925,8.075-18,18-18
		h24c0.552,0,1,0.447,1,1s-0.448,1-1,1H18C9.178,14,2,21.178,2,30c0,4.253,1.668,8.264,4.697,11.295c0.39,0.391,0.39,1.024,0,1.414
		C6.501,42.904,6.245,43.002,5.989,43.002z"/>
	<path style="fill:#A4E869;" d="M42,48H18c-0.552,0-1-0.447-1-1s0.448-1,1-1h24c8.822,0,16-7.178,16-16
		c0-3.782-1.359-7.459-3.828-10.354c-0.358-0.42-0.309-1.051,0.112-1.409c0.418-0.359,1.051-0.309,1.409,0.112
		C58.471,21.604,60,25.743,60,30C60,39.925,51.925,48,42,48z"/>
	<path style="fill:#26B99A;" d="M42,14c-0.256,0-0.512-0.098-0.707-0.293l-9-9c-0.391-0.391-0.391-1.023,0-1.414
		s1.023-0.391,1.414,0l9,9c0.391,0.391,0.391,1.023,0,1.414C42.512,13.902,42.256,14,42,14z"/>
	<path style="fill:#26B99A;" d="M33,23c-0.256,0-0.512-0.098-0.707-0.293c-0.391-0.391-0.391-1.023,0-1.414l9-9
		c0.391-0.391,1.023-0.391,1.414,0s0.391,1.023,0,1.414l-9,9C33.512,22.902,33.256,23,33,23z"/>
	<path style="fill:#A4E869;" d="M25,57c-0.256,0-0.512-0.098-0.707-0.293l-9-9c-0.391-0.391-0.391-1.023,0-1.414
		s1.023-0.391,1.414,0l9,9c0.391,0.391,0.391,1.023,0,1.414C25.512,56.902,25.256,57,25,57z"/>
	<path style="fill:#A4E869;" d="M16,48c-0.256,0-0.512-0.098-0.707-0.293c-0.391-0.391-0.391-1.023,0-1.414l9-9
		c0.391-0.391,1.023-0.391,1.414,0s0.391,1.023,0,1.414l-9,9C16.512,47.902,16.256,48,16,48z"/>
</g>
<g>
</g>
<g>
</g>
<g>
</g>
<g>
</g>
<g>
</g>
<g>
</g>
<g>
</g>
<g>
</g>
<g>
</g>
<g>
</g>
<g>
</g>
<g>
</g>
<g>
</g>
<g>
</g>
<g>
</g>
</svg>
