<?xml version="1.0" encoding="iso-8859-1"?>
<!-- Generator: Adobe Illustrator 18.0.0, SVG Export Plug-In . SVG Version: 6.00 Build 0)  -->
<!DOCTYPE svg PUBLIC "-//W3C//DTD SVG 1.1//EN" "http://www.w3.org/Graphics/SVG/1.1/DTD/svg11.dtd">
<svg version="1.1" id="Capa_1" xmlns="http://www.w3.org/2000/svg" xmlns:xlink="http://www.w3.org/1999/xlink" x="0px" y="0px"
	 viewBox="0 0 60 60" style="enable-background:new 0 0 60 60;" xml:space="preserve">
<g>
	<g>
		<circle style="fill:#CC66A1;" cx="24" cy="30" r="23"/>
		<path style="fill:#CC66A1;" d="M24,54C10.767,54,0,43.233,0,30S10.767,6,24,6s24,10.767,24,24S37.233,54,24,54z M24,8
			C11.869,8,2,17.869,2,30s9.869,22,22,22s22-9.869,22-22S36.131,8,24,8z"/>
	</g>
	<path style="fill:#99527E;" d="M59,18H28c-0.553,0-1-0.447-1-1s0.447-1,1-1h31c0.553,0,1,0.447,1,1S59.553,18,59,18z"/>
	<path style="fill:#99527E;" d="M59,18c-0.256,0-0.512-0.098-0.707-0.293l-6-6c-0.391-0.391-0.391-1.023,0-1.414
		s1.023-0.391,1.414,0l6,6c0.391,0.391,0.391,1.023,0,1.414C59.512,17.902,59.256,18,59,18z"/>
	<path style="fill:#99527E;" d="M53,24c-0.256,0-0.512-0.098-0.707-0.293c-0.391-0.391-0.391-1.023,0-1.414l6-6
		c0.391-0.391,1.023-0.391,1.414,0s0.391,1.023,0,1.414l-6,6C53.512,23.902,53.256,24,53,24z"/>
	<path style="fill:#99527E;" d="M59,45H28c-0.553,0-1-0.447-1-1s0.447-1,1-1h31c0.553,0,1,0.447,1,1S59.553,45,59,45z"/>
	<path style="fill:#99527E;" d="M59,45c-0.256,0-0.512-0.098-0.707-0.293l-6-6c-0.391-0.391-0.391-1.023,0-1.414
		s1.023-0.391,1.414,0l6,6c0.391,0.391,0.391,1.023,0,1.414C59.512,44.902,59.256,45,59,45z"/>
	<path style="fill:#99527E;" d="M53,51c-0.256,0-0.512-0.098-0.707-0.293c-0.391-0.391-0.391-1.023,0-1.414l6-6
		c0.391-0.391,1.023-0.391,1.414,0s0.391,1.023,0,1.414l-6,6C53.512,50.902,53.256,51,53,51z"/>
</g>
<g>
</g>
<g>
</g>
<g>
</g>
<g>
</g>
<g>
</g>
<g>
</g>
<g>
</g>
<g>
</g>
<g>
</g>
<g>
</g>
<g>
</g>
<g>
</g>
<g>
</g>
<g>
</g>
<g>
</g>
</svg>
