<?xml version="1.0" encoding="iso-8859-1"?>
<!-- Generator: Adobe Illustrator 18.0.0, SVG Export Plug-In . SVG Version: 6.00 Build 0)  -->
<!DOCTYPE svg PUBLIC "-//W3C//DTD SVG 1.1//EN" "http://www.w3.org/Graphics/SVG/1.1/DTD/svg11.dtd">
<svg version="1.1" id="Capa_1" xmlns="http://www.w3.org/2000/svg" xmlns:xlink="http://www.w3.org/1999/xlink" x="0px" y="0px"
	 viewBox="0 0 54 54" style="enable-background:new 0 0 54 54;" xml:space="preserve">
<g>
	<g>
		<path style="fill:#88C057;" d="M53,27L53,27c0,14.359-11.641,26-26,26h0C12.641,53,1,41.359,1,27v0C1,12.641,12.641,1,27,1h0
			C41.359,1,53,12.641,53,27z"/>
		<path style="fill:#88C057;" d="M27,54C12.112,54,0,41.888,0,27S12.112,0,27,0s27,12.112,27,27S41.888,54,27,54z M27,2
			C13.215,2,2,13.215,2,27s11.215,25,25,25s25-11.215,25-25S40.785,2,27,2z"/>
	</g>
	<g>
		<path style="fill:#FFFFFF;" d="M28.017,17.856l8.719,15.101C37.004,33.421,36.669,34,36.134,34H18.696
			c-0.535,0-0.87-0.579-0.602-1.043l8.719-15.101C27.081,17.392,27.75,17.392,28.017,17.856z"/>
		<path style="fill:#FFFFFF;" d="M36.134,35H18.696c-0.613,0-1.162-0.316-1.469-0.848c-0.306-0.53-0.307-1.164,0-1.695l8.719-15.102
			c0.307-0.53,0.855-0.848,1.469-0.848s1.162,0.317,1.469,0.848l8.719,15.102c0.307,0.531,0.306,1.165,0,1.695
			C37.296,34.684,36.747,35,36.134,35z M19.224,33h16.383l-8.191-14.188L19.224,33z"/>
	</g>
</g>
<g>
</g>
<g>
</g>
<g>
</g>
<g>
</g>
<g>
</g>
<g>
</g>
<g>
</g>
<g>
</g>
<g>
</g>
<g>
</g>
<g>
</g>
<g>
</g>
<g>
</g>
<g>
</g>
<g>
</g>
</svg>
