<?xml version="1.0" encoding="iso-8859-1"?>
<!-- Generator: Adobe Illustrator 18.0.0, SVG Export Plug-In . SVG Version: 6.00 Build 0)  -->
<!DOCTYPE svg PUBLIC "-//W3C//DTD SVG 1.1//EN" "http://www.w3.org/Graphics/SVG/1.1/DTD/svg11.dtd">
<svg version="1.1" id="Capa_1" xmlns="http://www.w3.org/2000/svg" xmlns:xlink="http://www.w3.org/1999/xlink" x="0px" y="0px"
	 viewBox="0 0 54 54" style="enable-background:new 0 0 54 54;" xml:space="preserve">
<g>
	<g>
		<path style="fill:#0096E6;" d="M53,4.783v44.435C53,51.306,51.306,53,49.217,53H4.783C2.694,53,1,51.306,1,49.217V4.783
			C1,2.694,2.694,1,4.783,1h44.435C51.306,1,53,2.694,53,4.783z"/>
		<path style="fill:#0096E6;" d="M49.217,54H4.783C2.146,54,0,51.854,0,49.217V4.782C0,2.146,2.146,0,4.783,0h44.435
			C51.854,0,54,2.146,54,4.783v44.435C54,51.854,51.854,54,49.217,54z M4.783,2C3.249,2,2,3.248,2,4.782v44.435
			C2,50.751,3.249,52,4.783,52h44.435C50.751,52,52,50.752,52,49.218V4.783C52,3.249,50.751,2,49.217,2H4.783z"/>
	</g>
	<g>
		<path style="fill:#FFFFFF;" d="M27.841,14.456l12.175,21.087C40.389,36.191,39.922,37,39.175,37H14.825
			c-0.747,0-1.215-0.809-0.841-1.456l12.175-21.087C26.533,13.809,27.467,13.809,27.841,14.456z"/>
		<path style="fill:#FFFFFF;" d="M39.175,38h-24.35c-0.712,0-1.351-0.368-1.707-0.985c-0.356-0.617-0.356-1.354,0-1.971
			l12.174-21.088c0.356-0.617,0.995-0.985,1.707-0.985s1.351,0.368,1.707,0.985l12.175,21.088c0.356,0.616,0.356,1.354,0,1.971
			C40.525,37.632,39.887,38,39.175,38z M39.175,36v1l0.001-1L26.975,14.956L14.851,36.044L39.175,36z"/>
	</g>
</g>
<g>
</g>
<g>
</g>
<g>
</g>
<g>
</g>
<g>
</g>
<g>
</g>
<g>
</g>
<g>
</g>
<g>
</g>
<g>
</g>
<g>
</g>
<g>
</g>
<g>
</g>
<g>
</g>
<g>
</g>
</svg>
