<?xml version="1.0" encoding="iso-8859-1"?>
<!-- Generator: Adobe Illustrator 18.0.0, SVG Export Plug-In . SVG Version: 6.00 Build 0)  -->
<!DOCTYPE svg PUBLIC "-//W3C//DTD SVG 1.1//EN" "http://www.w3.org/Graphics/SVG/1.1/DTD/svg11.dtd">
<svg version="1.1" id="Capa_1" xmlns="http://www.w3.org/2000/svg" xmlns:xlink="http://www.w3.org/1999/xlink" x="0px" y="0px"
	 viewBox="0 0 56 56" style="enable-background:new 0 0 56 56;" xml:space="preserve">
<g>
	<path style="fill:#4482C3;" d="M28,44c-0.552,0-1-0.447-1-1V5c0-0.553,0.448-1,1-1s1,0.447,1,1v38C29,43.553,28.552,44,28,44z"/>
	<path style="fill:#4482C3;" d="M16,18c-0.256,0-0.512-0.098-0.707-0.293c-0.391-0.391-0.391-1.023,0-1.414l12-12
		c0.391-0.391,1.023-0.391,1.414,0s0.391,1.023,0,1.414l-12,12C16.512,17.902,16.256,18,16,18z"/>
	<path style="fill:#4482C3;" d="M40,18c-0.256,0-0.512-0.098-0.707-0.293l-12-12c-0.391-0.391-0.391-1.023,0-1.414
		s1.023-0.391,1.414,0l12,12c0.391,0.391,0.391,1.023,0,1.414C40.512,17.902,40.256,18,40,18z"/>
	<path style="fill:#4482C3;" d="M40,18c-0.256,0-0.512-0.098-0.707-0.293l-12-12c-0.391-0.391-0.391-1.023,0-1.414
		s1.023-0.391,1.414,0l12,12c0.391,0.391,0.391,1.023,0,1.414C40.512,17.902,40.256,18,40,18z"/>
	<path style="fill:#4482C3;" d="M56,52H0V39c0-0.553,0.448-1,1-1s1,0.447,1,1v11h52V39c0-0.553,0.448-1,1-1s1,0.447,1,1V52z"/>
</g>
<g>
</g>
<g>
</g>
<g>
</g>
<g>
</g>
<g>
</g>
<g>
</g>
<g>
</g>
<g>
</g>
<g>
</g>
<g>
</g>
<g>
</g>
<g>
</g>
<g>
</g>
<g>
</g>
<g>
</g>
</svg>
