<?xml version="1.0" encoding="iso-8859-1"?>
<!-- Generator: Adobe Illustrator 18.0.0, SVG Export Plug-In . SVG Version: 6.00 Build 0)  -->
<!DOCTYPE svg PUBLIC "-//W3C//DTD SVG 1.1//EN" "http://www.w3.org/Graphics/SVG/1.1/DTD/svg11.dtd">
<svg version="1.1" id="Capa_1" xmlns="http://www.w3.org/2000/svg" xmlns:xlink="http://www.w3.org/1999/xlink" x="0px" y="0px"
	 viewBox="0 0 47 47" style="enable-background:new 0 0 47 47;" xml:space="preserve">
<g>
	<path style="fill:#48A0DC;" d="M35.5,14c-0.256,0-0.512-0.098-0.707-0.293L23.5,2.414L12.207,13.707
		c-0.391,0.391-1.023,0.391-1.414,0s-0.391-1.023,0-1.414l12-12c0.391-0.391,1.023-0.391,1.414,0l12,12
		c0.391,0.391,0.391,1.023,0,1.414C36.012,13.902,35.756,14,35.5,14z"/>
	<path style="fill:#48A0DC;" d="M23.5,35c-0.553,0-1-0.447-1-1V1c0-0.553,0.447-1,1-1s1,0.447,1,1v33C24.5,34.553,24.053,35,23.5,35
		z"/>
	<path style="fill:#48A0DC;" d="M45.5,43h-44c-0.553,0-1-0.447-1-1s0.447-1,1-1h44c0.553,0,1,0.447,1,1S46.053,43,45.5,43z"/>
	<path style="fill:#48A0DC;" d="M45.5,47h-44c-0.553,0-1-0.447-1-1s0.447-1,1-1h44c0.553,0,1,0.447,1,1S46.053,47,45.5,47z"/>
</g>
<g>
</g>
<g>
</g>
<g>
</g>
<g>
</g>
<g>
</g>
<g>
</g>
<g>
</g>
<g>
</g>
<g>
</g>
<g>
</g>
<g>
</g>
<g>
</g>
<g>
</g>
<g>
</g>
<g>
</g>
</svg>
