<?xml version="1.0" encoding="iso-8859-1"?>
<!-- Generator: Adobe Illustrator 18.0.0, SVG Export Plug-In . SVG Version: 6.00 Build 0)  -->
<!DOCTYPE svg PUBLIC "-//W3C//DTD SVG 1.1//EN" "http://www.w3.org/Graphics/SVG/1.1/DTD/svg11.dtd">
<svg version="1.1" id="Capa_1" xmlns="http://www.w3.org/2000/svg" xmlns:xlink="http://www.w3.org/1999/xlink" x="0px" y="0px"
	 viewBox="0 0 52.522 52.522" style="enable-background:new 0 0 52.522 52.522;" xml:space="preserve">
<g>
	<path style="fill:#26B99A;" d="M16.023,21.522H3.975L24.103,1.414l20.08,20.108H32.135c0,0-4.292,17.598,16.064,29.712
		c0,0-15.536,3.02-26.794-10.51C21.404,40.725,15.625,34.733,16.023,21.522z"/>
	<path style="fill:#26B99A;" d="M44.34,52.522c-5.386,0-15.627-1.45-23.705-11.157c-0.194-0.197-5.721-6.08-5.631-18.843H1.559
		L24.104,0l22.49,22.522H32.96c-0.547,3.454-1.559,17.552,15.75,27.853l2.253,1.341l-2.574,0.5
		C48.326,52.229,46.787,52.522,44.34,52.522z M6.391,20.522h10.662l-0.03,1.03c-0.381,12.643,5.046,18.422,5.101,18.479
		c8.064,9.686,18.296,10.627,23.08,10.478C27.281,38.241,31.12,21.461,31.163,21.285l0.187-0.763H41.77L24.102,2.828L6.391,20.522z"
		/>
</g>
<g>
</g>
<g>
</g>
<g>
</g>
<g>
</g>
<g>
</g>
<g>
</g>
<g>
</g>
<g>
</g>
<g>
</g>
<g>
</g>
<g>
</g>
<g>
</g>
<g>
</g>
<g>
</g>
<g>
</g>
</svg>
