<?xml version="1.0" encoding="iso-8859-1"?>
<!-- Generator: Adobe Illustrator 18.0.0, SVG Export Plug-In . SVG Version: 6.00 Build 0)  -->
<!DOCTYPE svg PUBLIC "-//W3C//DTD SVG 1.1//EN" "http://www.w3.org/Graphics/SVG/1.1/DTD/svg11.dtd">
<svg version="1.1" id="Capa_1" xmlns="http://www.w3.org/2000/svg" xmlns:xlink="http://www.w3.org/1999/xlink" x="0px" y="0px"
	 viewBox="0 0 60 60" style="enable-background:new 0 0 60 60;" xml:space="preserve">
<g>
	<path style="fill:#8697CB;" d="M23.5,60c-0.553,0-1-0.448-1-1V21c0-0.552,0.447-1,1-1s1,0.448,1,1v38
		C24.5,59.552,24.053,60,23.5,60z"/>
	<path style="fill:#8697CB;" d="M23.5,60c-0.256,0-0.512-0.098-0.707-0.293c-0.391-0.391-0.391-1.023,0-1.414l12-12
		c0.391-0.391,1.023-0.391,1.414,0s0.391,1.023,0,1.414l-12,12C24.012,59.902,23.756,60,23.5,60z"/>
	<path style="fill:#8697CB;" d="M23.5,60c-0.256,0-0.512-0.098-0.707-0.293l-12-12c-0.391-0.391-0.391-1.023,0-1.414
		s1.023-0.391,1.414,0l12,12c0.391,0.391,0.391,1.023,0,1.414C24.012,59.902,23.756,60,23.5,60z"/>
	<path style="fill:#8697CB;" d="M23.5,60c-0.256,0-0.512-0.098-0.707-0.293l-12-12c-0.391-0.391-0.391-1.023,0-1.414
		s1.023-0.391,1.414,0l12,12c0.391,0.391,0.391,1.023,0,1.414C24.012,59.902,23.756,60,23.5,60z"/>
	<path style="fill:#8697CB;" d="M36.5,40c-0.553,0-1-0.448-1-1v-2c0-0.552,0.447-1,1-1s1,0.448,1,1v2C37.5,39.552,37.053,40,36.5,40
		z M36.5,34c-0.553,0-1-0.448-1-1v-2c0-0.552,0.447-1,1-1s1,0.448,1,1v2C37.5,33.552,37.053,34,36.5,34z M36.5,28
		c-0.553,0-1-0.448-1-1v-2c0-0.552,0.447-1,1-1s1,0.448,1,1v2C37.5,27.552,37.053,28,36.5,28z M36.5,22c-0.553,0-1-0.448-1-1v-2
		c0-0.552,0.447-1,1-1s1,0.448,1,1v2C37.5,21.552,37.053,22,36.5,22z M36.5,16c-0.553,0-1-0.448-1-1v-2c0-0.552,0.447-1,1-1
		s1,0.448,1,1v2C37.5,15.552,37.053,16,36.5,16z M36.5,10c-0.553,0-1-0.448-1-1V7c0-0.552,0.447-1,1-1s1,0.448,1,1v2
		C37.5,9.552,37.053,10,36.5,10z M36.5,4c-0.553,0-1-0.448-1-1V1c0-0.552,0.447-1,1-1s1,0.448,1,1v2C37.5,3.552,37.053,4,36.5,4z"/>
	<path style="fill:#8697CB;" d="M24.5,14c-0.256,0-0.512-0.098-0.707-0.293c-0.391-0.391-0.391-1.023,0-1.414l12-12
		c0.391-0.391,1.023-0.391,1.414,0s0.391,1.023,0,1.414l-12,12C25.012,13.902,24.756,14,24.5,14z"/>
	<path style="fill:#8697CB;" d="M48.5,14c-0.256,0-0.512-0.098-0.707-0.293l-12-12c-0.391-0.391-0.391-1.023,0-1.414
		s1.023-0.391,1.414,0l12,12c0.391,0.391,0.391,1.023,0,1.414C49.012,13.902,48.756,14,48.5,14z"/>
	<path style="fill:#8697CB;" d="M48.5,14c-0.256,0-0.512-0.098-0.707-0.293l-12-12c-0.391-0.391-0.391-1.023,0-1.414
		s1.023-0.391,1.414,0l12,12c0.391,0.391,0.391,1.023,0,1.414C49.012,13.902,48.756,14,48.5,14z"/>
</g>
<g>
</g>
<g>
</g>
<g>
</g>
<g>
</g>
<g>
</g>
<g>
</g>
<g>
</g>
<g>
</g>
<g>
</g>
<g>
</g>
<g>
</g>
<g>
</g>
<g>
</g>
<g>
</g>
<g>
</g>
</svg>
